<ttFont>
    <TTGlyph name="A" xMin="-10" yMin="-12" xMax="682" yMax="690">
      <contour>
        <pt x="682" y="31" on="1"/>
        <pt x="682" y="8" on="0"/>
        <pt x="672" y="-12" on="1"/>
        <pt x="569" y="-5" on="0"/>
        <pt x="532" y="-5" on="1"/>
        <pt x="427" y="-12" on="1"/>
        <pt x="427" y="11" on="0"/>
        <pt x="437" y="31" on="1"/>
        <pt x="466" y="38" on="0"/>
        <pt x="492" y="51" on="1"/>
        <pt x="461" y="210" on="0"/>
        <pt x="456" y="232" on="1"/>
        <pt x="339" y="235" on="0"/>
        <pt x="264" y="235" on="0"/>
        <pt x="214" y="231" on="1"/>
        <pt x="126" y="51" on="1"/>
        <pt x="212" y="31" on="1"/>
        <pt x="212" y="8" on="0"/>
        <pt x="202" y="-12" on="1"/>
        <pt x="122" y="-5" on="0"/>
        <pt x="85" y="-5" on="1"/>
        <pt x="-10" y="-12" on="1"/>
        <pt x="-10" y="11" on="0"/>
        <pt x="0" y="31" on="1"/>
        <pt x="32" y="40" on="0"/>
        <pt x="59" y="59" on="1"/>
        <pt x="246" y="389" on="0"/>
        <pt x="358" y="637" on="1"/>
        <pt x="350" y="669" on="1"/>
        <pt x="393" y="690" on="0"/>
        <pt x="442" y="690" on="1"/>
        <pt x="536" y="265" on="0"/>
        <pt x="599" y="46" on="1"/>
      </contour>
      <contour>
        <pt x="239" y="283" on="1"/>
        <pt x="286" y="280" on="0"/>
        <pt x="385" y="280" on="0"/>
        <pt x="445" y="282" on="1"/>
        <pt x="433" y="339" on="0"/>
        <pt x="379" y="556" on="1"/>
        <pt x="326" y="459" on="0"/>
      </contour>
    </TTGlyph>
    <TTGlyph name="AE" xMin="54" yMin="-12" xMax="984" yMax="687">
      <contour>
        <pt x="968" y="680" on="1"/>
        <pt x="977" y="672" on="0"/>
        <pt x="984" y="655" on="1"/>
        <pt x="963" y="618" on="0"/>
        <pt x="950" y="565" on="1"/>
        <pt x="945" y="548" on="1"/>
        <pt x="925" y="539" on="0"/>
        <pt x="896" y="539" on="1"/>
        <pt x="905" y="579" on="0"/>
        <pt x="905" y="619" on="0"/>
        <pt x="890" y="625" on="1"/>
        <pt x="647" y="625" on="1"/>
        <pt x="628" y="461" on="0"/>
        <pt x="621" y="370" on="1"/>
        <pt x="845" y="370" on="1"/>
        <pt x="861" y="394" on="0"/>
        <pt x="869" y="424" on="1"/>
        <pt x="876" y="427" on="0"/>
        <pt x="889" y="427" on="1"/>
        <pt x="911" y="423" on="1"/>
        <pt x="890" y="357" on="0"/>
        <pt x="880" y="254" on="1"/>
        <pt x="872" y="250" on="0"/>
        <pt x="860" y="250" on="1"/>
        <pt x="843" y="253" on="1"/>
        <pt x="843" y="293" on="0"/>
        <pt x="835" y="320" on="1"/>
        <pt x="618" y="320" on="1"/>
        <pt x="609" y="198" on="0"/>
        <pt x="603" y="60" on="1"/>
        <pt x="862" y="60" on="1"/>
        <pt x="881" y="88" on="0"/>
        <pt x="890" y="124" on="1"/>
        <pt x="893" y="137" on="1"/>
        <pt x="924" y="131" on="0"/>
        <pt x="935" y="116" on="1"/>
        <pt x="939" y="110" on="1"/>
        <pt x="919" y="60" on="0"/>
        <pt x="913" y="0" on="1"/>
        <pt x="538" y="0" on="1"/>
        <pt x="443" y="-7" on="1"/>
        <pt x="443" y="16" on="0"/>
        <pt x="453" y="36" on="1"/>
        <pt x="489" y="47" on="0"/>
        <pt x="517" y="69" on="1"/>
        <pt x="530" y="183" on="0"/>
        <pt x="534" y="232" on="1"/>
        <pt x="435" y="235" on="0"/>
        <pt x="361" y="235" on="0"/>
        <pt x="323" y="231" on="1"/>
        <pt x="301" y="197" on="0"/>
        <pt x="205" y="48" on="1"/>
        <pt x="276" y="31" on="1"/>
        <pt x="276" y="8" on="0"/>
        <pt x="266" y="-12" on="1"/>
        <pt x="186" y="-5" on="0"/>
        <pt x="149" y="-5" on="1"/>
        <pt x="54" y="-12" on="1"/>
        <pt x="54" y="11" on="0"/>
        <pt x="64" y="31" on="1"/>
        <pt x="105" y="43" on="0"/>
        <pt x="133" y="68" on="1"/>
        <pt x="386" y="408" on="0"/>
        <pt x="532" y="634" on="1"/>
        <pt x="487" y="644" on="1"/>
        <pt x="487" y="667" on="0"/>
        <pt x="497" y="687" on="1"/>
        <pt x="577" y="680" on="0"/>
        <pt x="614" y="680" on="1"/>
      </contour>
      <contour>
        <pt x="356" y="282" on="1"/>
        <pt x="404" y="280" on="0"/>
        <pt x="485" y="280" on="0"/>
        <pt x="539" y="282" on="1"/>
        <pt x="548" y="401" on="0"/>
        <pt x="560" y="586" on="1"/>
        <pt x="472" y="461" on="0"/>
      </contour>
    </TTGlyph>
    <TTGlyph name="Aacute" xMin="-10" yMin="-12" xMax="682" yMax="890">
      <contour>
        <pt x="682" y="31" on="1"/>
        <pt x="682" y="8" on="0"/>
        <pt x="672" y="-12" on="1"/>
        <pt x="569" y="-5" on="0"/>
        <pt x="532" y="-5" on="1"/>
        <pt x="427" y="-12" on="1"/>
        <pt x="427" y="11" on="0"/>
        <pt x="437" y="31" on="1"/>
        <pt x="466" y="38" on="0"/>
        <pt x="492" y="51" on="1"/>
        <pt x="461" y="210" on="0"/>
        <pt x="456" y="232" on="1"/>
        <pt x="339" y="235" on="0"/>
        <pt x="264" y="235" on="0"/>
        <pt x="214" y="231" on="1"/>
        <pt x="126" y="51" on="1"/>
        <pt x="212" y="31" on="1"/>
        <pt x="212" y="8" on="0"/>
        <pt x="202" y="-12" on="1"/>
        <pt x="122" y="-5" on="0"/>
        <pt x="85" y="-5" on="1"/>
        <pt x="-10" y="-12" on="1"/>
        <pt x="-10" y="11" on="0"/>
        <pt x="0" y="31" on="1"/>
        <pt x="32" y="40" on="0"/>
        <pt x="59" y="59" on="1"/>
        <pt x="246" y="389" on="0"/>
        <pt x="358" y="637" on="1"/>
        <pt x="350" y="669" on="1"/>
        <pt x="393" y="690" on="0"/>
        <pt x="442" y="690" on="1"/>
        <pt x="536" y="265" on="0"/>
        <pt x="599" y="46" on="1"/>
      </contour>
      <contour>
        <pt x="239" y="283" on="1"/>
        <pt x="286" y="280" on="0"/>
        <pt x="385" y="280" on="0"/>
        <pt x="445" y="282" on="1"/>
        <pt x="433" y="339" on="0"/>
        <pt x="379" y="556" on="1"/>
        <pt x="326" y="459" on="0"/>
      </contour>
      <contour>
        <pt x="432" y="890" on="1"/>
        <pt x="465" y="884" on="0"/>
        <pt x="502" y="865" on="1"/>
        <pt x="502" y="855" on="1"/>
        <pt x="439" y="781" on="0"/>
        <pt x="371" y="735" on="1"/>
        <pt x="322" y="754" on="1"/>
        <pt x="322" y="761" on="1"/>
        <pt x="383" y="817" on="0"/>
      </contour>
    </TTGlyph>
    <TTGlyph name="Acircumflex" xMin="-10" yMin="-12" xMax="682" yMax="905">
      <contour>
        <pt x="682" y="31" on="1"/>
        <pt x="682" y="8" on="0"/>
        <pt x="672" y="-12" on="1"/>
        <pt x="569" y="-5" on="0"/>
        <pt x="532" y="-5" on="1"/>
        <pt x="427" y="-12" on="1"/>
        <pt x="427" y="11" on="0"/>
        <pt x="437" y="31" on="1"/>
        <pt x="466" y="38" on="0"/>
        <pt x="492" y="51" on="1"/>
        <pt x="461" y="210" on="0"/>
        <pt x="456" y="232" on="1"/>
        <pt x="339" y="235" on="0"/>
        <pt x="264" y="235" on="0"/>
        <pt x="214" y="231" on="1"/>
        <pt x="126" y="51" on="1"/>
        <pt x="212" y="31" on="1"/>
        <pt x="212" y="8" on="0"/>
        <pt x="202" y="-12" on="1"/>
        <pt x="122" y="-5" on="0"/>
        <pt x="85" y="-5" on="1"/>
        <pt x="-10" y="-12" on="1"/>
        <pt x="-10" y="11" on="0"/>
        <pt x="0" y="31" on="1"/>
        <pt x="32" y="40" on="0"/>
        <pt x="59" y="59" on="1"/>
        <pt x="246" y="389" on="0"/>
        <pt x="358" y="637" on="1"/>
        <pt x="350" y="669" on="1"/>
        <pt x="393" y="690" on="0"/>
        <pt x="442" y="690" on="1"/>
        <pt x="536" y="265" on="0"/>
        <pt x="599" y="46" on="1"/>
      </contour>
      <contour>
        <pt x="239" y="283" on="1"/>
        <pt x="286" y="280" on="0"/>
        <pt x="385" y="280" on="0"/>
        <pt x="445" y="282" on="1"/>
        <pt x="433" y="339" on="0"/>
        <pt x="379" y="556" on="1"/>
        <pt x="326" y="459" on="0"/>
      </contour>
      <contour>
        <pt x="385" y="878" on="1"/>
        <pt x="438" y="905" on="1"/>
        <pt x="485" y="831" on="0"/>
        <pt x="548" y="767" on="1"/>
        <pt x="548" y="759" on="1"/>
        <pt x="496" y="735" on="1"/>
        <pt x="442" y="781" on="0"/>
        <pt x="409" y="832" on="1"/>
        <pt x="369" y="786" on="0"/>
        <pt x="309" y="748" on="1"/>
        <pt x="265" y="759" on="1"/>
        <pt x="265" y="767" on="1"/>
        <pt x="354" y="831" on="0"/>
      </contour>
    </TTGlyph>
    <TTGlyph name="Adieresis" xMin="-10" yMin="-12" xMax="682" yMax="830">
      <contour>
        <pt x="682" y="31" on="1"/>
        <pt x="682" y="8" on="0"/>
        <pt x="672" y="-12" on="1"/>
        <pt x="569" y="-5" on="0"/>
        <pt x="532" y="-5" on="1"/>
        <pt x="427" y="-12" on="1"/>
        <pt x="427" y="11" on="0"/>
        <pt x="437" y="31" on="1"/>
        <pt x="466" y="38" on="0"/>
        <pt x="492" y="51" on="1"/>
        <pt x="461" y="210" on="0"/>
        <pt x="456" y="232" on="1"/>
        <pt x="339" y="235" on="0"/>
        <pt x="264" y="235" on="0"/>
        <pt x="214" y="231" on="1"/>
        <pt x="126" y="51" on="1"/>
        <pt x="212" y="31" on="1"/>
        <pt x="212" y="8" on="0"/>
        <pt x="202" y="-12" on="1"/>
        <pt x="122" y="-5" on="0"/>
        <pt x="85" y="-5" on="1"/>
        <pt x="-10" y="-12" on="1"/>
        <pt x="-10" y="11" on="0"/>
        <pt x="0" y="31" on="1"/>
        <pt x="32" y="40" on="0"/>
        <pt x="59" y="59" on="1"/>
        <pt x="246" y="389" on="0"/>
        <pt x="358" y="637" on="1"/>
        <pt x="350" y="669" on="1"/>
        <pt x="393" y="690" on="0"/>
        <pt x="442" y="690" on="1"/>
        <pt x="536" y="265" on="0"/>
        <pt x="599" y="46" on="1"/>
      </contour>
      <contour>
        <pt x="239" y="283" on="1"/>
        <pt x="286" y="280" on="0"/>
        <pt x="385" y="280" on="0"/>
        <pt x="445" y="282" on="1"/>
        <pt x="433" y="339" on="0"/>
        <pt x="379" y="556" on="1"/>
        <pt x="326" y="459" on="0"/>
      </contour>
      <contour>
        <pt x="263" y="811" on="0"/>
        <pt x="301" y="830" on="0"/>
        <pt x="341" y="830" on="0"/>
        <pt x="364" y="812" on="0"/>
        <pt x="364" y="801" on="1"/>
        <pt x="359" y="765" on="1"/>
        <pt x="348" y="735" on="0"/>
        <pt x="295" y="735" on="1"/>
        <pt x="275" y="735" on="0"/>
        <pt x="254" y="753" on="0"/>
        <pt x="254" y="765" on="1"/>
        <pt x="258" y="796" on="1"/>
      </contour>
      <contour>
        <pt x="461" y="811" on="0"/>
        <pt x="499" y="830" on="0"/>
        <pt x="539" y="830" on="0"/>
        <pt x="562" y="812" on="0"/>
        <pt x="562" y="801" on="1"/>
        <pt x="557" y="765" on="1"/>
        <pt x="546" y="735" on="0"/>
        <pt x="493" y="735" on="1"/>
        <pt x="473" y="735" on="0"/>
        <pt x="452" y="753" on="0"/>
        <pt x="452" y="765" on="1"/>
        <pt x="456" y="796" on="1"/>
      </contour>
    </TTGlyph>
    <TTGlyph name="Agrave" xMin="-10" yMin="-12" xMax="682" yMax="900">
      <contour>
        <pt x="682" y="31" on="1"/>
        <pt x="682" y="8" on="0"/>
        <pt x="672" y="-12" on="1"/>
        <pt x="569" y="-5" on="0"/>
        <pt x="532" y="-5" on="1"/>
        <pt x="427" y="-12" on="1"/>
        <pt x="427" y="11" on="0"/>
        <pt x="437" y="31" on="1"/>
        <pt x="466" y="38" on="0"/>
        <pt x="492" y="51" on="1"/>
        <pt x="461" y="210" on="0"/>
        <pt x="456" y="232" on="1"/>
        <pt x="339" y="235" on="0"/>
        <pt x="264" y="235" on="0"/>
        <pt x="214" y="231" on="1"/>
        <pt x="126" y="51" on="1"/>
        <pt x="212" y="31" on="1"/>
        <pt x="212" y="8" on="0"/>
        <pt x="202" y="-12" on="1"/>
        <pt x="122" y="-5" on="0"/>
        <pt x="85" y="-5" on="1"/>
        <pt x="-10" y="-12" on="1"/>
        <pt x="-10" y="11" on="0"/>
        <pt x="0" y="31" on="1"/>
        <pt x="32" y="40" on="0"/>
        <pt x="59" y="59" on="1"/>
        <pt x="246" y="389" on="0"/>
        <pt x="358" y="637" on="1"/>
        <pt x="350" y="669" on="1"/>
        <pt x="393" y="690" on="0"/>
        <pt x="442" y="690" on="1"/>
        <pt x="536" y="265" on="0"/>
        <pt x="599" y="46" on="1"/>
      </contour>
      <contour>
        <pt x="239" y="283" on="1"/>
        <pt x="286" y="280" on="0"/>
        <pt x="385" y="280" on="0"/>
        <pt x="445" y="282" on="1"/>
        <pt x="433" y="339" on="0"/>
        <pt x="379" y="556" on="1"/>
        <pt x="326" y="459" on="0"/>
      </contour>
      <contour>
        <pt x="403" y="900" on="1"/>
        <pt x="450" y="830" on="0"/>
        <pt x="496" y="780" on="1"/>
        <pt x="514" y="761" on="1"/>
        <pt x="514" y="754" on="1"/>
        <pt x="465" y="735" on="1"/>
        <pt x="435" y="755" on="0"/>
        <pt x="375" y="809" on="0"/>
        <pt x="360" y="826" on="1"/>
        <pt x="346" y="843" on="1"/>
        <pt x="346" y="853" on="1"/>
        <pt x="373" y="888" on="0"/>
      </contour>
    </TTGlyph>
    <TTGlyph name="Aogonek" xMin="-10" yMin="-245" xMax="682" yMax="690">
      <contour>
        <pt x="682" y="31" on="1"/>
        <pt x="682" y="8" on="0"/>
        <pt x="672" y="-12" on="1"/>
        <pt x="632" y="-9" on="0"/>
        <pt x="594" y="-7" on="1"/>
        <pt x="526" y="-63" on="0"/>
        <pt x="526" y="-159" on="0"/>
        <pt x="554" y="-170" on="1"/>
        <pt x="649" y="-170" on="1"/>
        <pt x="649" y="-193" on="0"/>
        <pt x="639" y="-213" on="1"/>
        <pt x="558" y="-245" on="0"/>
        <pt x="505" y="-245" on="0"/>
        <pt x="454" y="-201" on="0"/>
        <pt x="454" y="-152" on="1"/>
        <pt x="454" y="-78" on="0"/>
        <pt x="532" y="-5" on="1"/>
        <pt x="427" y="-12" on="1"/>
        <pt x="427" y="11" on="0"/>
        <pt x="437" y="31" on="1"/>
        <pt x="466" y="38" on="0"/>
        <pt x="492" y="51" on="1"/>
        <pt x="461" y="210" on="0"/>
        <pt x="456" y="232" on="1"/>
        <pt x="339" y="235" on="0"/>
        <pt x="264" y="235" on="0"/>
        <pt x="214" y="231" on="1"/>
        <pt x="126" y="51" on="1"/>
        <pt x="212" y="31" on="1"/>
        <pt x="212" y="8" on="0"/>
        <pt x="202" y="-12" on="1"/>
        <pt x="122" y="-5" on="0"/>
        <pt x="85" y="-5" on="1"/>
        <pt x="-10" y="-12" on="1"/>
        <pt x="-10" y="11" on="0"/>
        <pt x="0" y="31" on="1"/>
        <pt x="32" y="40" on="0"/>
        <pt x="59" y="59" on="1"/>
        <pt x="246" y="389" on="0"/>
        <pt x="358" y="637" on="1"/>
        <pt x="350" y="669" on="1"/>
        <pt x="393" y="690" on="0"/>
        <pt x="442" y="690" on="1"/>
        <pt x="536" y="265" on="0"/>
        <pt x="599" y="46" on="1"/>
      </contour>
      <contour>
        <pt x="239" y="283" on="1"/>
        <pt x="286" y="280" on="0"/>
        <pt x="385" y="280" on="0"/>
        <pt x="445" y="282" on="1"/>
        <pt x="433" y="339" on="0"/>
        <pt x="379" y="556" on="1"/>
        <pt x="326" y="459" on="0"/>
      </contour>
    </TTGlyph>
    <TTGlyph name="Aring" xMin="-10" yMin="-12" xMax="682" yMax="890">
      <contour>
        <pt x="682" y="31" on="1"/>
        <pt x="682" y="8" on="0"/>
        <pt x="672" y="-12" on="1"/>
        <pt x="569" y="-5" on="0"/>
        <pt x="532" y="-5" on="1"/>
        <pt x="427" y="-12" on="1"/>
        <pt x="427" y="11" on="0"/>
        <pt x="437" y="31" on="1"/>
        <pt x="466" y="38" on="0"/>
        <pt x="492" y="51" on="1"/>
        <pt x="461" y="210" on="0"/>
        <pt x="456" y="232" on="1"/>
        <pt x="339" y="235" on="0"/>
        <pt x="264" y="235" on="0"/>
        <pt x="214" y="231" on="1"/>
        <pt x="126" y="51" on="1"/>
        <pt x="212" y="31" on="1"/>
        <pt x="212" y="8" on="0"/>
        <pt x="202" y="-12" on="1"/>
        <pt x="122" y="-5" on="0"/>
        <pt x="85" y="-5" on="1"/>
        <pt x="-10" y="-12" on="1"/>
        <pt x="-10" y="11" on="0"/>
        <pt x="0" y="31" on="1"/>
        <pt x="32" y="40" on="0"/>
        <pt x="59" y="59" on="1"/>
        <pt x="246" y="389" on="0"/>
        <pt x="358" y="637" on="1"/>
        <pt x="350" y="669" on="1"/>
        <pt x="393" y="690" on="0"/>
        <pt x="442" y="690" on="1"/>
        <pt x="536" y="265" on="0"/>
        <pt x="599" y="46" on="1"/>
      </contour>
      <contour>
        <pt x="239" y="283" on="1"/>
        <pt x="286" y="280" on="0"/>
        <pt x="385" y="280" on="0"/>
        <pt x="445" y="282" on="1"/>
        <pt x="433" y="339" on="0"/>
        <pt x="379" y="556" on="1"/>
        <pt x="326" y="459" on="0"/>
      </contour>
      <contour>
        <pt x="334" y="833" on="0"/>
        <pt x="380" y="890" on="0"/>
        <pt x="449" y="890" on="0"/>
        <pt x="486" y="859" on="0"/>
        <pt x="486" y="792" on="0"/>
        <pt x="440" y="735" on="0"/>
        <pt x="405" y="735" on="1"/>
        <pt x="334" y="735" on="0"/>
        <pt x="334" y="796" on="1"/>
      </contour>
      <contour>
        <pt x="422" y="847" on="1"/>
        <pt x="403" y="847" on="1"/>
        <pt x="394" y="845" on="0"/>
        <pt x="378" y="824" on="0"/>
        <pt x="377" y="783" on="0"/>
        <pt x="396" y="779" on="1"/>
        <pt x="415" y="779" on="1"/>
        <pt x="424" y="781" on="0"/>
        <pt x="440" y="802" on="0"/>
        <pt x="441" y="843" on="0"/>
      </contour>
    </TTGlyph>
    <TTGlyph name="Atilde" xMin="-10" yMin="-12" xMax="682" yMax="845">
      <contour>
        <pt x="682" y="31" on="1"/>
        <pt x="682" y="8" on="0"/>
        <pt x="672" y="-12" on="1"/>
        <pt x="569" y="-5" on="0"/>
        <pt x="532" y="-5" on="1"/>
        <pt x="427" y="-12" on="1"/>
        <pt x="427" y="11" on="0"/>
        <pt x="437" y="31" on="1"/>
        <pt x="466" y="38" on="0"/>
        <pt x="492" y="51" on="1"/>
        <pt x="461" y="210" on="0"/>
        <pt x="456" y="232" on="1"/>
        <pt x="339" y="235" on="0"/>
        <pt x="264" y="235" on="0"/>
        <pt x="214" y="231" on="1"/>
        <pt x="126" y="51" on="1"/>
        <pt x="212" y="31" on="1"/>
        <pt x="212" y="8" on="0"/>
        <pt x="202" y="-12" on="1"/>
        <pt x="122" y="-5" on="0"/>
        <pt x="85" y="-5" on="1"/>
        <pt x="-10" y="-12" on="1"/>
        <pt x="-10" y="11" on="0"/>
        <pt x="0" y="31" on="1"/>
        <pt x="32" y="40" on="0"/>
        <pt x="59" y="59" on="1"/>
        <pt x="246" y="389" on="0"/>
        <pt x="358" y="637" on="1"/>
        <pt x="350" y="669" on="1"/>
        <pt x="393" y="690" on="0"/>
        <pt x="442" y="690" on="1"/>
        <pt x="536" y="265" on="0"/>
        <pt x="599" y="46" on="1"/>
      </contour>
      <contour>
        <pt x="239" y="283" on="1"/>
        <pt x="286" y="280" on="0"/>
        <pt x="385" y="280" on="0"/>
        <pt x="445" y="282" on="1"/>
        <pt x="433" y="339" on="0"/>
        <pt x="379" y="556" on="1"/>
        <pt x="326" y="459" on="0"/>
      </contour>
      <contour>
        <pt x="546" y="742" on="1"/>
        <pt x="525" y="735" on="0"/>
        <pt x="468" y="735" on="0"/>
        <pt x="363" y="773" on="0"/>
        <pt x="353" y="773" on="1"/>
        <pt x="330" y="773" on="1"/>
        <pt x="319" y="761" on="0"/>
        <pt x="311" y="742" on="1"/>
        <pt x="274" y="742" on="1"/>
        <pt x="267" y="750" on="1"/>
        <pt x="284" y="838" on="1"/>
        <pt x="305" y="845" on="0"/>
        <pt x="359" y="845" on="0"/>
        <pt x="466" y="807" on="0"/>
        <pt x="477" y="807" on="1"/>
        <pt x="500" y="807" on="1"/>
        <pt x="511" y="819" on="0"/>
        <pt x="519" y="838" on="1"/>
        <pt x="556" y="838" on="1"/>
        <pt x="563" y="830" on="1"/>
      </contour>
    </TTGlyph>
    <TTGlyph name="B" xMin="20" yMin="-10" xMax="542" yMax="690">
      <contour>
        <pt x="342" y="690" on="1"/>
        <pt x="520" y="690" on="0"/>
        <pt x="520" y="550" on="1"/>
        <pt x="520" y="427" on="0"/>
        <pt x="411" y="373" on="1"/>
        <pt x="476" y="358" on="0"/>
        <pt x="542" y="281" on="0"/>
        <pt x="542" y="229" on="1"/>
        <pt x="542" y="107" on="0"/>
        <pt x="382" y="-10" on="0"/>
        <pt x="253" y="-10" on="1"/>
        <pt x="220" y="-10" on="0"/>
        <pt x="131" y="0" on="0"/>
        <pt x="115" y="0" on="1"/>
        <pt x="20" y="-7" on="1"/>
        <pt x="20" y="16" on="0"/>
        <pt x="30" y="36" on="1"/>
        <pt x="70" y="48" on="0"/>
        <pt x="98" y="72" on="1"/>
        <pt x="124" y="292" on="0"/>
        <pt x="143" y="626" on="1"/>
        <pt x="68" y="644" on="1"/>
        <pt x="68" y="667" on="0"/>
        <pt x="78" y="687" on="1"/>
        <pt x="142" y="680" on="0"/>
        <pt x="216" y="680" on="0"/>
        <pt x="324" y="690" on="0"/>
      </contour>
      <contour>
        <pt x="338" y="336" on="1"/>
        <pt x="200" y="336" on="1"/>
        <pt x="196" y="289" on="0"/>
        <pt x="184" y="60" on="1"/>
        <pt x="378" y="60" on="1"/>
        <pt x="465" y="93" on="0"/>
        <pt x="465" y="199" on="1"/>
        <pt x="465" y="261" on="0"/>
        <pt x="386" y="336" on="0"/>
      </contour>
      <contour>
        <pt x="447" y="521" on="1"/>
        <pt x="447" y="558" on="0"/>
        <pt x="413" y="618" on="0"/>
        <pt x="382" y="625" on="1"/>
        <pt x="228" y="625" on="1"/>
        <pt x="212" y="496" on="0"/>
        <pt x="203" y="382" on="1"/>
        <pt x="348" y="382" on="1"/>
        <pt x="447" y="426" on="0"/>
      </contour>
    </TTGlyph>
    <TTGlyph name="C" xMin="17" yMin="-20" xMax="548" yMax="696">
      <contour>
        <pt x="193" y="580" on="0"/>
        <pt x="101" y="395" on="0"/>
        <pt x="101" y="208" on="0"/>
        <pt x="172" y="77" on="0"/>
        <pt x="240" y="60" on="1"/>
        <pt x="479" y="60" on="1"/>
        <pt x="479" y="37" on="0"/>
        <pt x="469" y="17" on="1"/>
        <pt x="328" y="-20" on="0"/>
        <pt x="246" y="-20" on="1"/>
        <pt x="140" y="-20" on="0"/>
        <pt x="17" y="128" on="0"/>
        <pt x="17" y="241" on="1"/>
        <pt x="17" y="380" on="0"/>
        <pt x="80" y="496" on="1"/>
        <pt x="148" y="621" on="0"/>
        <pt x="268" y="670" on="1"/>
        <pt x="332" y="696" on="0"/>
        <pt x="457" y="696" on="0"/>
        <pt x="536" y="659" on="0"/>
        <pt x="548" y="635" on="1"/>
        <pt x="527" y="597" on="0"/>
        <pt x="514" y="536" on="1"/>
        <pt x="509" y="516" on="1"/>
        <pt x="484" y="507" on="0"/>
        <pt x="455" y="507" on="1"/>
        <pt x="463" y="529" on="0"/>
        <pt x="463" y="558" on="1"/>
        <pt x="463" y="607" on="0"/>
        <pt x="437" y="625" on="1"/>
        <pt x="277" y="625" on="1"/>
      </contour>
    </TTGlyph>
    <TTGlyph name="Cacute" xMin="17" yMin="-20" xMax="548" yMax="890">
      <contour>
        <pt x="193" y="580" on="0"/>
        <pt x="101" y="395" on="0"/>
        <pt x="101" y="208" on="0"/>
        <pt x="172" y="77" on="0"/>
        <pt x="240" y="60" on="1"/>
        <pt x="479" y="60" on="1"/>
        <pt x="479" y="37" on="0"/>
        <pt x="469" y="17" on="1"/>
        <pt x="328" y="-20" on="0"/>
        <pt x="246" y="-20" on="1"/>
        <pt x="140" y="-20" on="0"/>
        <pt x="17" y="128" on="0"/>
        <pt x="17" y="241" on="1"/>
        <pt x="17" y="380" on="0"/>
        <pt x="80" y="496" on="1"/>
        <pt x="148" y="621" on="0"/>
        <pt x="268" y="670" on="1"/>
        <pt x="332" y="696" on="0"/>
        <pt x="457" y="696" on="0"/>
        <pt x="536" y="659" on="0"/>
        <pt x="548" y="635" on="1"/>
        <pt x="527" y="597" on="0"/>
        <pt x="514" y="536" on="1"/>
        <pt x="509" y="516" on="1"/>
        <pt x="484" y="507" on="0"/>
        <pt x="455" y="507" on="1"/>
        <pt x="463" y="529" on="0"/>
        <pt x="463" y="558" on="1"/>
        <pt x="463" y="607" on="0"/>
        <pt x="437" y="625" on="1"/>
        <pt x="277" y="625" on="1"/>
      </contour>
      <contour>
        <pt x="429" y="890" on="1"/>
        <pt x="462" y="884" on="0"/>
        <pt x="499" y="865" on="1"/>
        <pt x="499" y="855" on="1"/>
        <pt x="436" y="781" on="0"/>
        <pt x="368" y="735" on="1"/>
        <pt x="319" y="754" on="1"/>
        <pt x="319" y="761" on="1"/>
        <pt x="380" y="817" on="0"/>
      </contour>
    </TTGlyph>
    <TTGlyph name="Ccedilla" xMin="17" yMin="-200" xMax="548" yMax="696">
      <contour>
        <pt x="185" y="-200" on="1"/>
        <pt x="191" y="-182" on="0"/>
        <pt x="205" y="-162" on="1"/>
        <pt x="240" y="-162" on="0"/>
        <pt x="274" y="-135" on="0"/>
        <pt x="274" y="-99" on="0"/>
        <pt x="263" y="-91" on="1"/>
        <pt x="221" y="-91" on="1"/>
        <pt x="215" y="-82" on="1"/>
        <pt x="235" y="-20" on="1"/>
        <pt x="133" y="-16" on="0"/>
        <pt x="17" y="131" on="0"/>
        <pt x="17" y="241" on="1"/>
        <pt x="17" y="380" on="0"/>
        <pt x="80" y="496" on="1"/>
        <pt x="148" y="621" on="0"/>
        <pt x="268" y="670" on="1"/>
        <pt x="332" y="696" on="0"/>
        <pt x="457" y="696" on="0"/>
        <pt x="536" y="659" on="0"/>
        <pt x="548" y="635" on="1"/>
        <pt x="527" y="597" on="0"/>
        <pt x="514" y="536" on="1"/>
        <pt x="509" y="516" on="1"/>
        <pt x="484" y="507" on="0"/>
        <pt x="455" y="507" on="1"/>
        <pt x="463" y="529" on="0"/>
        <pt x="463" y="558" on="1"/>
        <pt x="463" y="607" on="0"/>
        <pt x="437" y="625" on="1"/>
        <pt x="277" y="625" on="1"/>
        <pt x="193" y="580" on="0"/>
        <pt x="101" y="395" on="0"/>
        <pt x="101" y="208" on="0"/>
        <pt x="172" y="77" on="0"/>
        <pt x="240" y="60" on="1"/>
        <pt x="479" y="60" on="1"/>
        <pt x="479" y="37" on="0"/>
        <pt x="469" y="17" on="1"/>
        <pt x="358" y="-12" on="0"/>
        <pt x="276" y="-18" on="1"/>
        <pt x="271" y="-44" on="1"/>
        <pt x="304" y="-44" on="1"/>
        <pt x="332" y="-60" on="0"/>
        <pt x="332" y="-94" on="1"/>
        <pt x="332" y="-142" on="0"/>
        <pt x="249" y="-199" on="0"/>
      </contour>
    </TTGlyph>
    <TTGlyph name="D" xMin="20" yMin="-10" xMax="634" yMax="690">
      <contour>
        <pt x="195" y="680" on="1"/>
        <pt x="370" y="690" on="1"/>
        <pt x="424" y="690" on="0"/>
        <pt x="514" y="650" on="0"/>
        <pt x="574" y="586" on="0"/>
        <pt x="595" y="544" on="1"/>
        <pt x="634" y="467" on="0"/>
        <pt x="634" y="383" on="1"/>
        <pt x="634" y="204" on="0"/>
        <pt x="424" y="-10" on="0"/>
        <pt x="245" y="-10" on="1"/>
        <pt x="213" y="-10" on="0"/>
        <pt x="135" y="0" on="0"/>
        <pt x="123" y="0" on="1"/>
        <pt x="102" y="0" on="1"/>
        <pt x="20" y="-7" on="1"/>
        <pt x="20" y="16" on="0"/>
        <pt x="30" y="36" on="1"/>
        <pt x="70" y="48" on="0"/>
        <pt x="98" y="72" on="1"/>
        <pt x="119" y="249" on="0"/>
        <pt x="142" y="626" on="1"/>
        <pt x="68" y="644" on="1"/>
        <pt x="68" y="667" on="0"/>
        <pt x="78" y="687" on="1"/>
        <pt x="158" y="680" on="0"/>
      </contour>
      <contour>
        <pt x="352" y="625" on="1"/>
        <pt x="217" y="625" on="1"/>
        <pt x="199" y="471" on="0"/>
        <pt x="192" y="328" on="0"/>
        <pt x="184" y="120" on="0"/>
        <pt x="181" y="60" on="1"/>
        <pt x="374" y="60" on="1"/>
        <pt x="451" y="90" on="0"/>
        <pt x="554" y="270" on="0"/>
        <pt x="554" y="459" on="0"/>
        <pt x="440" y="625" on="0"/>
      </contour>
    </TTGlyph>
    <TTGlyph name="E" xMin="12" yMin="-7" xMax="553" yMax="687">
      <contour>
        <pt x="537" y="680" on="1"/>
        <pt x="546" y="672" on="0"/>
        <pt x="553" y="655" on="1"/>
        <pt x="532" y="618" on="0"/>
        <pt x="518" y="565" on="1"/>
        <pt x="514" y="548" on="1"/>
        <pt x="494" y="539" on="0"/>
        <pt x="465" y="539" on="1"/>
        <pt x="474" y="579" on="0"/>
        <pt x="474" y="619" on="0"/>
        <pt x="459" y="625" on="1"/>
        <pt x="216" y="625" on="1"/>
        <pt x="197" y="461" on="0"/>
        <pt x="190" y="370" on="1"/>
        <pt x="414" y="370" on="1"/>
        <pt x="430" y="394" on="0"/>
        <pt x="438" y="424" on="1"/>
        <pt x="445" y="427" on="0"/>
        <pt x="458" y="427" on="1"/>
        <pt x="480" y="423" on="1"/>
        <pt x="459" y="357" on="0"/>
        <pt x="449" y="254" on="1"/>
        <pt x="441" y="250" on="0"/>
        <pt x="429" y="250" on="1"/>
        <pt x="412" y="253" on="1"/>
        <pt x="412" y="293" on="0"/>
        <pt x="404" y="320" on="1"/>
        <pt x="187" y="320" on="1"/>
        <pt x="178" y="198" on="0"/>
        <pt x="172" y="60" on="1"/>
        <pt x="431" y="60" on="1"/>
        <pt x="450" y="88" on="0"/>
        <pt x="459" y="124" on="1"/>
        <pt x="462" y="137" on="1"/>
        <pt x="493" y="131" on="0"/>
        <pt x="504" y="116" on="1"/>
        <pt x="508" y="110" on="1"/>
        <pt x="488" y="60" on="0"/>
        <pt x="482" y="0" on="1"/>
        <pt x="107" y="0" on="1"/>
        <pt x="12" y="-7" on="1"/>
        <pt x="12" y="16" on="0"/>
        <pt x="22" y="36" on="1"/>
        <pt x="58" y="47" on="0"/>
        <pt x="86" y="69" on="1"/>
        <pt x="112" y="292" on="0"/>
        <pt x="131" y="626" on="1"/>
        <pt x="56" y="644" on="1"/>
        <pt x="56" y="667" on="0"/>
        <pt x="66" y="687" on="1"/>
        <pt x="130" y="680" on="0"/>
        <pt x="170" y="680" on="1"/>
      </contour>
    </TTGlyph>
    <TTGlyph name="Eacute" xMin="12" yMin="-7" xMax="553" yMax="890">
      <contour>
        <pt x="537" y="680" on="1"/>
        <pt x="546" y="672" on="0"/>
        <pt x="553" y="655" on="1"/>
        <pt x="532" y="618" on="0"/>
        <pt x="518" y="565" on="1"/>
        <pt x="514" y="548" on="1"/>
        <pt x="494" y="539" on="0"/>
        <pt x="465" y="539" on="1"/>
        <pt x="474" y="579" on="0"/>
        <pt x="474" y="619" on="0"/>
        <pt x="459" y="625" on="1"/>
        <pt x="216" y="625" on="1"/>
        <pt x="197" y="461" on="0"/>
        <pt x="190" y="370" on="1"/>
        <pt x="414" y="370" on="1"/>
        <pt x="430" y="394" on="0"/>
        <pt x="438" y="424" on="1"/>
        <pt x="445" y="427" on="0"/>
        <pt x="458" y="427" on="1"/>
        <pt x="480" y="423" on="1"/>
        <pt x="459" y="357" on="0"/>
        <pt x="449" y="254" on="1"/>
        <pt x="441" y="250" on="0"/>
        <pt x="429" y="250" on="1"/>
        <pt x="412" y="253" on="1"/>
        <pt x="412" y="293" on="0"/>
        <pt x="404" y="320" on="1"/>
        <pt x="187" y="320" on="1"/>
        <pt x="178" y="198" on="0"/>
        <pt x="172" y="60" on="1"/>
        <pt x="431" y="60" on="1"/>
        <pt x="450" y="88" on="0"/>
        <pt x="459" y="124" on="1"/>
        <pt x="462" y="137" on="1"/>
        <pt x="493" y="131" on="0"/>
        <pt x="504" y="116" on="1"/>
        <pt x="508" y="110" on="1"/>
        <pt x="488" y="60" on="0"/>
        <pt x="482" y="0" on="1"/>
        <pt x="107" y="0" on="1"/>
        <pt x="12" y="-7" on="1"/>
        <pt x="12" y="16" on="0"/>
        <pt x="22" y="36" on="1"/>
        <pt x="58" y="47" on="0"/>
        <pt x="86" y="69" on="1"/>
        <pt x="112" y="292" on="0"/>
        <pt x="131" y="626" on="1"/>
        <pt x="56" y="644" on="1"/>
        <pt x="56" y="667" on="0"/>
        <pt x="66" y="687" on="1"/>
        <pt x="130" y="680" on="0"/>
        <pt x="170" y="680" on="1"/>
      </contour>
      <contour>
        <pt x="384" y="890" on="1"/>
        <pt x="417" y="884" on="0"/>
        <pt x="454" y="865" on="1"/>
        <pt x="454" y="855" on="1"/>
        <pt x="391" y="781" on="0"/>
        <pt x="323" y="735" on="1"/>
        <pt x="274" y="754" on="1"/>
        <pt x="274" y="761" on="1"/>
        <pt x="335" y="817" on="0"/>
      </contour>
    </TTGlyph>
    <TTGlyph name="Ecircumflex" xMin="12" yMin="-7" xMax="553" yMax="915">
      <contour>
        <pt x="537" y="680" on="1"/>
        <pt x="546" y="672" on="0"/>
        <pt x="553" y="655" on="1"/>
        <pt x="532" y="618" on="0"/>
        <pt x="518" y="565" on="1"/>
        <pt x="514" y="548" on="1"/>
        <pt x="494" y="539" on="0"/>
        <pt x="465" y="539" on="1"/>
        <pt x="474" y="579" on="0"/>
        <pt x="474" y="619" on="0"/>
        <pt x="459" y="625" on="1"/>
        <pt x="216" y="625" on="1"/>
        <pt x="197" y="461" on="0"/>
        <pt x="190" y="370" on="1"/>
        <pt x="414" y="370" on="1"/>
        <pt x="430" y="394" on="0"/>
        <pt x="438" y="424" on="1"/>
        <pt x="445" y="427" on="0"/>
        <pt x="458" y="427" on="1"/>
        <pt x="480" y="423" on="1"/>
        <pt x="459" y="357" on="0"/>
        <pt x="449" y="254" on="1"/>
        <pt x="441" y="250" on="0"/>
        <pt x="429" y="250" on="1"/>
        <pt x="412" y="253" on="1"/>
        <pt x="412" y="293" on="0"/>
        <pt x="404" y="320" on="1"/>
        <pt x="187" y="320" on="1"/>
        <pt x="178" y="198" on="0"/>
        <pt x="172" y="60" on="1"/>
        <pt x="431" y="60" on="1"/>
        <pt x="450" y="88" on="0"/>
        <pt x="459" y="124" on="1"/>
        <pt x="462" y="137" on="1"/>
        <pt x="493" y="131" on="0"/>
        <pt x="504" y="116" on="1"/>
        <pt x="508" y="110" on="1"/>
        <pt x="488" y="60" on="0"/>
        <pt x="482" y="0" on="1"/>
        <pt x="107" y="0" on="1"/>
        <pt x="12" y="-7" on="1"/>
        <pt x="12" y="16" on="0"/>
        <pt x="22" y="36" on="1"/>
        <pt x="58" y="47" on="0"/>
        <pt x="86" y="69" on="1"/>
        <pt x="112" y="292" on="0"/>
        <pt x="131" y="626" on="1"/>
        <pt x="56" y="644" on="1"/>
        <pt x="56" y="667" on="0"/>
        <pt x="66" y="687" on="1"/>
        <pt x="130" y="680" on="0"/>
        <pt x="170" y="680" on="1"/>
      </contour>
      <contour>
        <pt x="306" y="888" on="1"/>
        <pt x="359" y="915" on="1"/>
        <pt x="406" y="841" on="0"/>
        <pt x="469" y="777" on="1"/>
        <pt x="469" y="769" on="1"/>
        <pt x="417" y="745" on="1"/>
        <pt x="363" y="791" on="0"/>
        <pt x="330" y="842" on="1"/>
        <pt x="290" y="796" on="0"/>
        <pt x="230" y="758" on="1"/>
        <pt x="186" y="769" on="1"/>
        <pt x="186" y="777" on="1"/>
        <pt x="275" y="841" on="0"/>
      </contour>
    </TTGlyph>
    <TTGlyph name="Edieresis" xMin="12" yMin="-7" xMax="553" yMax="856">
      <contour>
        <pt x="537" y="680" on="1"/>
        <pt x="546" y="672" on="0"/>
        <pt x="553" y="655" on="1"/>
        <pt x="532" y="618" on="0"/>
        <pt x="518" y="565" on="1"/>
        <pt x="514" y="548" on="1"/>
        <pt x="494" y="539" on="0"/>
        <pt x="465" y="539" on="1"/>
        <pt x="474" y="579" on="0"/>
        <pt x="474" y="619" on="0"/>
        <pt x="459" y="625" on="1"/>
        <pt x="216" y="625" on="1"/>
        <pt x="197" y="461" on="0"/>
        <pt x="190" y="370" on="1"/>
        <pt x="414" y="370" on="1"/>
        <pt x="430" y="394" on="0"/>
        <pt x="438" y="424" on="1"/>
        <pt x="445" y="427" on="0"/>
        <pt x="458" y="427" on="1"/>
        <pt x="480" y="423" on="1"/>
        <pt x="459" y="357" on="0"/>
        <pt x="449" y="254" on="1"/>
        <pt x="441" y="250" on="0"/>
        <pt x="429" y="250" on="1"/>
        <pt x="412" y="253" on="1"/>
        <pt x="412" y="293" on="0"/>
        <pt x="404" y="320" on="1"/>
        <pt x="187" y="320" on="1"/>
        <pt x="178" y="198" on="0"/>
        <pt x="172" y="60" on="1"/>
        <pt x="431" y="60" on="1"/>
        <pt x="450" y="88" on="0"/>
        <pt x="459" y="124" on="1"/>
        <pt x="462" y="137" on="1"/>
        <pt x="493" y="131" on="0"/>
        <pt x="504" y="116" on="1"/>
        <pt x="508" y="110" on="1"/>
        <pt x="488" y="60" on="0"/>
        <pt x="482" y="0" on="1"/>
        <pt x="107" y="0" on="1"/>
        <pt x="12" y="-7" on="1"/>
        <pt x="12" y="16" on="0"/>
        <pt x="22" y="36" on="1"/>
        <pt x="58" y="47" on="0"/>
        <pt x="86" y="69" on="1"/>
        <pt x="112" y="292" on="0"/>
        <pt x="131" y="626" on="1"/>
        <pt x="56" y="644" on="1"/>
        <pt x="56" y="667" on="0"/>
        <pt x="66" y="687" on="1"/>
        <pt x="130" y="680" on="0"/>
        <pt x="170" y="680" on="1"/>
      </contour>
      <contour>
        <pt x="200" y="837" on="0"/>
        <pt x="238" y="856" on="0"/>
        <pt x="278" y="856" on="0"/>
        <pt x="301" y="838" on="0"/>
        <pt x="301" y="827" on="1"/>
        <pt x="296" y="791" on="1"/>
        <pt x="285" y="761" on="0"/>
        <pt x="232" y="761" on="1"/>
        <pt x="212" y="761" on="0"/>
        <pt x="191" y="779" on="0"/>
        <pt x="191" y="791" on="1"/>
        <pt x="195" y="822" on="1"/>
      </contour>
      <contour>
        <pt x="398" y="837" on="0"/>
        <pt x="436" y="856" on="0"/>
        <pt x="476" y="856" on="0"/>
        <pt x="499" y="838" on="0"/>
        <pt x="499" y="827" on="1"/>
        <pt x="494" y="791" on="1"/>
        <pt x="483" y="761" on="0"/>
        <pt x="430" y="761" on="1"/>
        <pt x="410" y="761" on="0"/>
        <pt x="389" y="779" on="0"/>
        <pt x="389" y="791" on="1"/>
        <pt x="393" y="822" on="1"/>
      </contour>
    </TTGlyph>
    <TTGlyph name="Egrave" xMin="12" yMin="-7" xMax="553" yMax="900">
      <contour>
        <pt x="537" y="680" on="1"/>
        <pt x="546" y="672" on="0"/>
        <pt x="553" y="655" on="1"/>
        <pt x="532" y="618" on="0"/>
        <pt x="518" y="565" on="1"/>
        <pt x="514" y="548" on="1"/>
        <pt x="494" y="539" on="0"/>
        <pt x="465" y="539" on="1"/>
        <pt x="474" y="579" on="0"/>
        <pt x="474" y="619" on="0"/>
        <pt x="459" y="625" on="1"/>
        <pt x="216" y="625" on="1"/>
        <pt x="197" y="461" on="0"/>
        <pt x="190" y="370" on="1"/>
        <pt x="414" y="370" on="1"/>
        <pt x="430" y="394" on="0"/>
        <pt x="438" y="424" on="1"/>
        <pt x="445" y="427" on="0"/>
        <pt x="458" y="427" on="1"/>
        <pt x="480" y="423" on="1"/>
        <pt x="459" y="357" on="0"/>
        <pt x="449" y="254" on="1"/>
        <pt x="441" y="250" on="0"/>
        <pt x="429" y="250" on="1"/>
        <pt x="412" y="253" on="1"/>
        <pt x="412" y="293" on="0"/>
        <pt x="404" y="320" on="1"/>
        <pt x="187" y="320" on="1"/>
        <pt x="178" y="198" on="0"/>
        <pt x="172" y="60" on="1"/>
        <pt x="431" y="60" on="1"/>
        <pt x="450" y="88" on="0"/>
        <pt x="459" y="124" on="1"/>
        <pt x="462" y="137" on="1"/>
        <pt x="493" y="131" on="0"/>
        <pt x="504" y="116" on="1"/>
        <pt x="508" y="110" on="1"/>
        <pt x="488" y="60" on="0"/>
        <pt x="482" y="0" on="1"/>
        <pt x="107" y="0" on="1"/>
        <pt x="12" y="-7" on="1"/>
        <pt x="12" y="16" on="0"/>
        <pt x="22" y="36" on="1"/>
        <pt x="58" y="47" on="0"/>
        <pt x="86" y="69" on="1"/>
        <pt x="112" y="292" on="0"/>
        <pt x="131" y="626" on="1"/>
        <pt x="56" y="644" on="1"/>
        <pt x="56" y="667" on="0"/>
        <pt x="66" y="687" on="1"/>
        <pt x="130" y="680" on="0"/>
        <pt x="170" y="680" on="1"/>
      </contour>
      <contour>
        <pt x="321" y="900" on="1"/>
        <pt x="368" y="830" on="0"/>
        <pt x="414" y="780" on="1"/>
        <pt x="432" y="761" on="1"/>
        <pt x="432" y="754" on="1"/>
        <pt x="383" y="735" on="1"/>
        <pt x="353" y="755" on="0"/>
        <pt x="293" y="809" on="0"/>
        <pt x="278" y="826" on="1"/>
        <pt x="264" y="843" on="1"/>
        <pt x="264" y="853" on="1"/>
        <pt x="291" y="888" on="0"/>
      </contour>
    </TTGlyph>
    <TTGlyph name="Eogonek" xMin="12" yMin="-245" xMax="553" yMax="687">
      <contour>
        <pt x="537" y="680" on="1"/>
        <pt x="546" y="672" on="0"/>
        <pt x="553" y="655" on="1"/>
        <pt x="532" y="618" on="0"/>
        <pt x="518" y="565" on="1"/>
        <pt x="514" y="548" on="1"/>
        <pt x="494" y="539" on="0"/>
        <pt x="465" y="539" on="1"/>
        <pt x="474" y="579" on="0"/>
        <pt x="474" y="619" on="0"/>
        <pt x="459" y="625" on="1"/>
        <pt x="216" y="625" on="1"/>
        <pt x="197" y="461" on="0"/>
        <pt x="190" y="370" on="1"/>
        <pt x="414" y="370" on="1"/>
        <pt x="430" y="394" on="0"/>
        <pt x="438" y="424" on="1"/>
        <pt x="445" y="427" on="0"/>
        <pt x="458" y="427" on="1"/>
        <pt x="480" y="423" on="1"/>
        <pt x="459" y="357" on="0"/>
        <pt x="449" y="254" on="1"/>
        <pt x="441" y="250" on="0"/>
        <pt x="429" y="250" on="1"/>
        <pt x="412" y="253" on="1"/>
        <pt x="412" y="293" on="0"/>
        <pt x="404" y="320" on="1"/>
        <pt x="187" y="320" on="1"/>
        <pt x="178" y="198" on="0"/>
        <pt x="172" y="60" on="1"/>
        <pt x="431" y="60" on="1"/>
        <pt x="450" y="88" on="0"/>
        <pt x="459" y="124" on="1"/>
        <pt x="462" y="137" on="1"/>
        <pt x="493" y="131" on="0"/>
        <pt x="504" y="116" on="1"/>
        <pt x="508" y="110" on="1"/>
        <pt x="488" y="60" on="0"/>
        <pt x="482" y="0" on="1"/>
        <pt x="458" y="0" on="1"/>
        <pt x="381" y="-59" on="0"/>
        <pt x="381" y="-159" on="0"/>
        <pt x="409" y="-170" on="1"/>
        <pt x="504" y="-170" on="1"/>
        <pt x="504" y="-193" on="0"/>
        <pt x="494" y="-213" on="1"/>
        <pt x="413" y="-245" on="0"/>
        <pt x="360" y="-245" on="0"/>
        <pt x="309" y="-201" on="0"/>
        <pt x="309" y="-152" on="1"/>
        <pt x="309" y="-74" on="0"/>
        <pt x="394" y="0" on="1"/>
        <pt x="107" y="0" on="1"/>
        <pt x="12" y="-7" on="1"/>
        <pt x="12" y="16" on="0"/>
        <pt x="22" y="36" on="1"/>
        <pt x="58" y="47" on="0"/>
        <pt x="86" y="69" on="1"/>
        <pt x="112" y="292" on="0"/>
        <pt x="131" y="626" on="1"/>
        <pt x="56" y="644" on="1"/>
        <pt x="56" y="667" on="0"/>
        <pt x="66" y="687" on="1"/>
        <pt x="130" y="680" on="0"/>
        <pt x="170" y="680" on="1"/>
      </contour>
    </TTGlyph>
    <TTGlyph name="Eth" xMin="20" yMin="-10" xMax="634" yMax="690">
      <contour>
        <pt x="195" y="680" on="1"/>
        <pt x="370" y="690" on="1"/>
        <pt x="424" y="690" on="0"/>
        <pt x="514" y="650" on="0"/>
        <pt x="574" y="586" on="0"/>
        <pt x="595" y="544" on="1"/>
        <pt x="634" y="467" on="0"/>
        <pt x="634" y="383" on="1"/>
        <pt x="634" y="204" on="0"/>
        <pt x="424" y="-10" on="0"/>
        <pt x="245" y="-10" on="1"/>
        <pt x="214" y="-10" on="0"/>
        <pt x="137" y="0" on="0"/>
        <pt x="123" y="0" on="1"/>
        <pt x="20" y="-7" on="1"/>
        <pt x="20" y="16" on="0"/>
        <pt x="30" y="36" on="1"/>
        <pt x="70" y="48" on="0"/>
        <pt x="98" y="72" on="1"/>
        <pt x="112" y="200" on="0"/>
        <pt x="121" y="302" on="1"/>
        <pt x="39" y="302" on="1"/>
        <pt x="34" y="313" on="0"/>
        <pt x="34" y="325" on="1"/>
        <pt x="39" y="359" on="1"/>
        <pt x="125" y="359" on="1"/>
        <pt x="125" y="360" on="0"/>
        <pt x="142" y="626" on="1"/>
        <pt x="68" y="644" on="1"/>
        <pt x="68" y="667" on="0"/>
        <pt x="78" y="687" on="1"/>
        <pt x="158" y="680" on="0"/>
      </contour>
      <contour>
        <pt x="352" y="625" on="1"/>
        <pt x="217" y="625" on="1"/>
        <pt x="200" y="483" on="0"/>
        <pt x="194" y="359" on="1"/>
        <pt x="233" y="360" on="0"/>
        <pt x="329" y="369" on="1"/>
        <pt x="345" y="355" on="1"/>
        <pt x="332" y="302" on="1"/>
        <pt x="191" y="302" on="1"/>
        <pt x="181" y="60" on="1"/>
        <pt x="374" y="60" on="1"/>
        <pt x="451" y="90" on="0"/>
        <pt x="554" y="270" on="0"/>
        <pt x="554" y="459" on="0"/>
        <pt x="440" y="625" on="0"/>
      </contour>
    </TTGlyph>
    <TTGlyph name="Euro" xMin="35" yMin="0" xMax="484" yMax="617">
      <contour>
        <pt x="484" y="585" on="1"/>
        <pt x="484" y="568" on="0"/>
        <pt x="464" y="550" on="1"/>
        <pt x="310" y="550" on="1"/>
        <pt x="228" y="506" on="0"/>
        <pt x="190" y="413" on="1"/>
        <pt x="210" y="413" on="1"/>
        <pt x="292" y="413" on="0"/>
        <pt x="399" y="422" on="1"/>
        <pt x="414" y="409" on="1"/>
        <pt x="401" y="359" on="1"/>
        <pt x="173" y="359" on="1"/>
        <pt x="164" y="319" on="0"/>
        <pt x="162" y="266" on="1"/>
        <pt x="200" y="266" on="1"/>
        <pt x="282" y="266" on="0"/>
        <pt x="389" y="275" on="1"/>
        <pt x="404" y="262" on="1"/>
        <pt x="392" y="212" on="1"/>
        <pt x="166" y="212" on="1"/>
        <pt x="176" y="162" on="0"/>
        <pt x="234" y="86" on="0"/>
        <pt x="270" y="76" on="1"/>
        <pt x="440" y="76" on="1"/>
        <pt x="440" y="53" on="0"/>
        <pt x="431" y="35" on="1"/>
        <pt x="347" y="0" on="0"/>
        <pt x="191" y="0" on="0"/>
        <pt x="92" y="126" on="0"/>
        <pt x="87" y="212" on="1"/>
        <pt x="40" y="212" on="1"/>
        <pt x="35" y="222" on="0"/>
        <pt x="35" y="234" on="1"/>
        <pt x="40" y="266" on="1"/>
        <pt x="88" y="266" on="1"/>
        <pt x="93" y="317" on="0"/>
        <pt x="104" y="359" on="1"/>
        <pt x="49" y="359" on="1"/>
        <pt x="44" y="369" on="0"/>
        <pt x="44" y="381" on="1"/>
        <pt x="49" y="413" on="1"/>
        <pt x="122" y="413" on="1"/>
        <pt x="160" y="506" on="0"/>
        <pt x="297" y="617" on="0"/>
        <pt x="376" y="617" on="1"/>
        <pt x="407" y="617" on="0"/>
        <pt x="461" y="601" on="0"/>
        <pt x="472" y="593" on="1"/>
      </contour>
    </TTGlyph>
    <TTGlyph name="F" xMin="27" yMin="-7" xMax="572" yMax="687">
      <contour>
        <pt x="75" y="644" on="1"/>
        <pt x="75" y="667" on="0"/>
        <pt x="85" y="687" on="1"/>
        <pt x="165" y="680" on="0"/>
        <pt x="202" y="680" on="1"/>
        <pt x="556" y="680" on="1"/>
        <pt x="565" y="672" on="0"/>
        <pt x="572" y="655" on="1"/>
        <pt x="551" y="618" on="0"/>
        <pt x="538" y="565" on="1"/>
        <pt x="533" y="548" on="1"/>
        <pt x="513" y="539" on="0"/>
        <pt x="484" y="539" on="1"/>
        <pt x="493" y="579" on="0"/>
        <pt x="493" y="619" on="0"/>
        <pt x="478" y="625" on="1"/>
        <pt x="235" y="625" on="1"/>
        <pt x="216" y="461" on="0"/>
        <pt x="209" y="370" on="1"/>
        <pt x="433" y="370" on="1"/>
        <pt x="449" y="394" on="0"/>
        <pt x="457" y="424" on="1"/>
        <pt x="464" y="427" on="0"/>
        <pt x="477" y="427" on="1"/>
        <pt x="499" y="423" on="1"/>
        <pt x="478" y="357" on="0"/>
        <pt x="468" y="254" on="1"/>
        <pt x="460" y="250" on="0"/>
        <pt x="448" y="250" on="1"/>
        <pt x="431" y="253" on="1"/>
        <pt x="431" y="293" on="0"/>
        <pt x="423" y="320" on="1"/>
        <pt x="206" y="320" on="1"/>
        <pt x="198" y="206" on="0"/>
        <pt x="190" y="51" on="1"/>
        <pt x="272" y="36" on="1"/>
        <pt x="272" y="13" on="0"/>
        <pt x="262" y="-7" on="1"/>
        <pt x="179" y="0" on="0"/>
        <pt x="145" y="0" on="1"/>
        <pt x="97" y="0" on="0"/>
        <pt x="42" y="-6" on="1"/>
        <pt x="27" y="-7" on="1"/>
        <pt x="27" y="16" on="0"/>
        <pt x="37" y="36" on="1"/>
        <pt x="77" y="48" on="0"/>
        <pt x="105" y="72" on="1"/>
        <pt x="131" y="292" on="0"/>
        <pt x="150" y="626" on="1"/>
      </contour>
    </TTGlyph>
    <TTGlyph name="G" xMin="56" yMin="-20" xMax="634" yMax="696">
      <contour>
        <pt x="548" y="37" on="1"/>
        <pt x="389" y="-20" on="0"/>
        <pt x="172" y="-20" on="0"/>
        <pt x="56" y="125" on="0"/>
        <pt x="56" y="241" on="1"/>
        <pt x="56" y="380" on="0"/>
        <pt x="119" y="496" on="1"/>
        <pt x="187" y="621" on="0"/>
        <pt x="306" y="670" on="1"/>
        <pt x="371" y="696" on="0"/>
        <pt x="498" y="696" on="0"/>
        <pt x="606" y="657" on="0"/>
        <pt x="617" y="635" on="1"/>
        <pt x="596" y="597" on="0"/>
        <pt x="582" y="536" on="1"/>
        <pt x="578" y="516" on="1"/>
        <pt x="553" y="507" on="0"/>
        <pt x="524" y="507" on="1"/>
        <pt x="532" y="529" on="0"/>
        <pt x="532" y="558" on="1"/>
        <pt x="532" y="607" on="0"/>
        <pt x="506" y="625" on="1"/>
        <pt x="316" y="625" on="1"/>
        <pt x="232" y="580" on="0"/>
        <pt x="140" y="395" on="0"/>
        <pt x="140" y="208" on="0"/>
        <pt x="214" y="77" on="0"/>
        <pt x="282" y="60" on="1"/>
        <pt x="472" y="60" on="1"/>
        <pt x="491" y="144" on="0"/>
        <pt x="493" y="227" on="1"/>
        <pt x="417" y="244" on="1"/>
        <pt x="417" y="267" on="0"/>
        <pt x="427" y="287" on="1"/>
        <pt x="490" y="280" on="0"/>
        <pt x="529" y="280" on="1"/>
        <pt x="634" y="287" on="1"/>
        <pt x="634" y="264" on="0"/>
        <pt x="624" y="244" on="1"/>
        <pt x="593" y="238" on="0"/>
        <pt x="566" y="224" on="1"/>
        <pt x="554" y="157" on="0"/>
      </contour>
    </TTGlyph>
    <TTGlyph name="H" xMin="43" yMin="-7" xMax="731" yMax="687">
      <contour>
        <pt x="288" y="36" on="1"/>
        <pt x="288" y="13" on="0"/>
        <pt x="278" y="-7" on="1"/>
        <pt x="195" y="0" on="0"/>
        <pt x="159" y="0" on="1"/>
        <pt x="104" y="0" on="0"/>
        <pt x="56" y="-6" on="1"/>
        <pt x="43" y="-7" on="1"/>
        <pt x="43" y="16" on="0"/>
        <pt x="53" y="36" on="1"/>
        <pt x="93" y="48" on="0"/>
        <pt x="121" y="72" on="1"/>
        <pt x="147" y="295" on="0"/>
        <pt x="166" y="630" on="1"/>
        <pt x="88" y="644" on="1"/>
        <pt x="88" y="667" on="0"/>
        <pt x="98" y="687" on="1"/>
        <pt x="181" y="680" on="0"/>
        <pt x="218" y="680" on="1"/>
        <pt x="333" y="687" on="1"/>
        <pt x="333" y="664" on="0"/>
        <pt x="323" y="644" on="1"/>
        <pt x="279" y="636" on="0"/>
        <pt x="250" y="615" on="1"/>
        <pt x="234" y="484" on="0"/>
        <pt x="225" y="370" on="1"/>
        <pt x="548" y="370" on="1"/>
        <pt x="558" y="546" on="0"/>
        <pt x="564" y="630" on="1"/>
        <pt x="486" y="644" on="1"/>
        <pt x="486" y="667" on="0"/>
        <pt x="496" y="687" on="1"/>
        <pt x="589" y="680" on="0"/>
        <pt x="626" y="680" on="1"/>
        <pt x="731" y="687" on="1"/>
        <pt x="731" y="664" on="0"/>
        <pt x="721" y="644" on="1"/>
        <pt x="677" y="636" on="0"/>
        <pt x="648" y="615" on="1"/>
        <pt x="621" y="380" on="0"/>
        <pt x="604" y="51" on="1"/>
        <pt x="686" y="36" on="1"/>
        <pt x="686" y="13" on="0"/>
        <pt x="676" y="-7" on="1"/>
        <pt x="593" y="0" on="0"/>
        <pt x="557" y="0" on="1"/>
        <pt x="502" y="0" on="0"/>
        <pt x="454" y="-6" on="1"/>
        <pt x="441" y="-7" on="1"/>
        <pt x="441" y="16" on="0"/>
        <pt x="451" y="36" on="1"/>
        <pt x="491" y="48" on="0"/>
        <pt x="519" y="72" on="1"/>
        <pt x="537" y="230" on="0"/>
        <pt x="544" y="321" on="1"/>
        <pt x="222" y="321" on="1"/>
        <pt x="214" y="206" on="0"/>
        <pt x="206" y="51" on="1"/>
      </contour>
    </TTGlyph>
    <TTGlyph name="I" xMin="27" yMin="-7" xMax="317" yMax="687">
      <contour>
        <pt x="272" y="36" on="1"/>
        <pt x="272" y="13" on="0"/>
        <pt x="262" y="-7" on="1"/>
        <pt x="164" y="0" on="0"/>
        <pt x="134" y="0" on="1"/>
        <pt x="90" y="0" on="0"/>
        <pt x="40" y="-6" on="1"/>
        <pt x="27" y="-7" on="1"/>
        <pt x="27" y="16" on="0"/>
        <pt x="37" y="36" on="1"/>
        <pt x="75" y="47" on="0"/>
        <pt x="103" y="70" on="1"/>
        <pt x="129" y="295" on="0"/>
        <pt x="148" y="631" on="1"/>
        <pt x="72" y="644" on="1"/>
        <pt x="72" y="667" on="0"/>
        <pt x="82" y="687" on="1"/>
        <pt x="170" y="680" on="0"/>
        <pt x="207" y="680" on="1"/>
        <pt x="317" y="687" on="1"/>
        <pt x="317" y="664" on="0"/>
        <pt x="307" y="644" on="1"/>
        <pt x="260" y="636" on="0"/>
        <pt x="232" y="613" on="1"/>
        <pt x="206" y="396" on="0"/>
        <pt x="188" y="51" on="1"/>
      </contour>
    </TTGlyph>
    <TTGlyph name="IJ" xMin="27" yMin="-260" xMax="683" yMax="687">
      <contour>
        <pt x="272" y="36" on="1"/>
        <pt x="272" y="13" on="0"/>
        <pt x="262" y="-7" on="1"/>
        <pt x="164" y="0" on="0"/>
        <pt x="134" y="0" on="1"/>
        <pt x="90" y="0" on="0"/>
        <pt x="40" y="-6" on="1"/>
        <pt x="27" y="-7" on="1"/>
        <pt x="27" y="16" on="0"/>
        <pt x="37" y="36" on="1"/>
        <pt x="75" y="47" on="0"/>
        <pt x="103" y="70" on="1"/>
        <pt x="129" y="295" on="0"/>
        <pt x="148" y="631" on="1"/>
        <pt x="72" y="644" on="1"/>
        <pt x="72" y="667" on="0"/>
        <pt x="82" y="687" on="1"/>
        <pt x="170" y="680" on="0"/>
        <pt x="207" y="680" on="1"/>
        <pt x="317" y="687" on="1"/>
        <pt x="317" y="664" on="0"/>
        <pt x="307" y="644" on="1"/>
        <pt x="260" y="636" on="0"/>
        <pt x="232" y="613" on="1"/>
        <pt x="206" y="396" on="0"/>
        <pt x="188" y="51" on="1"/>
      </contour>
      <contour>
        <pt x="438" y="644" on="1"/>
        <pt x="438" y="667" on="0"/>
        <pt x="448" y="687" on="1"/>
        <pt x="541" y="680" on="0"/>
        <pt x="578" y="680" on="1"/>
        <pt x="683" y="687" on="1"/>
        <pt x="683" y="664" on="0"/>
        <pt x="673" y="644" on="1"/>
        <pt x="624" y="635" on="0"/>
        <pt x="595" y="611" on="1"/>
        <pt x="580" y="506" on="0"/>
        <pt x="563" y="186" on="0"/>
        <pt x="540" y="11" on="0"/>
        <pt x="486" y="-122" on="0"/>
        <pt x="454" y="-163" on="1"/>
        <pt x="392" y="-240" on="0"/>
        <pt x="355" y="-260" on="1"/>
        <pt x="346" y="-260" on="1"/>
        <pt x="334" y="-245" on="0"/>
        <pt x="334" y="-217" on="1"/>
        <pt x="384" y="-170" on="0"/>
        <pt x="462" y="-10" on="0"/>
        <pt x="485" y="161" on="0"/>
        <pt x="497" y="322" on="0"/>
        <pt x="510" y="587" on="0"/>
        <pt x="513" y="631" on="1"/>
      </contour>
    </TTGlyph>
    <TTGlyph name="Iacute" xMin="27" yMin="-7" xMax="317" yMax="890">
      <contour>
        <pt x="272" y="36" on="1"/>
        <pt x="272" y="13" on="0"/>
        <pt x="262" y="-7" on="1"/>
        <pt x="164" y="0" on="0"/>
        <pt x="134" y="0" on="1"/>
        <pt x="90" y="0" on="0"/>
        <pt x="40" y="-6" on="1"/>
        <pt x="27" y="-7" on="1"/>
        <pt x="27" y="16" on="0"/>
        <pt x="37" y="36" on="1"/>
        <pt x="75" y="47" on="0"/>
        <pt x="103" y="70" on="1"/>
        <pt x="129" y="295" on="0"/>
        <pt x="148" y="631" on="1"/>
        <pt x="72" y="644" on="1"/>
        <pt x="72" y="667" on="0"/>
        <pt x="82" y="687" on="1"/>
        <pt x="170" y="680" on="0"/>
        <pt x="207" y="680" on="1"/>
        <pt x="317" y="687" on="1"/>
        <pt x="317" y="664" on="0"/>
        <pt x="307" y="644" on="1"/>
        <pt x="260" y="636" on="0"/>
        <pt x="232" y="613" on="1"/>
        <pt x="206" y="396" on="0"/>
        <pt x="188" y="51" on="1"/>
      </contour>
      <contour>
        <pt x="239" y="890" on="1"/>
        <pt x="272" y="884" on="0"/>
        <pt x="309" y="865" on="1"/>
        <pt x="309" y="855" on="1"/>
        <pt x="246" y="781" on="0"/>
        <pt x="178" y="735" on="1"/>
        <pt x="129" y="754" on="1"/>
        <pt x="129" y="761" on="1"/>
        <pt x="190" y="817" on="0"/>
      </contour>
    </TTGlyph>
    <TTGlyph name="Icircumflex" xMin="27" yMin="-7" xMax="345" yMax="905">
      <contour>
        <pt x="272" y="36" on="1"/>
        <pt x="272" y="13" on="0"/>
        <pt x="262" y="-7" on="1"/>
        <pt x="164" y="0" on="0"/>
        <pt x="134" y="0" on="1"/>
        <pt x="90" y="0" on="0"/>
        <pt x="40" y="-6" on="1"/>
        <pt x="27" y="-7" on="1"/>
        <pt x="27" y="16" on="0"/>
        <pt x="37" y="36" on="1"/>
        <pt x="75" y="47" on="0"/>
        <pt x="103" y="70" on="1"/>
        <pt x="129" y="295" on="0"/>
        <pt x="148" y="631" on="1"/>
        <pt x="72" y="644" on="1"/>
        <pt x="72" y="667" on="0"/>
        <pt x="82" y="687" on="1"/>
        <pt x="170" y="680" on="0"/>
        <pt x="207" y="680" on="1"/>
        <pt x="317" y="687" on="1"/>
        <pt x="317" y="664" on="0"/>
        <pt x="307" y="644" on="1"/>
        <pt x="260" y="636" on="0"/>
        <pt x="232" y="613" on="1"/>
        <pt x="206" y="396" on="0"/>
        <pt x="188" y="51" on="1"/>
      </contour>
      <contour>
        <pt x="182" y="878" on="1"/>
        <pt x="235" y="905" on="1"/>
        <pt x="282" y="831" on="0"/>
        <pt x="345" y="767" on="1"/>
        <pt x="345" y="759" on="1"/>
        <pt x="293" y="735" on="1"/>
        <pt x="239" y="781" on="0"/>
        <pt x="206" y="832" on="1"/>
        <pt x="166" y="786" on="0"/>
        <pt x="106" y="748" on="1"/>
        <pt x="62" y="759" on="1"/>
        <pt x="62" y="767" on="1"/>
        <pt x="151" y="831" on="0"/>
      </contour>
    </TTGlyph>
    <TTGlyph name="Idieresis" xMin="27" yMin="-7" xMax="361" yMax="857">
      <contour>
        <pt x="272" y="36" on="1"/>
        <pt x="272" y="13" on="0"/>
        <pt x="262" y="-7" on="1"/>
        <pt x="164" y="0" on="0"/>
        <pt x="134" y="0" on="1"/>
        <pt x="90" y="0" on="0"/>
        <pt x="40" y="-6" on="1"/>
        <pt x="27" y="-7" on="1"/>
        <pt x="27" y="16" on="0"/>
        <pt x="37" y="36" on="1"/>
        <pt x="75" y="47" on="0"/>
        <pt x="103" y="70" on="1"/>
        <pt x="129" y="295" on="0"/>
        <pt x="148" y="631" on="1"/>
        <pt x="72" y="644" on="1"/>
        <pt x="72" y="667" on="0"/>
        <pt x="82" y="687" on="1"/>
        <pt x="170" y="680" on="0"/>
        <pt x="207" y="680" on="1"/>
        <pt x="317" y="687" on="1"/>
        <pt x="317" y="664" on="0"/>
        <pt x="307" y="644" on="1"/>
        <pt x="260" y="636" on="0"/>
        <pt x="232" y="613" on="1"/>
        <pt x="206" y="396" on="0"/>
        <pt x="188" y="51" on="1"/>
      </contour>
      <contour>
        <pt x="62" y="838" on="0"/>
        <pt x="100" y="857" on="0"/>
        <pt x="140" y="857" on="0"/>
        <pt x="163" y="839" on="0"/>
        <pt x="163" y="828" on="1"/>
        <pt x="158" y="792" on="1"/>
        <pt x="147" y="762" on="0"/>
        <pt x="94" y="762" on="1"/>
        <pt x="74" y="762" on="0"/>
        <pt x="53" y="780" on="0"/>
        <pt x="53" y="792" on="1"/>
        <pt x="57" y="823" on="1"/>
      </contour>
      <contour>
        <pt x="260" y="838" on="0"/>
        <pt x="298" y="857" on="0"/>
        <pt x="338" y="857" on="0"/>
        <pt x="361" y="839" on="0"/>
        <pt x="361" y="828" on="1"/>
        <pt x="356" y="792" on="1"/>
        <pt x="345" y="762" on="0"/>
        <pt x="292" y="762" on="1"/>
        <pt x="272" y="762" on="0"/>
        <pt x="251" y="780" on="0"/>
        <pt x="251" y="792" on="1"/>
        <pt x="255" y="823" on="1"/>
      </contour>
    </TTGlyph>
    <TTGlyph name="Igrave" xMin="27" yMin="-7" xMax="317" yMax="900">
      <contour>
        <pt x="272" y="36" on="1"/>
        <pt x="272" y="13" on="0"/>
        <pt x="262" y="-7" on="1"/>
        <pt x="164" y="0" on="0"/>
        <pt x="134" y="0" on="1"/>
        <pt x="90" y="0" on="0"/>
        <pt x="40" y="-6" on="1"/>
        <pt x="27" y="-7" on="1"/>
        <pt x="27" y="16" on="0"/>
        <pt x="37" y="36" on="1"/>
        <pt x="75" y="47" on="0"/>
        <pt x="103" y="70" on="1"/>
        <pt x="129" y="295" on="0"/>
        <pt x="148" y="631" on="1"/>
        <pt x="72" y="644" on="1"/>
        <pt x="72" y="667" on="0"/>
        <pt x="82" y="687" on="1"/>
        <pt x="170" y="680" on="0"/>
        <pt x="207" y="680" on="1"/>
        <pt x="317" y="687" on="1"/>
        <pt x="317" y="664" on="0"/>
        <pt x="307" y="644" on="1"/>
        <pt x="260" y="636" on="0"/>
        <pt x="232" y="613" on="1"/>
        <pt x="206" y="396" on="0"/>
        <pt x="188" y="51" on="1"/>
      </contour>
      <contour>
        <pt x="190" y="900" on="1"/>
        <pt x="237" y="830" on="0"/>
        <pt x="284" y="780" on="1"/>
        <pt x="301" y="761" on="1"/>
        <pt x="301" y="754" on="1"/>
        <pt x="252" y="735" on="1"/>
        <pt x="222" y="755" on="0"/>
        <pt x="162" y="809" on="0"/>
        <pt x="148" y="826" on="1"/>
        <pt x="133" y="843" on="1"/>
        <pt x="133" y="853" on="1"/>
        <pt x="160" y="888" on="0"/>
      </contour>
    </TTGlyph>
    <TTGlyph name="Itilde" xMin="27" yMin="-7" xMax="353" yMax="864">
      <contour>
        <pt x="272" y="36" on="1"/>
        <pt x="272" y="13" on="0"/>
        <pt x="262" y="-7" on="1"/>
        <pt x="164" y="0" on="0"/>
        <pt x="134" y="0" on="1"/>
        <pt x="90" y="0" on="0"/>
        <pt x="40" y="-6" on="1"/>
        <pt x="27" y="-7" on="1"/>
        <pt x="27" y="16" on="0"/>
        <pt x="37" y="36" on="1"/>
        <pt x="75" y="47" on="0"/>
        <pt x="103" y="70" on="1"/>
        <pt x="129" y="295" on="0"/>
        <pt x="148" y="631" on="1"/>
        <pt x="72" y="644" on="1"/>
        <pt x="72" y="667" on="0"/>
        <pt x="82" y="687" on="1"/>
        <pt x="170" y="680" on="0"/>
        <pt x="207" y="680" on="1"/>
        <pt x="317" y="687" on="1"/>
        <pt x="317" y="664" on="0"/>
        <pt x="307" y="644" on="1"/>
        <pt x="260" y="636" on="0"/>
        <pt x="232" y="613" on="1"/>
        <pt x="206" y="396" on="0"/>
        <pt x="188" y="51" on="1"/>
      </contour>
      <contour>
        <pt x="336" y="761" on="1"/>
        <pt x="315" y="754" on="0"/>
        <pt x="258" y="754" on="0"/>
        <pt x="153" y="792" on="0"/>
        <pt x="143" y="792" on="1"/>
        <pt x="120" y="792" on="1"/>
        <pt x="109" y="780" on="0"/>
        <pt x="101" y="761" on="1"/>
        <pt x="64" y="761" on="1"/>
        <pt x="57" y="769" on="1"/>
        <pt x="74" y="857" on="1"/>
        <pt x="95" y="864" on="0"/>
        <pt x="149" y="864" on="0"/>
        <pt x="256" y="826" on="0"/>
        <pt x="267" y="826" on="1"/>
        <pt x="290" y="826" on="1"/>
        <pt x="301" y="838" on="0"/>
        <pt x="309" y="857" on="1"/>
        <pt x="346" y="857" on="1"/>
        <pt x="353" y="849" on="1"/>
      </contour>
    </TTGlyph>
    <TTGlyph name="J" xMin="0" yMin="-260" xMax="349" yMax="687">
      <contour>
        <pt x="104" y="644" on="1"/>
        <pt x="104" y="667" on="0"/>
        <pt x="114" y="687" on="1"/>
        <pt x="207" y="680" on="0"/>
        <pt x="244" y="680" on="1"/>
        <pt x="349" y="687" on="1"/>
        <pt x="349" y="664" on="0"/>
        <pt x="339" y="644" on="1"/>
        <pt x="290" y="635" on="0"/>
        <pt x="261" y="611" on="1"/>
        <pt x="246" y="506" on="0"/>
        <pt x="229" y="186" on="0"/>
        <pt x="206" y="11" on="0"/>
        <pt x="152" y="-122" on="0"/>
        <pt x="120" y="-163" on="1"/>
        <pt x="58" y="-240" on="0"/>
        <pt x="21" y="-260" on="1"/>
        <pt x="12" y="-260" on="1"/>
        <pt x="0" y="-245" on="0"/>
        <pt x="0" y="-217" on="1"/>
        <pt x="50" y="-170" on="0"/>
        <pt x="128" y="-10" on="0"/>
        <pt x="151" y="161" on="0"/>
        <pt x="163" y="322" on="0"/>
        <pt x="176" y="587" on="0"/>
        <pt x="179" y="631" on="1"/>
      </contour>
    </TTGlyph>
    <TTGlyph name="Jcircumflex" xMin="0" yMin="-260" xMax="375" yMax="905">
      <contour>
        <pt x="104" y="644" on="1"/>
        <pt x="104" y="667" on="0"/>
        <pt x="114" y="687" on="1"/>
        <pt x="207" y="680" on="0"/>
        <pt x="244" y="680" on="1"/>
        <pt x="349" y="687" on="1"/>
        <pt x="349" y="664" on="0"/>
        <pt x="339" y="644" on="1"/>
        <pt x="290" y="635" on="0"/>
        <pt x="261" y="611" on="1"/>
        <pt x="246" y="506" on="0"/>
        <pt x="229" y="186" on="0"/>
        <pt x="206" y="11" on="0"/>
        <pt x="152" y="-122" on="0"/>
        <pt x="120" y="-163" on="1"/>
        <pt x="58" y="-240" on="0"/>
        <pt x="21" y="-260" on="1"/>
        <pt x="12" y="-260" on="1"/>
        <pt x="0" y="-245" on="0"/>
        <pt x="0" y="-217" on="1"/>
        <pt x="50" y="-170" on="0"/>
        <pt x="128" y="-10" on="0"/>
        <pt x="151" y="161" on="0"/>
        <pt x="163" y="322" on="0"/>
        <pt x="176" y="587" on="0"/>
        <pt x="179" y="631" on="1"/>
      </contour>
      <contour>
        <pt x="212" y="878" on="1"/>
        <pt x="265" y="905" on="1"/>
        <pt x="312" y="831" on="0"/>
        <pt x="375" y="767" on="1"/>
        <pt x="375" y="759" on="1"/>
        <pt x="323" y="735" on="1"/>
        <pt x="269" y="781" on="0"/>
        <pt x="236" y="832" on="1"/>
        <pt x="196" y="786" on="0"/>
        <pt x="136" y="748" on="1"/>
        <pt x="92" y="759" on="1"/>
        <pt x="92" y="767" on="1"/>
        <pt x="181" y="831" on="0"/>
      </contour>
    </TTGlyph>
    <TTGlyph name="K" xMin="19" yMin="-12" xMax="618" yMax="687">
      <contour>
        <pt x="64" y="644" on="1"/>
        <pt x="64" y="667" on="0"/>
        <pt x="74" y="687" on="1"/>
        <pt x="149" y="680" on="0"/>
        <pt x="184" y="680" on="1"/>
        <pt x="239" y="680" on="0"/>
        <pt x="294" y="686" on="1"/>
        <pt x="309" y="687" on="1"/>
        <pt x="309" y="664" on="0"/>
        <pt x="299" y="644" on="1"/>
        <pt x="255" y="636" on="0"/>
        <pt x="226" y="615" on="1"/>
        <pt x="207" y="444" on="0"/>
        <pt x="201" y="369" on="1"/>
        <pt x="232" y="376" on="0"/>
        <pt x="281" y="390" on="1"/>
        <pt x="351" y="460" on="0"/>
        <pt x="418" y="536" on="0"/>
        <pt x="480" y="618" on="1"/>
        <pt x="400" y="638" on="1"/>
        <pt x="400" y="661" on="0"/>
        <pt x="412" y="681" on="1"/>
        <pt x="484" y="674" on="0"/>
        <pt x="521" y="674" on="1"/>
        <pt x="618" y="681" on="1"/>
        <pt x="618" y="658" on="0"/>
        <pt x="608" y="638" on="1"/>
        <pt x="569" y="634" on="0"/>
        <pt x="536" y="601" on="1"/>
        <pt x="423" y="488" on="0"/>
        <pt x="328" y="368" on="1"/>
        <pt x="415" y="241" on="0"/>
        <pt x="531" y="46" on="1"/>
        <pt x="614" y="31" on="1"/>
        <pt x="614" y="8" on="0"/>
        <pt x="604" y="-12" on="1"/>
        <pt x="514" y="-5" on="0"/>
        <pt x="449" y="-5" on="1"/>
        <pt x="353" y="177" on="0"/>
        <pt x="246" y="330" on="1"/>
        <pt x="198" y="321" on="1"/>
        <pt x="190" y="206" on="0"/>
        <pt x="182" y="51" on="1"/>
        <pt x="264" y="36" on="1"/>
        <pt x="264" y="13" on="0"/>
        <pt x="254" y="-7" on="1"/>
        <pt x="151" y="0" on="0"/>
        <pt x="114" y="0" on="1"/>
        <pt x="19" y="-7" on="1"/>
        <pt x="19" y="16" on="0"/>
        <pt x="29" y="36" on="1"/>
        <pt x="69" y="48" on="0"/>
        <pt x="97" y="72" on="1"/>
        <pt x="123" y="295" on="0"/>
        <pt x="142" y="630" on="1"/>
      </contour>
    </TTGlyph>
    <TTGlyph name="L" xMin="26" yMin="-7" xMax="543" yMax="687">
      <contour>
        <pt x="76" y="644" on="1"/>
        <pt x="76" y="667" on="0"/>
        <pt x="86" y="687" on="1"/>
        <pt x="179" y="680" on="0"/>
        <pt x="210" y="680" on="1"/>
        <pt x="253" y="680" on="0"/>
        <pt x="306" y="686" on="1"/>
        <pt x="321" y="687" on="1"/>
        <pt x="321" y="664" on="0"/>
        <pt x="311" y="644" on="1"/>
        <pt x="261" y="635" on="0"/>
        <pt x="233" y="611" on="1"/>
        <pt x="206" y="381" on="0"/>
        <pt x="190" y="60" on="1"/>
        <pt x="465" y="60" on="1"/>
        <pt x="484" y="88" on="0"/>
        <pt x="492" y="132" on="1"/>
        <pt x="494" y="147" on="1"/>
        <pt x="524" y="141" on="0"/>
        <pt x="543" y="120" on="1"/>
        <pt x="522" y="68" on="0"/>
        <pt x="518" y="0" on="1"/>
        <pt x="121" y="0" on="1"/>
        <pt x="26" y="-7" on="1"/>
        <pt x="26" y="16" on="0"/>
        <pt x="36" y="36" on="1"/>
        <pt x="76" y="48" on="0"/>
        <pt x="104" y="72" on="1"/>
        <pt x="129" y="289" on="0"/>
        <pt x="150" y="631" on="1"/>
      </contour>
    </TTGlyph>
    <TTGlyph name="Ldotaccent" xMin="26" yMin="-10" xMax="543" yMax="684">
      <contour>
        <pt x="76" y="641" on="1"/>
        <pt x="76" y="664" on="0"/>
        <pt x="86" y="684" on="1"/>
        <pt x="179" y="677" on="0"/>
        <pt x="210" y="677" on="1"/>
        <pt x="270" y="677" on="0"/>
        <pt x="306" y="682" on="1"/>
        <pt x="321" y="684" on="1"/>
        <pt x="321" y="661" on="0"/>
        <pt x="311" y="641" on="1"/>
        <pt x="261" y="632" on="0"/>
        <pt x="233" y="608" on="1"/>
        <pt x="206" y="378" on="0"/>
        <pt x="190" y="57" on="1"/>
        <pt x="465" y="57" on="1"/>
        <pt x="484" y="85" on="0"/>
        <pt x="492" y="129" on="1"/>
        <pt x="494" y="144" on="1"/>
        <pt x="524" y="138" on="0"/>
        <pt x="543" y="117" on="1"/>
        <pt x="522" y="65" on="0"/>
        <pt x="518" y="-3" on="1"/>
        <pt x="121" y="-3" on="1"/>
        <pt x="26" y="-10" on="1"/>
        <pt x="26" y="13" on="0"/>
        <pt x="36" y="33" on="1"/>
        <pt x="76" y="45" on="0"/>
        <pt x="104" y="69" on="1"/>
        <pt x="129" y="286" on="0"/>
        <pt x="150" y="628" on="1"/>
      </contour>
      <contour>
        <pt x="413" y="351" on="0"/>
        <pt x="451" y="370" on="0"/>
        <pt x="491" y="370" on="0"/>
        <pt x="514" y="352" on="0"/>
        <pt x="514" y="341" on="1"/>
        <pt x="509" y="305" on="1"/>
        <pt x="498" y="275" on="0"/>
        <pt x="445" y="275" on="1"/>
        <pt x="425" y="275" on="0"/>
        <pt x="404" y="293" on="0"/>
        <pt x="404" y="305" on="1"/>
        <pt x="408" y="336" on="1"/>
      </contour>
    </TTGlyph>
    <TTGlyph name="Lslash" xMin="26" yMin="-7" xMax="543" yMax="687">
      <contour>
        <pt x="76" y="644" on="1"/>
        <pt x="76" y="667" on="0"/>
        <pt x="86" y="687" on="1"/>
        <pt x="179" y="680" on="0"/>
        <pt x="216" y="680" on="1"/>
        <pt x="321" y="687" on="1"/>
        <pt x="321" y="664" on="0"/>
        <pt x="311" y="644" on="1"/>
        <pt x="261" y="635" on="0"/>
        <pt x="233" y="611" on="1"/>
        <pt x="213" y="448" on="0"/>
        <pt x="206" y="345" on="1"/>
        <pt x="304" y="399" on="0"/>
        <pt x="363" y="438" on="1"/>
        <pt x="384" y="438" on="1"/>
        <pt x="405" y="386" on="1"/>
        <pt x="202" y="276" on="1"/>
        <pt x="195" y="173" on="0"/>
        <pt x="190" y="60" on="1"/>
        <pt x="465" y="60" on="1"/>
        <pt x="484" y="88" on="0"/>
        <pt x="492" y="132" on="1"/>
        <pt x="494" y="147" on="1"/>
        <pt x="524" y="141" on="0"/>
        <pt x="543" y="120" on="1"/>
        <pt x="522" y="68" on="0"/>
        <pt x="518" y="0" on="1"/>
        <pt x="108" y="0" on="1"/>
        <pt x="26" y="-7" on="1"/>
        <pt x="26" y="16" on="0"/>
        <pt x="36" y="36" on="1"/>
        <pt x="76" y="48" on="0"/>
        <pt x="104" y="72" on="1"/>
        <pt x="117" y="182" on="0"/>
        <pt x="121" y="232" on="1"/>
        <pt x="63" y="201" on="1"/>
        <pt x="42" y="223" on="0"/>
        <pt x="37" y="250" on="1"/>
        <pt x="127" y="301" on="1"/>
        <pt x="140" y="452" on="0"/>
        <pt x="150" y="631" on="1"/>
      </contour>
    </TTGlyph>
    <TTGlyph name="M" xMin="9" yMin="-10" xMax="843" yMax="687">
      <contour>
        <pt x="236" y="36" on="1"/>
        <pt x="236" y="13" on="0"/>
        <pt x="226" y="-7" on="1"/>
        <pt x="141" y="0" on="0"/>
        <pt x="104" y="0" on="1"/>
        <pt x="9" y="-7" on="1"/>
        <pt x="9" y="16" on="0"/>
        <pt x="19" y="36" on="1"/>
        <pt x="59" y="47" on="0"/>
        <pt x="87" y="72" on="1"/>
        <pt x="132" y="385" on="0"/>
        <pt x="153" y="625" on="1"/>
        <pt x="70" y="644" on="1"/>
        <pt x="70" y="667" on="0"/>
        <pt x="80" y="687" on="1"/>
        <pt x="141" y="680" on="0"/>
        <pt x="180" y="680" on="1"/>
        <pt x="266" y="680" on="1"/>
        <pt x="353" y="334" on="0"/>
        <pt x="421" y="139" on="1"/>
        <pt x="502" y="312" on="0"/>
        <pt x="647" y="680" on="1"/>
        <pt x="738" y="680" on="1"/>
        <pt x="843" y="687" on="1"/>
        <pt x="843" y="664" on="0"/>
        <pt x="833" y="644" on="1"/>
        <pt x="788" y="636" on="0"/>
        <pt x="759" y="614" on="1"/>
        <pt x="733" y="339" on="0"/>
        <pt x="728" y="52" on="1"/>
        <pt x="813" y="36" on="1"/>
        <pt x="813" y="13" on="0"/>
        <pt x="803" y="-7" on="1"/>
        <pt x="720" y="0" on="0"/>
        <pt x="684" y="0" on="1"/>
        <pt x="629" y="0" on="0"/>
        <pt x="581" y="-6" on="1"/>
        <pt x="568" y="-7" on="1"/>
        <pt x="568" y="16" on="0"/>
        <pt x="578" y="36" on="1"/>
        <pt x="615" y="47" on="0"/>
        <pt x="643" y="70" on="1"/>
        <pt x="663" y="259" on="0"/>
        <pt x="675" y="578" on="1"/>
        <pt x="533" y="269" on="0"/>
        <pt x="434" y="0" on="1"/>
        <pt x="420" y="-10" on="1"/>
        <pt x="361" y="0" on="1"/>
        <pt x="284" y="315" on="0"/>
        <pt x="209" y="563" on="1"/>
        <pt x="170" y="289" on="0"/>
        <pt x="153" y="55" on="1"/>
      </contour>
    </TTGlyph>
    <TTGlyph name="N" xMin="22" yMin="-10" xMax="704" yMax="687">
      <contour>
        <pt x="254" y="36" on="1"/>
        <pt x="254" y="13" on="0"/>
        <pt x="244" y="-7" on="1"/>
        <pt x="154" y="0" on="0"/>
        <pt x="117" y="0" on="1"/>
        <pt x="22" y="-7" on="1"/>
        <pt x="22" y="16" on="0"/>
        <pt x="32" y="36" on="1"/>
        <pt x="71" y="47" on="0"/>
        <pt x="99" y="71" on="1"/>
        <pt x="117" y="203" on="0"/>
        <pt x="131" y="372" on="0"/>
        <pt x="146" y="570" on="0"/>
        <pt x="151" y="626" on="1"/>
        <pt x="68" y="644" on="1"/>
        <pt x="68" y="667" on="0"/>
        <pt x="78" y="687" on="1"/>
        <pt x="142" y="680" on="0"/>
        <pt x="182" y="680" on="1"/>
        <pt x="236" y="680" on="1"/>
        <pt x="323" y="503" on="0"/>
        <pt x="505" y="183" on="0"/>
        <pt x="516" y="163" on="1"/>
        <pt x="546" y="449" on="0"/>
        <pt x="554" y="626" on="1"/>
        <pt x="469" y="644" on="1"/>
        <pt x="469" y="667" on="0"/>
        <pt x="479" y="687" on="1"/>
        <pt x="546" y="680" on="0"/>
        <pt x="580" y="680" on="1"/>
        <pt x="634" y="680" on="0"/>
        <pt x="689" y="686" on="1"/>
        <pt x="704" y="687" on="1"/>
        <pt x="704" y="664" on="0"/>
        <pt x="694" y="644" on="1"/>
        <pt x="648" y="636" on="0"/>
        <pt x="620" y="614" on="1"/>
        <pt x="584" y="319" on="0"/>
        <pt x="572" y="0" on="1"/>
        <pt x="558" y="-10" on="1"/>
        <pt x="499" y="0" on="1"/>
        <pt x="312" y="356" on="0"/>
        <pt x="210" y="537" on="1"/>
        <pt x="195" y="416" on="0"/>
        <pt x="172" y="53" on="1"/>
      </contour>
    </TTGlyph>
    <TTGlyph name="Nacute" xMin="22" yMin="-10" xMax="704" yMax="890">
      <contour>
        <pt x="254" y="36" on="1"/>
        <pt x="254" y="13" on="0"/>
        <pt x="244" y="-7" on="1"/>
        <pt x="154" y="0" on="0"/>
        <pt x="117" y="0" on="1"/>
        <pt x="22" y="-7" on="1"/>
        <pt x="22" y="16" on="0"/>
        <pt x="32" y="36" on="1"/>
        <pt x="71" y="47" on="0"/>
        <pt x="99" y="71" on="1"/>
        <pt x="117" y="203" on="0"/>
        <pt x="131" y="372" on="0"/>
        <pt x="146" y="570" on="0"/>
        <pt x="151" y="626" on="1"/>
        <pt x="68" y="644" on="1"/>
        <pt x="68" y="667" on="0"/>
        <pt x="78" y="687" on="1"/>
        <pt x="142" y="680" on="0"/>
        <pt x="182" y="680" on="1"/>
        <pt x="236" y="680" on="1"/>
        <pt x="323" y="503" on="0"/>
        <pt x="505" y="183" on="0"/>
        <pt x="516" y="163" on="1"/>
        <pt x="546" y="449" on="0"/>
        <pt x="554" y="626" on="1"/>
        <pt x="469" y="644" on="1"/>
        <pt x="469" y="667" on="0"/>
        <pt x="479" y="687" on="1"/>
        <pt x="546" y="680" on="0"/>
        <pt x="580" y="680" on="1"/>
        <pt x="634" y="680" on="0"/>
        <pt x="689" y="686" on="1"/>
        <pt x="704" y="687" on="1"/>
        <pt x="704" y="664" on="0"/>
        <pt x="694" y="644" on="1"/>
        <pt x="648" y="636" on="0"/>
        <pt x="620" y="614" on="1"/>
        <pt x="584" y="319" on="0"/>
        <pt x="572" y="0" on="1"/>
        <pt x="558" y="-10" on="1"/>
        <pt x="499" y="0" on="1"/>
        <pt x="312" y="356" on="0"/>
        <pt x="210" y="537" on="1"/>
        <pt x="195" y="416" on="0"/>
        <pt x="172" y="53" on="1"/>
      </contour>
      <contour>
        <pt x="457" y="890" on="1"/>
        <pt x="490" y="884" on="0"/>
        <pt x="527" y="865" on="1"/>
        <pt x="527" y="855" on="1"/>
        <pt x="464" y="781" on="0"/>
        <pt x="396" y="735" on="1"/>
        <pt x="347" y="754" on="1"/>
        <pt x="347" y="761" on="1"/>
        <pt x="408" y="817" on="0"/>
      </contour>
    </TTGlyph>
    <TTGlyph name="Ntilde" xMin="22" yMin="-10" xMax="704" yMax="864">
      <contour>
        <pt x="254" y="36" on="1"/>
        <pt x="254" y="13" on="0"/>
        <pt x="244" y="-7" on="1"/>
        <pt x="154" y="0" on="0"/>
        <pt x="117" y="0" on="1"/>
        <pt x="22" y="-7" on="1"/>
        <pt x="22" y="16" on="0"/>
        <pt x="32" y="36" on="1"/>
        <pt x="71" y="47" on="0"/>
        <pt x="99" y="71" on="1"/>
        <pt x="117" y="203" on="0"/>
        <pt x="131" y="372" on="0"/>
        <pt x="146" y="570" on="0"/>
        <pt x="151" y="626" on="1"/>
        <pt x="68" y="644" on="1"/>
        <pt x="68" y="667" on="0"/>
        <pt x="78" y="687" on="1"/>
        <pt x="142" y="680" on="0"/>
        <pt x="182" y="680" on="1"/>
        <pt x="236" y="680" on="1"/>
        <pt x="323" y="503" on="0"/>
        <pt x="505" y="183" on="0"/>
        <pt x="516" y="163" on="1"/>
        <pt x="546" y="449" on="0"/>
        <pt x="554" y="626" on="1"/>
        <pt x="469" y="644" on="1"/>
        <pt x="469" y="667" on="0"/>
        <pt x="479" y="687" on="1"/>
        <pt x="546" y="680" on="0"/>
        <pt x="580" y="680" on="1"/>
        <pt x="634" y="680" on="0"/>
        <pt x="689" y="686" on="1"/>
        <pt x="704" y="687" on="1"/>
        <pt x="704" y="664" on="0"/>
        <pt x="694" y="644" on="1"/>
        <pt x="648" y="636" on="0"/>
        <pt x="620" y="614" on="1"/>
        <pt x="584" y="319" on="0"/>
        <pt x="572" y="0" on="1"/>
        <pt x="558" y="-10" on="1"/>
        <pt x="499" y="0" on="1"/>
        <pt x="312" y="356" on="0"/>
        <pt x="210" y="537" on="1"/>
        <pt x="195" y="416" on="0"/>
        <pt x="172" y="53" on="1"/>
      </contour>
      <contour>
        <pt x="532" y="761" on="1"/>
        <pt x="511" y="754" on="0"/>
        <pt x="454" y="754" on="0"/>
        <pt x="349" y="792" on="0"/>
        <pt x="339" y="792" on="1"/>
        <pt x="316" y="792" on="1"/>
        <pt x="305" y="780" on="0"/>
        <pt x="297" y="761" on="1"/>
        <pt x="260" y="761" on="1"/>
        <pt x="253" y="769" on="1"/>
        <pt x="270" y="857" on="1"/>
        <pt x="291" y="864" on="0"/>
        <pt x="345" y="864" on="0"/>
        <pt x="452" y="826" on="0"/>
        <pt x="463" y="826" on="1"/>
        <pt x="486" y="826" on="1"/>
        <pt x="497" y="838" on="0"/>
        <pt x="505" y="857" on="1"/>
        <pt x="542" y="857" on="1"/>
        <pt x="549" y="849" on="1"/>
      </contour>
    </TTGlyph>
    <TTGlyph name="O" xMin="38" yMin="-20" xMax="657" yMax="695">
      <contour>
        <pt x="38" y="241" on="1"/>
        <pt x="38" y="381" on="0"/>
        <pt x="100" y="495" on="1"/>
        <pt x="168" y="620" on="0"/>
        <pt x="287" y="668" on="1"/>
        <pt x="352" y="695" on="0"/>
        <pt x="428" y="695" on="1"/>
        <pt x="534" y="695" on="0"/>
        <pt x="657" y="548" on="0"/>
        <pt x="657" y="435" on="1"/>
        <pt x="657" y="261" on="0"/>
        <pt x="562" y="126" on="1"/>
        <pt x="516" y="60" on="0"/>
        <pt x="363" y="-20" on="0"/>
        <pt x="161" y="-20" on="0"/>
        <pt x="38" y="128" on="0"/>
      </contour>
      <contour>
        <pt x="214" y="580" on="0"/>
        <pt x="122" y="395" on="0"/>
        <pt x="122" y="208" on="0"/>
        <pt x="193" y="77" on="0"/>
        <pt x="261" y="60" on="1"/>
        <pt x="400" y="60" on="1"/>
        <pt x="484" y="105" on="0"/>
        <pt x="573" y="283" on="0"/>
        <pt x="573" y="469" on="0"/>
        <pt x="504" y="603" on="0"/>
        <pt x="438" y="625" on="1"/>
        <pt x="298" y="625" on="1"/>
      </contour>
    </TTGlyph>
    <TTGlyph name="OE" xMin="74" yMin="-20" xMax="947" yMax="687">
      <contour>
        <pt x="931" y="680" on="1"/>
        <pt x="940" y="672" on="0"/>
        <pt x="947" y="655" on="1"/>
        <pt x="926" y="618" on="0"/>
        <pt x="912" y="565" on="1"/>
        <pt x="908" y="548" on="1"/>
        <pt x="888" y="539" on="0"/>
        <pt x="859" y="539" on="1"/>
        <pt x="868" y="579" on="0"/>
        <pt x="868" y="619" on="0"/>
        <pt x="853" y="625" on="1"/>
        <pt x="610" y="625" on="1"/>
        <pt x="591" y="461" on="0"/>
        <pt x="584" y="370" on="1"/>
        <pt x="808" y="370" on="1"/>
        <pt x="824" y="394" on="0"/>
        <pt x="832" y="424" on="1"/>
        <pt x="839" y="427" on="0"/>
        <pt x="852" y="427" on="1"/>
        <pt x="874" y="423" on="1"/>
        <pt x="853" y="357" on="0"/>
        <pt x="843" y="254" on="1"/>
        <pt x="835" y="250" on="0"/>
        <pt x="823" y="250" on="1"/>
        <pt x="806" y="253" on="1"/>
        <pt x="806" y="293" on="0"/>
        <pt x="798" y="320" on="1"/>
        <pt x="581" y="320" on="1"/>
        <pt x="572" y="198" on="0"/>
        <pt x="566" y="60" on="1"/>
        <pt x="825" y="60" on="1"/>
        <pt x="844" y="88" on="0"/>
        <pt x="853" y="124" on="1"/>
        <pt x="856" y="137" on="1"/>
        <pt x="887" y="131" on="0"/>
        <pt x="898" y="116" on="1"/>
        <pt x="902" y="110" on="1"/>
        <pt x="882" y="60" on="0"/>
        <pt x="876" y="0" on="1"/>
        <pt x="501" y="0" on="1"/>
        <pt x="425" y="-20" on="0"/>
        <pt x="343" y="-20" on="1"/>
        <pt x="209" y="-20" on="0"/>
        <pt x="74" y="125" on="0"/>
        <pt x="74" y="241" on="1"/>
        <pt x="74" y="414" on="0"/>
        <pt x="168" y="546" on="1"/>
        <pt x="214" y="610" on="0"/>
        <pt x="365" y="687" on="0"/>
        <pt x="460" y="687" on="1"/>
        <pt x="577" y="680" on="1"/>
      </contour>
      <contour>
        <pt x="250" y="580" on="0"/>
        <pt x="158" y="395" on="0"/>
        <pt x="158" y="208" on="0"/>
        <pt x="229" y="77" on="0"/>
        <pt x="297" y="60" on="1"/>
        <pt x="436" y="60" on="1"/>
        <pt x="465" y="76" on="0"/>
        <pt x="482" y="91" on="1"/>
        <pt x="504" y="286" on="0"/>
        <pt x="523" y="598" on="1"/>
        <pt x="503" y="615" on="0"/>
        <pt x="474" y="625" on="1"/>
        <pt x="334" y="625" on="1"/>
      </contour>
    </TTGlyph>
    <TTGlyph name="Oacute" xMin="38" yMin="-20" xMax="657" yMax="890">
      <contour>
        <pt x="38" y="241" on="1"/>
        <pt x="38" y="381" on="0"/>
        <pt x="100" y="495" on="1"/>
        <pt x="168" y="620" on="0"/>
        <pt x="287" y="668" on="1"/>
        <pt x="352" y="695" on="0"/>
        <pt x="428" y="695" on="1"/>
        <pt x="534" y="695" on="0"/>
        <pt x="657" y="548" on="0"/>
        <pt x="657" y="435" on="1"/>
        <pt x="657" y="261" on="0"/>
        <pt x="562" y="126" on="1"/>
        <pt x="516" y="60" on="0"/>
        <pt x="363" y="-20" on="0"/>
        <pt x="161" y="-20" on="0"/>
        <pt x="38" y="128" on="0"/>
      </contour>
      <contour>
        <pt x="214" y="580" on="0"/>
        <pt x="122" y="395" on="0"/>
        <pt x="122" y="208" on="0"/>
        <pt x="193" y="77" on="0"/>
        <pt x="261" y="60" on="1"/>
        <pt x="400" y="60" on="1"/>
        <pt x="484" y="105" on="0"/>
        <pt x="573" y="283" on="0"/>
        <pt x="573" y="469" on="0"/>
        <pt x="504" y="603" on="0"/>
        <pt x="438" y="625" on="1"/>
        <pt x="298" y="625" on="1"/>
      </contour>
      <contour>
        <pt x="435" y="890" on="1"/>
        <pt x="468" y="884" on="0"/>
        <pt x="505" y="865" on="1"/>
        <pt x="505" y="855" on="1"/>
        <pt x="442" y="781" on="0"/>
        <pt x="374" y="735" on="1"/>
        <pt x="325" y="754" on="1"/>
        <pt x="325" y="761" on="1"/>
        <pt x="386" y="817" on="0"/>
      </contour>
    </TTGlyph>
    <TTGlyph name="Ocircumflex" xMin="38" yMin="-20" xMax="657" yMax="905">
      <contour>
        <pt x="38" y="241" on="1"/>
        <pt x="38" y="381" on="0"/>
        <pt x="100" y="495" on="1"/>
        <pt x="168" y="620" on="0"/>
        <pt x="287" y="668" on="1"/>
        <pt x="352" y="695" on="0"/>
        <pt x="428" y="695" on="1"/>
        <pt x="534" y="695" on="0"/>
        <pt x="657" y="548" on="0"/>
        <pt x="657" y="435" on="1"/>
        <pt x="657" y="261" on="0"/>
        <pt x="562" y="126" on="1"/>
        <pt x="516" y="60" on="0"/>
        <pt x="363" y="-20" on="0"/>
        <pt x="161" y="-20" on="0"/>
        <pt x="38" y="128" on="0"/>
      </contour>
      <contour>
        <pt x="214" y="580" on="0"/>
        <pt x="122" y="395" on="0"/>
        <pt x="122" y="208" on="0"/>
        <pt x="193" y="77" on="0"/>
        <pt x="261" y="60" on="1"/>
        <pt x="400" y="60" on="1"/>
        <pt x="484" y="105" on="0"/>
        <pt x="573" y="283" on="0"/>
        <pt x="573" y="469" on="0"/>
        <pt x="504" y="603" on="0"/>
        <pt x="438" y="625" on="1"/>
        <pt x="298" y="625" on="1"/>
      </contour>
      <contour>
        <pt x="375" y="878" on="1"/>
        <pt x="428" y="905" on="1"/>
        <pt x="475" y="831" on="0"/>
        <pt x="538" y="767" on="1"/>
        <pt x="538" y="759" on="1"/>
        <pt x="486" y="735" on="1"/>
        <pt x="432" y="781" on="0"/>
        <pt x="399" y="832" on="1"/>
        <pt x="359" y="786" on="0"/>
        <pt x="299" y="748" on="1"/>
        <pt x="255" y="759" on="1"/>
        <pt x="255" y="767" on="1"/>
        <pt x="344" y="831" on="0"/>
      </contour>
    </TTGlyph>
    <TTGlyph name="Odieresis" xMin="38" yMin="-20" xMax="657" yMax="858">
      <contour>
        <pt x="38" y="241" on="1"/>
        <pt x="38" y="381" on="0"/>
        <pt x="100" y="495" on="1"/>
        <pt x="168" y="620" on="0"/>
        <pt x="287" y="668" on="1"/>
        <pt x="352" y="695" on="0"/>
        <pt x="428" y="695" on="1"/>
        <pt x="534" y="695" on="0"/>
        <pt x="657" y="548" on="0"/>
        <pt x="657" y="435" on="1"/>
        <pt x="657" y="261" on="0"/>
        <pt x="562" y="126" on="1"/>
        <pt x="516" y="60" on="0"/>
        <pt x="363" y="-20" on="0"/>
        <pt x="161" y="-20" on="0"/>
        <pt x="38" y="128" on="0"/>
      </contour>
      <contour>
        <pt x="214" y="580" on="0"/>
        <pt x="122" y="395" on="0"/>
        <pt x="122" y="208" on="0"/>
        <pt x="193" y="77" on="0"/>
        <pt x="261" y="60" on="1"/>
        <pt x="400" y="60" on="1"/>
        <pt x="484" y="105" on="0"/>
        <pt x="573" y="283" on="0"/>
        <pt x="573" y="469" on="0"/>
        <pt x="504" y="603" on="0"/>
        <pt x="438" y="625" on="1"/>
        <pt x="298" y="625" on="1"/>
      </contour>
      <contour>
        <pt x="260" y="839" on="0"/>
        <pt x="298" y="858" on="0"/>
        <pt x="338" y="858" on="0"/>
        <pt x="361" y="840" on="0"/>
        <pt x="361" y="829" on="1"/>
        <pt x="356" y="793" on="1"/>
        <pt x="345" y="763" on="0"/>
        <pt x="292" y="763" on="1"/>
        <pt x="272" y="763" on="0"/>
        <pt x="251" y="781" on="0"/>
        <pt x="251" y="793" on="1"/>
        <pt x="255" y="824" on="1"/>
      </contour>
      <contour>
        <pt x="458" y="839" on="0"/>
        <pt x="496" y="858" on="0"/>
        <pt x="536" y="858" on="0"/>
        <pt x="559" y="840" on="0"/>
        <pt x="559" y="829" on="1"/>
        <pt x="554" y="793" on="1"/>
        <pt x="543" y="763" on="0"/>
        <pt x="490" y="763" on="1"/>
        <pt x="470" y="763" on="0"/>
        <pt x="449" y="781" on="0"/>
        <pt x="449" y="793" on="1"/>
        <pt x="453" y="824" on="1"/>
      </contour>
    </TTGlyph>
    <TTGlyph name="Ograve" xMin="38" yMin="-20" xMax="657" yMax="900">
      <contour>
        <pt x="38" y="241" on="1"/>
        <pt x="38" y="381" on="0"/>
        <pt x="100" y="495" on="1"/>
        <pt x="168" y="620" on="0"/>
        <pt x="287" y="668" on="1"/>
        <pt x="352" y="695" on="0"/>
        <pt x="428" y="695" on="1"/>
        <pt x="534" y="695" on="0"/>
        <pt x="657" y="548" on="0"/>
        <pt x="657" y="435" on="1"/>
        <pt x="657" y="261" on="0"/>
        <pt x="562" y="126" on="1"/>
        <pt x="516" y="60" on="0"/>
        <pt x="363" y="-20" on="0"/>
        <pt x="161" y="-20" on="0"/>
        <pt x="38" y="128" on="0"/>
      </contour>
      <contour>
        <pt x="214" y="580" on="0"/>
        <pt x="122" y="395" on="0"/>
        <pt x="122" y="208" on="0"/>
        <pt x="193" y="77" on="0"/>
        <pt x="261" y="60" on="1"/>
        <pt x="400" y="60" on="1"/>
        <pt x="484" y="105" on="0"/>
        <pt x="573" y="283" on="0"/>
        <pt x="573" y="469" on="0"/>
        <pt x="504" y="603" on="0"/>
        <pt x="438" y="625" on="1"/>
        <pt x="298" y="625" on="1"/>
      </contour>
      <contour>
        <pt x="375" y="900" on="1"/>
        <pt x="422" y="830" on="0"/>
        <pt x="468" y="780" on="1"/>
        <pt x="486" y="761" on="1"/>
        <pt x="486" y="754" on="1"/>
        <pt x="437" y="735" on="1"/>
        <pt x="407" y="755" on="0"/>
        <pt x="347" y="809" on="0"/>
        <pt x="332" y="826" on="1"/>
        <pt x="318" y="843" on="1"/>
        <pt x="318" y="853" on="1"/>
        <pt x="345" y="888" on="0"/>
      </contour>
    </TTGlyph>
    <TTGlyph name="Oslash" xMin="38" yMin="-71" xMax="657" yMax="758">
      <contour>
        <pt x="267" y="-20" on="1"/>
        <pt x="244" y="-19" on="1"/>
        <pt x="228" y="-66" on="1"/>
        <pt x="210" y="-71" on="0"/>
        <pt x="193" y="-71" on="1"/>
        <pt x="163" y="-66" on="1"/>
        <pt x="186" y="-7" on="1"/>
        <pt x="116" y="18" on="0"/>
        <pt x="38" y="152" on="0"/>
        <pt x="38" y="325" on="0"/>
        <pt x="87" y="483" on="0"/>
        <pt x="182" y="615" on="0"/>
        <pt x="338" y="695" on="0"/>
        <pt x="435" y="695" on="1"/>
        <pt x="452" y="743" on="1"/>
        <pt x="531" y="758" on="1"/>
        <pt x="535" y="742" on="1"/>
        <pt x="524" y="718" on="0"/>
        <pt x="509" y="681" on="1"/>
        <pt x="579" y="656" on="0"/>
        <pt x="657" y="523" on="0"/>
        <pt x="657" y="350" on="0"/>
        <pt x="608" y="191" on="0"/>
        <pt x="516" y="60" on="0"/>
        <pt x="363" y="-20" on="0"/>
      </contour>
      <contour>
        <pt x="573" y="385" on="1"/>
        <pt x="573" y="454" on="0"/>
        <pt x="524" y="573" on="0"/>
        <pt x="477" y="605" on="1"/>
        <pt x="389" y="384" on="0"/>
        <pt x="272" y="60" on="1"/>
        <pt x="400" y="60" on="1"/>
        <pt x="484" y="105" on="0"/>
        <pt x="573" y="283" on="0"/>
      </contour>
      <contour>
        <pt x="122" y="292" on="1"/>
        <pt x="122" y="223" on="0"/>
        <pt x="171" y="107" on="0"/>
        <pt x="218" y="78" on="1"/>
        <pt x="291" y="278" on="0"/>
        <pt x="411" y="625" on="1"/>
        <pt x="298" y="625" on="1"/>
        <pt x="214" y="580" on="0"/>
        <pt x="122" y="395" on="0"/>
      </contour>
    </TTGlyph>
    <TTGlyph name="Otilde" xMin="38" yMin="-20" xMax="657" yMax="863">
      <contour>
        <pt x="38" y="241" on="1"/>
        <pt x="38" y="381" on="0"/>
        <pt x="100" y="495" on="1"/>
        <pt x="168" y="620" on="0"/>
        <pt x="287" y="668" on="1"/>
        <pt x="352" y="695" on="0"/>
        <pt x="428" y="695" on="1"/>
        <pt x="534" y="695" on="0"/>
        <pt x="657" y="548" on="0"/>
        <pt x="657" y="435" on="1"/>
        <pt x="657" y="261" on="0"/>
        <pt x="562" y="126" on="1"/>
        <pt x="516" y="60" on="0"/>
        <pt x="363" y="-20" on="0"/>
        <pt x="161" y="-20" on="0"/>
        <pt x="38" y="128" on="0"/>
      </contour>
      <contour>
        <pt x="214" y="580" on="0"/>
        <pt x="122" y="395" on="0"/>
        <pt x="122" y="208" on="0"/>
        <pt x="193" y="77" on="0"/>
        <pt x="261" y="60" on="1"/>
        <pt x="400" y="60" on="1"/>
        <pt x="484" y="105" on="0"/>
        <pt x="573" y="283" on="0"/>
        <pt x="573" y="469" on="0"/>
        <pt x="504" y="603" on="0"/>
        <pt x="438" y="625" on="1"/>
        <pt x="298" y="625" on="1"/>
      </contour>
      <contour>
        <pt x="533" y="760" on="1"/>
        <pt x="512" y="753" on="0"/>
        <pt x="455" y="753" on="0"/>
        <pt x="350" y="791" on="0"/>
        <pt x="340" y="791" on="1"/>
        <pt x="317" y="791" on="1"/>
        <pt x="306" y="779" on="0"/>
        <pt x="298" y="760" on="1"/>
        <pt x="261" y="760" on="1"/>
        <pt x="254" y="768" on="1"/>
        <pt x="271" y="856" on="1"/>
        <pt x="292" y="863" on="0"/>
        <pt x="346" y="863" on="0"/>
        <pt x="453" y="825" on="0"/>
        <pt x="464" y="825" on="1"/>
        <pt x="487" y="825" on="1"/>
        <pt x="498" y="837" on="0"/>
        <pt x="506" y="856" on="1"/>
        <pt x="543" y="856" on="1"/>
        <pt x="550" y="848" on="1"/>
      </contour>
    </TTGlyph>
    <TTGlyph name="P" xMin="7" yMin="-7" xMax="511" yMax="690">
      <contour>
        <pt x="183" y="680" on="1"/>
        <pt x="320" y="690" on="1"/>
        <pt x="407" y="690" on="0"/>
        <pt x="511" y="611" on="0"/>
        <pt x="511" y="523" on="1"/>
        <pt x="511" y="410" on="0"/>
        <pt x="342" y="281" on="0"/>
        <pt x="224" y="281" on="1"/>
        <pt x="183" y="281" on="1"/>
        <pt x="170" y="51" on="1"/>
        <pt x="252" y="36" on="1"/>
        <pt x="252" y="13" on="0"/>
        <pt x="242" y="-7" on="1"/>
        <pt x="139" y="0" on="0"/>
        <pt x="109" y="0" on="1"/>
        <pt x="65" y="0" on="0"/>
        <pt x="20" y="-6" on="1"/>
        <pt x="7" y="-7" on="1"/>
        <pt x="7" y="16" on="0"/>
        <pt x="17" y="36" on="1"/>
        <pt x="57" y="48" on="0"/>
        <pt x="85" y="72" on="1"/>
        <pt x="111" y="292" on="0"/>
        <pt x="130" y="626" on="1"/>
        <pt x="56" y="644" on="1"/>
        <pt x="56" y="667" on="0"/>
        <pt x="66" y="687" on="1"/>
        <pt x="146" y="680" on="0"/>
      </contour>
      <contour>
        <pt x="358" y="345" on="0"/>
        <pt x="433" y="436" on="0"/>
        <pt x="433" y="542" on="0"/>
        <pt x="389" y="616" on="0"/>
        <pt x="348" y="625" on="1"/>
        <pt x="215" y="625" on="1"/>
        <pt x="195" y="453" on="0"/>
        <pt x="186" y="332" on="1"/>
        <pt x="290" y="332" on="1"/>
      </contour>
    </TTGlyph>
    <TTGlyph name="Q" xMin="38" yMin="-130" xMax="695" yMax="695">
      <contour>
        <pt x="38" y="241" on="1"/>
        <pt x="38" y="381" on="0"/>
        <pt x="100" y="495" on="1"/>
        <pt x="168" y="620" on="0"/>
        <pt x="287" y="668" on="1"/>
        <pt x="352" y="695" on="0"/>
        <pt x="428" y="695" on="1"/>
        <pt x="534" y="695" on="0"/>
        <pt x="657" y="548" on="0"/>
        <pt x="657" y="317" on="0"/>
        <pt x="564" y="104" on="0"/>
        <pt x="477" y="43" on="1"/>
        <pt x="695" y="-97" on="1"/>
        <pt x="695" y="-130" on="1"/>
        <pt x="567" y="-130" on="0"/>
        <pt x="496" y="-80" on="1"/>
        <pt x="448" y="-46" on="0"/>
        <pt x="394" y="0" on="1"/>
        <pt x="331" y="-20" on="0"/>
        <pt x="267" y="-20" on="1"/>
        <pt x="161" y="-20" on="0"/>
        <pt x="38" y="128" on="0"/>
      </contour>
      <contour>
        <pt x="214" y="580" on="0"/>
        <pt x="122" y="395" on="0"/>
        <pt x="122" y="208" on="0"/>
        <pt x="193" y="77" on="0"/>
        <pt x="261" y="60" on="1"/>
        <pt x="336" y="60" on="1"/>
        <pt x="390" y="100" on="1"/>
        <pt x="427" y="76" on="1"/>
        <pt x="498" y="125" on="0"/>
        <pt x="573" y="291" on="0"/>
        <pt x="573" y="469" on="0"/>
        <pt x="504" y="603" on="0"/>
        <pt x="438" y="625" on="1"/>
        <pt x="298" y="625" on="1"/>
      </contour>
    </TTGlyph>
    <TTGlyph name="R" xMin="23" yMin="-12" xMax="589" yMax="690">
      <contour>
        <pt x="589" y="31" on="1"/>
        <pt x="589" y="8" on="0"/>
        <pt x="579" y="-12" on="1"/>
        <pt x="495" y="-5" on="0"/>
        <pt x="430" y="-5" on="1"/>
        <pt x="377" y="135" on="0"/>
        <pt x="302" y="286" on="1"/>
        <pt x="276" y="281" on="0"/>
        <pt x="238" y="281" on="1"/>
        <pt x="199" y="281" on="1"/>
        <pt x="186" y="51" on="1"/>
        <pt x="268" y="36" on="1"/>
        <pt x="268" y="13" on="0"/>
        <pt x="258" y="-7" on="1"/>
        <pt x="155" y="0" on="0"/>
        <pt x="118" y="0" on="1"/>
        <pt x="23" y="-7" on="1"/>
        <pt x="23" y="16" on="0"/>
        <pt x="33" y="36" on="1"/>
        <pt x="73" y="48" on="0"/>
        <pt x="101" y="72" on="1"/>
        <pt x="127" y="292" on="0"/>
        <pt x="146" y="626" on="1"/>
        <pt x="72" y="644" on="1"/>
        <pt x="72" y="667" on="0"/>
        <pt x="82" y="687" on="1"/>
        <pt x="162" y="680" on="0"/>
        <pt x="199" y="680" on="1"/>
        <pt x="335" y="690" on="1"/>
        <pt x="422" y="690" on="0"/>
        <pt x="527" y="611" on="0"/>
        <pt x="527" y="446" on="0"/>
        <pt x="449" y="337" on="0"/>
        <pt x="382" y="308" on="1"/>
        <pt x="446" y="159" on="0"/>
        <pt x="511" y="44" on="1"/>
      </contour>
      <contour>
        <pt x="449" y="498" on="1"/>
        <pt x="449" y="541" on="0"/>
        <pt x="404" y="616" on="0"/>
        <pt x="363" y="625" on="1"/>
        <pt x="231" y="625" on="1"/>
        <pt x="211" y="453" on="0"/>
        <pt x="202" y="332" on="1"/>
        <pt x="304" y="332" on="1"/>
        <pt x="372" y="345" on="0"/>
        <pt x="449" y="436" on="0"/>
      </contour>
    </TTGlyph>
    <TTGlyph name="Racute" xMin="23" yMin="-12" xMax="589" yMax="890">
      <contour>
        <pt x="589" y="31" on="1"/>
        <pt x="589" y="8" on="0"/>
        <pt x="579" y="-12" on="1"/>
        <pt x="495" y="-5" on="0"/>
        <pt x="430" y="-5" on="1"/>
        <pt x="377" y="135" on="0"/>
        <pt x="302" y="286" on="1"/>
        <pt x="276" y="281" on="0"/>
        <pt x="238" y="281" on="1"/>
        <pt x="199" y="281" on="1"/>
        <pt x="186" y="51" on="1"/>
        <pt x="268" y="36" on="1"/>
        <pt x="268" y="13" on="0"/>
        <pt x="258" y="-7" on="1"/>
        <pt x="155" y="0" on="0"/>
        <pt x="118" y="0" on="1"/>
        <pt x="23" y="-7" on="1"/>
        <pt x="23" y="16" on="0"/>
        <pt x="33" y="36" on="1"/>
        <pt x="73" y="48" on="0"/>
        <pt x="101" y="72" on="1"/>
        <pt x="127" y="292" on="0"/>
        <pt x="146" y="626" on="1"/>
        <pt x="72" y="644" on="1"/>
        <pt x="72" y="667" on="0"/>
        <pt x="82" y="687" on="1"/>
        <pt x="162" y="680" on="0"/>
        <pt x="199" y="680" on="1"/>
        <pt x="335" y="690" on="1"/>
        <pt x="422" y="690" on="0"/>
        <pt x="527" y="611" on="0"/>
        <pt x="527" y="446" on="0"/>
        <pt x="449" y="337" on="0"/>
        <pt x="382" y="308" on="1"/>
        <pt x="446" y="159" on="0"/>
        <pt x="511" y="44" on="1"/>
      </contour>
      <contour>
        <pt x="449" y="498" on="1"/>
        <pt x="449" y="541" on="0"/>
        <pt x="404" y="616" on="0"/>
        <pt x="363" y="625" on="1"/>
        <pt x="231" y="625" on="1"/>
        <pt x="211" y="453" on="0"/>
        <pt x="202" y="332" on="1"/>
        <pt x="304" y="332" on="1"/>
        <pt x="372" y="345" on="0"/>
        <pt x="449" y="436" on="0"/>
      </contour>
      <contour>
        <pt x="374" y="890" on="1"/>
        <pt x="407" y="884" on="0"/>
        <pt x="444" y="865" on="1"/>
        <pt x="444" y="855" on="1"/>
        <pt x="381" y="781" on="0"/>
        <pt x="313" y="735" on="1"/>
        <pt x="264" y="754" on="1"/>
        <pt x="264" y="761" on="1"/>
        <pt x="325" y="817" on="0"/>
      </contour>
    </TTGlyph>
    <TTGlyph name="Rcaron" xMin="23" yMin="-12" xMax="589" yMax="906">
      <contour>
        <pt x="589" y="31" on="1"/>
        <pt x="589" y="8" on="0"/>
        <pt x="579" y="-12" on="1"/>
        <pt x="495" y="-5" on="0"/>
        <pt x="430" y="-5" on="1"/>
        <pt x="377" y="135" on="0"/>
        <pt x="302" y="286" on="1"/>
        <pt x="276" y="281" on="0"/>
        <pt x="238" y="281" on="1"/>
        <pt x="199" y="281" on="1"/>
        <pt x="186" y="51" on="1"/>
        <pt x="268" y="36" on="1"/>
        <pt x="268" y="13" on="0"/>
        <pt x="258" y="-7" on="1"/>
        <pt x="155" y="0" on="0"/>
        <pt x="118" y="0" on="1"/>
        <pt x="23" y="-7" on="1"/>
        <pt x="23" y="16" on="0"/>
        <pt x="33" y="36" on="1"/>
        <pt x="73" y="48" on="0"/>
        <pt x="101" y="72" on="1"/>
        <pt x="127" y="292" on="0"/>
        <pt x="146" y="626" on="1"/>
        <pt x="72" y="644" on="1"/>
        <pt x="72" y="667" on="0"/>
        <pt x="82" y="687" on="1"/>
        <pt x="162" y="680" on="0"/>
        <pt x="199" y="680" on="1"/>
        <pt x="335" y="690" on="1"/>
        <pt x="422" y="690" on="0"/>
        <pt x="527" y="611" on="0"/>
        <pt x="527" y="446" on="0"/>
        <pt x="449" y="337" on="0"/>
        <pt x="382" y="308" on="1"/>
        <pt x="446" y="159" on="0"/>
        <pt x="511" y="44" on="1"/>
      </contour>
      <contour>
        <pt x="449" y="498" on="1"/>
        <pt x="449" y="541" on="0"/>
        <pt x="404" y="616" on="0"/>
        <pt x="363" y="625" on="1"/>
        <pt x="231" y="625" on="1"/>
        <pt x="211" y="453" on="0"/>
        <pt x="202" y="332" on="1"/>
        <pt x="304" y="332" on="1"/>
        <pt x="372" y="345" on="0"/>
        <pt x="449" y="436" on="0"/>
      </contour>
      <contour>
        <pt x="345" y="763" on="1"/>
        <pt x="292" y="736" on="1"/>
        <pt x="245" y="810" on="0"/>
        <pt x="182" y="874" on="1"/>
        <pt x="182" y="882" on="1"/>
        <pt x="234" y="906" on="1"/>
        <pt x="291" y="855" on="0"/>
        <pt x="322" y="805" on="1"/>
        <pt x="370" y="857" on="0"/>
        <pt x="421" y="893" on="1"/>
        <pt x="465" y="882" on="1"/>
        <pt x="465" y="874" on="1"/>
        <pt x="397" y="828" on="0"/>
      </contour>
    </TTGlyph>
    <TTGlyph name="Rcommaaccent" xMin="23" yMin="-288" xMax="589" yMax="690">
      <contour>
        <pt x="589" y="31" on="1"/>
        <pt x="589" y="8" on="0"/>
        <pt x="579" y="-12" on="1"/>
        <pt x="495" y="-5" on="0"/>
        <pt x="430" y="-5" on="1"/>
        <pt x="377" y="135" on="0"/>
        <pt x="302" y="286" on="1"/>
        <pt x="276" y="281" on="0"/>
        <pt x="238" y="281" on="1"/>
        <pt x="199" y="281" on="1"/>
        <pt x="186" y="51" on="1"/>
        <pt x="268" y="36" on="1"/>
        <pt x="268" y="13" on="0"/>
        <pt x="258" y="-7" on="1"/>
        <pt x="155" y="0" on="0"/>
        <pt x="118" y="0" on="1"/>
        <pt x="23" y="-7" on="1"/>
        <pt x="23" y="16" on="0"/>
        <pt x="33" y="36" on="1"/>
        <pt x="73" y="48" on="0"/>
        <pt x="101" y="72" on="1"/>
        <pt x="127" y="292" on="0"/>
        <pt x="146" y="626" on="1"/>
        <pt x="72" y="644" on="1"/>
        <pt x="72" y="667" on="0"/>
        <pt x="82" y="687" on="1"/>
        <pt x="162" y="680" on="0"/>
        <pt x="199" y="680" on="1"/>
        <pt x="335" y="690" on="1"/>
        <pt x="422" y="690" on="0"/>
        <pt x="527" y="611" on="0"/>
        <pt x="527" y="446" on="0"/>
        <pt x="449" y="337" on="0"/>
        <pt x="382" y="308" on="1"/>
        <pt x="446" y="159" on="0"/>
        <pt x="511" y="44" on="1"/>
      </contour>
      <contour>
        <pt x="449" y="498" on="1"/>
        <pt x="449" y="541" on="0"/>
        <pt x="404" y="616" on="0"/>
        <pt x="363" y="625" on="1"/>
        <pt x="231" y="625" on="1"/>
        <pt x="211" y="453" on="0"/>
        <pt x="202" y="332" on="1"/>
        <pt x="304" y="332" on="1"/>
        <pt x="372" y="345" on="0"/>
        <pt x="449" y="436" on="0"/>
      </contour>
      <contour>
        <pt x="220" y="-288" on="1"/>
        <pt x="205" y="-283" on="0"/>
        <pt x="191" y="-269" on="1"/>
        <pt x="191" y="-257" on="1"/>
        <pt x="196" y="-253" on="0"/>
        <pt x="212" y="-239" on="0"/>
        <pt x="239" y="-189" on="0"/>
        <pt x="239" y="-141" on="0"/>
        <pt x="219" y="-108" on="0"/>
        <pt x="210" y="-108" on="1"/>
        <pt x="210" y="-77" on="1"/>
        <pt x="254" y="-67" on="0"/>
        <pt x="285" y="-53" on="1"/>
        <pt x="302" y="-53" on="1"/>
        <pt x="316" y="-74" on="0"/>
        <pt x="316" y="-143" on="0"/>
        <pt x="268" y="-239" on="0"/>
        <pt x="244" y="-264" on="1"/>
      </contour>
    </TTGlyph>
    <TTGlyph name="S" xMin="24" yMin="-20" xMax="495" yMax="695">
      <contour>
        <pt x="248" y="625" on="1"/>
        <pt x="184" y="601" on="0"/>
        <pt x="184" y="462" on="0"/>
        <pt x="297" y="397" on="1"/>
        <pt x="392" y="343" on="0"/>
        <pt x="477" y="255" on="0"/>
        <pt x="477" y="205" on="1"/>
        <pt x="477" y="94" on="0"/>
        <pt x="336" y="-20" on="0"/>
        <pt x="209" y="-20" on="1"/>
        <pt x="54" y="-20" on="0"/>
        <pt x="24" y="50" on="1"/>
        <pt x="45" y="88" on="0"/>
        <pt x="58" y="149" on="1"/>
        <pt x="63" y="169" on="1"/>
        <pt x="88" y="178" on="0"/>
        <pt x="117" y="178" on="1"/>
        <pt x="109" y="156" on="0"/>
        <pt x="109" y="127" on="1"/>
        <pt x="109" y="78" on="0"/>
        <pt x="135" y="60" on="1"/>
        <pt x="335" y="60" on="1"/>
        <pt x="394" y="97" on="0"/>
        <pt x="394" y="168" on="1"/>
        <pt x="394" y="214" on="0"/>
        <pt x="322" y="293" on="0"/>
        <pt x="171" y="381" on="0"/>
        <pt x="107" y="445" on="0"/>
        <pt x="107" y="494" on="1"/>
        <pt x="107" y="595" on="0"/>
        <pt x="243" y="695" on="0"/>
        <pt x="354" y="695" on="1"/>
        <pt x="406" y="695" on="0"/>
        <pt x="487" y="660" on="0"/>
        <pt x="495" y="635" on="1"/>
        <pt x="474" y="597" on="0"/>
        <pt x="460" y="536" on="1"/>
        <pt x="456" y="516" on="1"/>
        <pt x="431" y="507" on="0"/>
        <pt x="402" y="507" on="1"/>
        <pt x="410" y="529" on="0"/>
        <pt x="410" y="558" on="1"/>
        <pt x="410" y="607" on="0"/>
        <pt x="384" y="625" on="1"/>
      </contour>
    </TTGlyph>
    <TTGlyph name="Sacute" xMin="24" yMin="-20" xMax="495" yMax="890">
      <contour>
        <pt x="248" y="625" on="1"/>
        <pt x="184" y="601" on="0"/>
        <pt x="184" y="462" on="0"/>
        <pt x="297" y="397" on="1"/>
        <pt x="392" y="343" on="0"/>
        <pt x="477" y="255" on="0"/>
        <pt x="477" y="205" on="1"/>
        <pt x="477" y="94" on="0"/>
        <pt x="336" y="-20" on="0"/>
        <pt x="209" y="-20" on="1"/>
        <pt x="54" y="-20" on="0"/>
        <pt x="24" y="50" on="1"/>
        <pt x="45" y="88" on="0"/>
        <pt x="58" y="149" on="1"/>
        <pt x="63" y="169" on="1"/>
        <pt x="88" y="178" on="0"/>
        <pt x="117" y="178" on="1"/>
        <pt x="109" y="156" on="0"/>
        <pt x="109" y="127" on="1"/>
        <pt x="109" y="78" on="0"/>
        <pt x="135" y="60" on="1"/>
        <pt x="335" y="60" on="1"/>
        <pt x="394" y="97" on="0"/>
        <pt x="394" y="168" on="1"/>
        <pt x="394" y="214" on="0"/>
        <pt x="322" y="293" on="0"/>
        <pt x="171" y="381" on="0"/>
        <pt x="107" y="445" on="0"/>
        <pt x="107" y="494" on="1"/>
        <pt x="107" y="595" on="0"/>
        <pt x="243" y="695" on="0"/>
        <pt x="354" y="695" on="1"/>
        <pt x="406" y="695" on="0"/>
        <pt x="487" y="660" on="0"/>
        <pt x="495" y="635" on="1"/>
        <pt x="474" y="597" on="0"/>
        <pt x="460" y="536" on="1"/>
        <pt x="456" y="516" on="1"/>
        <pt x="431" y="507" on="0"/>
        <pt x="402" y="507" on="1"/>
        <pt x="410" y="529" on="0"/>
        <pt x="410" y="558" on="1"/>
        <pt x="410" y="607" on="0"/>
        <pt x="384" y="625" on="1"/>
      </contour>
      <contour>
        <pt x="383" y="890" on="1"/>
        <pt x="416" y="884" on="0"/>
        <pt x="453" y="865" on="1"/>
        <pt x="453" y="855" on="1"/>
        <pt x="390" y="781" on="0"/>
        <pt x="322" y="735" on="1"/>
        <pt x="273" y="754" on="1"/>
        <pt x="273" y="761" on="1"/>
        <pt x="334" y="817" on="0"/>
      </contour>
    </TTGlyph>
    <TTGlyph name="T" xMin="20" yMin="-7" xMax="619" yMax="687">
      <contour>
        <pt x="391" y="36" on="1"/>
        <pt x="391" y="13" on="0"/>
        <pt x="381" y="-7" on="1"/>
        <pt x="298" y="-1" on="0"/>
        <pt x="254" y="0" on="1"/>
        <pt x="241" y="0" on="1"/>
        <pt x="146" y="-7" on="1"/>
        <pt x="146" y="16" on="0"/>
        <pt x="156" y="36" on="1"/>
        <pt x="194" y="47" on="0"/>
        <pt x="222" y="70" on="1"/>
        <pt x="248" y="289" on="0"/>
        <pt x="267" y="622" on="1"/>
        <pt x="100" y="615" on="1"/>
        <pt x="82" y="586" on="0"/>
        <pt x="74" y="546" on="1"/>
        <pt x="55" y="539" on="0"/>
        <pt x="23" y="537" on="1"/>
        <pt x="20" y="544" on="1"/>
        <pt x="38" y="610" on="0"/>
        <pt x="45" y="687" on="1"/>
        <pt x="201" y="680" on="0"/>
        <pt x="322" y="680" on="1"/>
        <pt x="616" y="687" on="1"/>
        <pt x="619" y="680" on="1"/>
        <pt x="597" y="630" on="0"/>
        <pt x="584" y="558" on="1"/>
        <pt x="580" y="536" on="1"/>
        <pt x="558" y="527" on="0"/>
        <pt x="527" y="527" on="1"/>
        <pt x="537" y="570" on="0"/>
        <pt x="541" y="615" on="1"/>
        <pt x="448" y="620" on="0"/>
        <pt x="352" y="622" on="1"/>
        <pt x="324" y="379" on="0"/>
        <pt x="307" y="51" on="1"/>
      </contour>
    </TTGlyph>
    <TTGlyph name="Thorn" xMin="7" yMin="-7" xMax="536" yMax="687">
      <contour>
        <pt x="52" y="644" on="1"/>
        <pt x="52" y="667" on="0"/>
        <pt x="62" y="687" on="1"/>
        <pt x="155" y="680" on="0"/>
        <pt x="186" y="680" on="1"/>
        <pt x="229" y="680" on="0"/>
        <pt x="282" y="686" on="1"/>
        <pt x="297" y="687" on="1"/>
        <pt x="297" y="664" on="0"/>
        <pt x="287" y="644" on="1"/>
        <pt x="240" y="636" on="0"/>
        <pt x="212" y="613" on="1"/>
        <pt x="206" y="563" on="1"/>
        <pt x="345" y="579" on="1"/>
        <pt x="432" y="579" on="0"/>
        <pt x="536" y="500" on="0"/>
        <pt x="536" y="412" on="1"/>
        <pt x="536" y="299" on="0"/>
        <pt x="367" y="170" on="0"/>
        <pt x="249" y="170" on="1"/>
        <pt x="174" y="170" on="1"/>
        <pt x="168" y="51" on="1"/>
        <pt x="252" y="36" on="1"/>
        <pt x="252" y="13" on="0"/>
        <pt x="242" y="-7" on="1"/>
        <pt x="139" y="0" on="0"/>
        <pt x="109" y="0" on="1"/>
        <pt x="65" y="0" on="0"/>
        <pt x="20" y="-6" on="1"/>
        <pt x="7" y="-7" on="1"/>
        <pt x="7" y="16" on="0"/>
        <pt x="17" y="36" on="1"/>
        <pt x="55" y="47" on="0"/>
        <pt x="83" y="70" on="1"/>
        <pt x="109" y="295" on="0"/>
        <pt x="128" y="631" on="1"/>
      </contour>
      <contour>
        <pt x="383" y="234" on="0"/>
        <pt x="458" y="325" on="0"/>
        <pt x="458" y="431" on="0"/>
        <pt x="414" y="505" on="0"/>
        <pt x="373" y="514" on="1"/>
        <pt x="201" y="514" on="1"/>
        <pt x="187" y="385" on="0"/>
        <pt x="177" y="221" on="1"/>
        <pt x="315" y="221" on="1"/>
      </contour>
    </TTGlyph>
    <TTGlyph name="U" xMin="35" yMin="-15" xMax="679" yMax="687">
      <contour>
        <pt x="461" y="638" on="1"/>
        <pt x="461" y="661" on="0"/>
        <pt x="473" y="681" on="1"/>
        <pt x="545" y="674" on="0"/>
        <pt x="582" y="674" on="1"/>
        <pt x="679" y="681" on="1"/>
        <pt x="679" y="658" on="0"/>
        <pt x="669" y="638" on="1"/>
        <pt x="630" y="634" on="0"/>
        <pt x="598" y="601" on="1"/>
        <pt x="575" y="308" on="0"/>
        <pt x="545" y="133" on="0"/>
        <pt x="514" y="58" on="0"/>
        <pt x="452" y="5" on="0"/>
        <pt x="359" y="-15" on="0"/>
        <pt x="285" y="-15" on="1"/>
        <pt x="189" y="-15" on="0"/>
        <pt x="85" y="81" on="0"/>
        <pt x="85" y="200" on="0"/>
        <pt x="110" y="527" on="0"/>
        <pt x="115" y="630" on="1"/>
        <pt x="35" y="644" on="1"/>
        <pt x="35" y="667" on="0"/>
        <pt x="45" y="687" on="1"/>
        <pt x="138" y="680" on="0"/>
        <pt x="168" y="680" on="1"/>
        <pt x="212" y="680" on="0"/>
        <pt x="266" y="686" on="1"/>
        <pt x="280" y="687" on="1"/>
        <pt x="280" y="664" on="0"/>
        <pt x="270" y="644" on="1"/>
        <pt x="224" y="636" on="0"/>
        <pt x="195" y="614" on="1"/>
        <pt x="169" y="406" on="0"/>
        <pt x="169" y="172" on="1"/>
        <pt x="169" y="123" on="0"/>
        <pt x="248" y="60" on="0"/>
        <pt x="298" y="60" on="1"/>
        <pt x="433" y="60" on="1"/>
        <pt x="480" y="89" on="0"/>
        <pt x="514" y="249" on="0"/>
        <pt x="536" y="470" on="0"/>
        <pt x="538" y="544" on="1"/>
        <pt x="541" y="618" on="1"/>
      </contour>
    </TTGlyph>
    <TTGlyph name="Uacute" xMin="35" yMin="-15" xMax="679" yMax="890">
      <contour>
        <pt x="461" y="638" on="1"/>
        <pt x="461" y="661" on="0"/>
        <pt x="473" y="681" on="1"/>
        <pt x="545" y="674" on="0"/>
        <pt x="582" y="674" on="1"/>
        <pt x="679" y="681" on="1"/>
        <pt x="679" y="658" on="0"/>
        <pt x="669" y="638" on="1"/>
        <pt x="630" y="634" on="0"/>
        <pt x="598" y="601" on="1"/>
        <pt x="575" y="308" on="0"/>
        <pt x="545" y="133" on="0"/>
        <pt x="514" y="58" on="0"/>
        <pt x="452" y="5" on="0"/>
        <pt x="359" y="-15" on="0"/>
        <pt x="285" y="-15" on="1"/>
        <pt x="189" y="-15" on="0"/>
        <pt x="85" y="81" on="0"/>
        <pt x="85" y="200" on="0"/>
        <pt x="110" y="527" on="0"/>
        <pt x="115" y="630" on="1"/>
        <pt x="35" y="644" on="1"/>
        <pt x="35" y="667" on="0"/>
        <pt x="45" y="687" on="1"/>
        <pt x="138" y="680" on="0"/>
        <pt x="168" y="680" on="1"/>
        <pt x="212" y="680" on="0"/>
        <pt x="266" y="686" on="1"/>
        <pt x="280" y="687" on="1"/>
        <pt x="280" y="664" on="0"/>
        <pt x="270" y="644" on="1"/>
        <pt x="224" y="636" on="0"/>
        <pt x="195" y="614" on="1"/>
        <pt x="169" y="406" on="0"/>
        <pt x="169" y="172" on="1"/>
        <pt x="169" y="123" on="0"/>
        <pt x="248" y="60" on="0"/>
        <pt x="298" y="60" on="1"/>
        <pt x="433" y="60" on="1"/>
        <pt x="480" y="89" on="0"/>
        <pt x="514" y="249" on="0"/>
        <pt x="536" y="470" on="0"/>
        <pt x="538" y="544" on="1"/>
        <pt x="541" y="618" on="1"/>
      </contour>
      <contour>
        <pt x="423" y="890" on="1"/>
        <pt x="456" y="884" on="0"/>
        <pt x="493" y="865" on="1"/>
        <pt x="493" y="855" on="1"/>
        <pt x="430" y="781" on="0"/>
        <pt x="362" y="735" on="1"/>
        <pt x="313" y="754" on="1"/>
        <pt x="313" y="761" on="1"/>
        <pt x="374" y="817" on="0"/>
      </contour>
    </TTGlyph>
    <TTGlyph name="Ucircumflex" xMin="35" yMin="-15" xMax="679" yMax="905">
      <contour>
        <pt x="461" y="638" on="1"/>
        <pt x="461" y="661" on="0"/>
        <pt x="473" y="681" on="1"/>
        <pt x="545" y="674" on="0"/>
        <pt x="582" y="674" on="1"/>
        <pt x="679" y="681" on="1"/>
        <pt x="679" y="658" on="0"/>
        <pt x="669" y="638" on="1"/>
        <pt x="630" y="634" on="0"/>
        <pt x="598" y="601" on="1"/>
        <pt x="575" y="308" on="0"/>
        <pt x="545" y="133" on="0"/>
        <pt x="514" y="58" on="0"/>
        <pt x="452" y="5" on="0"/>
        <pt x="359" y="-15" on="0"/>
        <pt x="285" y="-15" on="1"/>
        <pt x="189" y="-15" on="0"/>
        <pt x="85" y="81" on="0"/>
        <pt x="85" y="200" on="0"/>
        <pt x="110" y="527" on="0"/>
        <pt x="115" y="630" on="1"/>
        <pt x="35" y="644" on="1"/>
        <pt x="35" y="667" on="0"/>
        <pt x="45" y="687" on="1"/>
        <pt x="138" y="680" on="0"/>
        <pt x="168" y="680" on="1"/>
        <pt x="212" y="680" on="0"/>
        <pt x="266" y="686" on="1"/>
        <pt x="280" y="687" on="1"/>
        <pt x="280" y="664" on="0"/>
        <pt x="270" y="644" on="1"/>
        <pt x="224" y="636" on="0"/>
        <pt x="195" y="614" on="1"/>
        <pt x="169" y="406" on="0"/>
        <pt x="169" y="172" on="1"/>
        <pt x="169" y="123" on="0"/>
        <pt x="248" y="60" on="0"/>
        <pt x="298" y="60" on="1"/>
        <pt x="433" y="60" on="1"/>
        <pt x="480" y="89" on="0"/>
        <pt x="514" y="249" on="0"/>
        <pt x="536" y="470" on="0"/>
        <pt x="538" y="544" on="1"/>
        <pt x="541" y="618" on="1"/>
      </contour>
      <contour>
        <pt x="353" y="878" on="1"/>
        <pt x="406" y="905" on="1"/>
        <pt x="453" y="831" on="0"/>
        <pt x="516" y="767" on="1"/>
        <pt x="516" y="759" on="1"/>
        <pt x="464" y="735" on="1"/>
        <pt x="410" y="781" on="0"/>
        <pt x="377" y="832" on="1"/>
        <pt x="337" y="786" on="0"/>
        <pt x="277" y="748" on="1"/>
        <pt x="233" y="759" on="1"/>
        <pt x="233" y="767" on="1"/>
        <pt x="322" y="831" on="0"/>
      </contour>
    </TTGlyph>
    <TTGlyph name="Udieresis" xMin="35" yMin="-15" xMax="679" yMax="857">
      <contour>
        <pt x="461" y="638" on="1"/>
        <pt x="461" y="661" on="0"/>
        <pt x="473" y="681" on="1"/>
        <pt x="545" y="674" on="0"/>
        <pt x="582" y="674" on="1"/>
        <pt x="679" y="681" on="1"/>
        <pt x="679" y="658" on="0"/>
        <pt x="669" y="638" on="1"/>
        <pt x="630" y="634" on="0"/>
        <pt x="598" y="601" on="1"/>
        <pt x="575" y="308" on="0"/>
        <pt x="545" y="133" on="0"/>
        <pt x="514" y="58" on="0"/>
        <pt x="452" y="5" on="0"/>
        <pt x="359" y="-15" on="0"/>
        <pt x="285" y="-15" on="1"/>
        <pt x="189" y="-15" on="0"/>
        <pt x="85" y="81" on="0"/>
        <pt x="85" y="200" on="0"/>
        <pt x="110" y="527" on="0"/>
        <pt x="115" y="630" on="1"/>
        <pt x="35" y="644" on="1"/>
        <pt x="35" y="667" on="0"/>
        <pt x="45" y="687" on="1"/>
        <pt x="138" y="680" on="0"/>
        <pt x="168" y="680" on="1"/>
        <pt x="212" y="680" on="0"/>
        <pt x="266" y="686" on="1"/>
        <pt x="280" y="687" on="1"/>
        <pt x="280" y="664" on="0"/>
        <pt x="270" y="644" on="1"/>
        <pt x="224" y="636" on="0"/>
        <pt x="195" y="614" on="1"/>
        <pt x="169" y="406" on="0"/>
        <pt x="169" y="172" on="1"/>
        <pt x="169" y="123" on="0"/>
        <pt x="248" y="60" on="0"/>
        <pt x="298" y="60" on="1"/>
        <pt x="433" y="60" on="1"/>
        <pt x="480" y="89" on="0"/>
        <pt x="514" y="249" on="0"/>
        <pt x="536" y="470" on="0"/>
        <pt x="538" y="544" on="1"/>
        <pt x="541" y="618" on="1"/>
      </contour>
      <contour>
        <pt x="227" y="838" on="0"/>
        <pt x="265" y="857" on="0"/>
        <pt x="305" y="857" on="0"/>
        <pt x="328" y="839" on="0"/>
        <pt x="328" y="828" on="1"/>
        <pt x="323" y="792" on="1"/>
        <pt x="312" y="762" on="0"/>
        <pt x="259" y="762" on="1"/>
        <pt x="239" y="762" on="0"/>
        <pt x="218" y="780" on="0"/>
        <pt x="218" y="792" on="1"/>
        <pt x="222" y="823" on="1"/>
      </contour>
      <contour>
        <pt x="425" y="838" on="0"/>
        <pt x="463" y="857" on="0"/>
        <pt x="503" y="857" on="0"/>
        <pt x="526" y="839" on="0"/>
        <pt x="526" y="828" on="1"/>
        <pt x="521" y="792" on="1"/>
        <pt x="510" y="762" on="0"/>
        <pt x="457" y="762" on="1"/>
        <pt x="437" y="762" on="0"/>
        <pt x="416" y="780" on="0"/>
        <pt x="416" y="792" on="1"/>
        <pt x="420" y="823" on="1"/>
      </contour>
    </TTGlyph>
    <TTGlyph name="Ugrave" xMin="35" yMin="-15" xMax="679" yMax="900">
      <contour>
        <pt x="461" y="638" on="1"/>
        <pt x="461" y="661" on="0"/>
        <pt x="473" y="681" on="1"/>
        <pt x="545" y="674" on="0"/>
        <pt x="582" y="674" on="1"/>
        <pt x="679" y="681" on="1"/>
        <pt x="679" y="658" on="0"/>
        <pt x="669" y="638" on="1"/>
        <pt x="630" y="634" on="0"/>
        <pt x="598" y="601" on="1"/>
        <pt x="575" y="308" on="0"/>
        <pt x="545" y="133" on="0"/>
        <pt x="514" y="58" on="0"/>
        <pt x="452" y="5" on="0"/>
        <pt x="359" y="-15" on="0"/>
        <pt x="285" y="-15" on="1"/>
        <pt x="189" y="-15" on="0"/>
        <pt x="85" y="81" on="0"/>
        <pt x="85" y="200" on="0"/>
        <pt x="110" y="527" on="0"/>
        <pt x="115" y="630" on="1"/>
        <pt x="35" y="644" on="1"/>
        <pt x="35" y="667" on="0"/>
        <pt x="45" y="687" on="1"/>
        <pt x="138" y="680" on="0"/>
        <pt x="168" y="680" on="1"/>
        <pt x="212" y="680" on="0"/>
        <pt x="266" y="686" on="1"/>
        <pt x="280" y="687" on="1"/>
        <pt x="280" y="664" on="0"/>
        <pt x="270" y="644" on="1"/>
        <pt x="224" y="636" on="0"/>
        <pt x="195" y="614" on="1"/>
        <pt x="169" y="406" on="0"/>
        <pt x="169" y="172" on="1"/>
        <pt x="169" y="123" on="0"/>
        <pt x="248" y="60" on="0"/>
        <pt x="298" y="60" on="1"/>
        <pt x="433" y="60" on="1"/>
        <pt x="480" y="89" on="0"/>
        <pt x="514" y="249" on="0"/>
        <pt x="536" y="470" on="0"/>
        <pt x="538" y="544" on="1"/>
        <pt x="541" y="618" on="1"/>
      </contour>
      <contour>
        <pt x="356" y="900" on="1"/>
        <pt x="403" y="830" on="0"/>
        <pt x="450" y="780" on="1"/>
        <pt x="467" y="761" on="1"/>
        <pt x="467" y="754" on="1"/>
        <pt x="418" y="735" on="1"/>
        <pt x="388" y="755" on="0"/>
        <pt x="328" y="809" on="0"/>
        <pt x="314" y="826" on="1"/>
        <pt x="299" y="843" on="1"/>
        <pt x="299" y="853" on="1"/>
        <pt x="326" y="888" on="0"/>
      </contour>
    </TTGlyph>
    <TTGlyph name="V" xMin="18" yMin="-10" xMax="563" yMax="685">
      <contour>
        <pt x="451" y="120" on="0"/>
        <pt x="298" y="-10" on="0"/>
        <pt x="88" y="-10" on="0"/>
        <pt x="65" y="27" on="1"/>
        <pt x="92" y="361" on="0"/>
        <pt x="95" y="610" on="1"/>
        <pt x="18" y="610" on="1"/>
        <pt x="18" y="633" on="0"/>
        <pt x="28" y="653" on="1"/>
        <pt x="95" y="661" on="0"/>
        <pt x="149" y="685" on="1"/>
        <pt x="163" y="685" on="0"/>
        <pt x="185" y="660" on="0"/>
        <pt x="185" y="640" on="1"/>
        <pt x="155" y="233" on="0"/>
        <pt x="155" y="60" on="1"/>
        <pt x="285" y="60" on="1"/>
        <pt x="324" y="73" on="0"/>
        <pt x="371" y="130" on="1"/>
        <pt x="446" y="221" on="0"/>
        <pt x="468" y="365" on="1"/>
        <pt x="477" y="424" on="0"/>
        <pt x="477" y="461" on="1"/>
        <pt x="477" y="577" on="0"/>
        <pt x="448" y="640" on="1"/>
        <pt x="451" y="645" on="0"/>
        <pt x="466" y="660" on="0"/>
        <pt x="526" y="685" on="0"/>
        <pt x="563" y="685" on="1"/>
        <pt x="563" y="568" on="0"/>
        <pt x="525" y="316" on="0"/>
      </contour>
    </TTGlyph>
    <TTGlyph name="W" xMin="60" yMin="-10" xMax="842" yMax="685">
      <contour>
        <pt x="561" y="60" on="1"/>
        <pt x="597" y="60" on="0"/>
        <pt x="695" y="182" on="0"/>
        <pt x="755" y="357" on="0"/>
        <pt x="755" y="557" on="0"/>
        <pt x="717" y="640" on="1"/>
        <pt x="722" y="645" on="0"/>
        <pt x="740" y="660" on="0"/>
        <pt x="805" y="685" on="0"/>
        <pt x="842" y="685" on="1"/>
        <pt x="842" y="541" on="0"/>
        <pt x="787" y="242" on="0"/>
        <pt x="739" y="160" on="1"/>
        <pt x="640" y="-10" on="0"/>
        <pt x="508" y="-10" on="1"/>
        <pt x="471" y="-10" on="0"/>
        <pt x="422" y="10" on="0"/>
        <pt x="416" y="20" on="1"/>
        <pt x="411" y="30" on="1"/>
        <pt x="423" y="173" on="1"/>
        <pt x="413" y="179" on="1"/>
        <pt x="392" y="126" on="0"/>
        <pt x="375" y="97" on="0"/>
        <pt x="348" y="49" on="0"/>
        <pt x="325" y="29" on="0"/>
        <pt x="308" y="15" on="1"/>
        <pt x="276" y="-10" on="0"/>
        <pt x="184" y="-10" on="0"/>
        <pt x="127" y="10" on="0"/>
        <pt x="117" y="20" on="1"/>
        <pt x="107" y="30" on="1"/>
        <pt x="134" y="364" on="0"/>
        <pt x="137" y="610" on="1"/>
        <pt x="60" y="610" on="1"/>
        <pt x="60" y="633" on="0"/>
        <pt x="70" y="653" on="1"/>
        <pt x="137" y="661" on="0"/>
        <pt x="191" y="685" on="1"/>
        <pt x="205" y="685" on="0"/>
        <pt x="227" y="660" on="0"/>
        <pt x="227" y="640" on="1"/>
        <pt x="197" y="233" on="0"/>
        <pt x="197" y="60" on="1"/>
        <pt x="265" y="60" on="1"/>
        <pt x="292" y="60" on="0"/>
        <pt x="323" y="99" on="1"/>
        <pt x="378" y="169" on="0"/>
        <pt x="420" y="287" on="1"/>
        <pt x="433" y="489" on="0"/>
        <pt x="442" y="581" on="1"/>
        <pt x="488" y="596" on="0"/>
        <pt x="533" y="596" on="1"/>
        <pt x="517" y="519" on="0"/>
        <pt x="516" y="488" on="1"/>
        <pt x="504" y="361" on="0"/>
        <pt x="494" y="130" on="1"/>
        <pt x="491" y="60" on="1"/>
      </contour>
    </TTGlyph>
    <TTGlyph name="X" xMin="-71" yMin="-15" xMax="524" yMax="683">
      <contour>
        <pt x="-12" y="608" on="1"/>
        <pt x="-12" y="631" on="0"/>
        <pt x="-2" y="651" on="1"/>
        <pt x="55" y="659" on="0"/>
        <pt x="109" y="683" on="1"/>
        <pt x="139" y="672" on="0"/>
        <pt x="162" y="632" on="1"/>
        <pt x="189" y="584" on="0"/>
        <pt x="203" y="544" on="1"/>
        <pt x="230" y="472" on="0"/>
        <pt x="246" y="422" on="1"/>
        <pt x="432" y="681" on="1"/>
        <pt x="456" y="681" on="0"/>
        <pt x="502" y="666" on="0"/>
        <pt x="513" y="658" on="1"/>
        <pt x="524" y="650" on="1"/>
        <pt x="457" y="593" on="0"/>
        <pt x="412" y="531" on="1"/>
        <pt x="274" y="342" on="1"/>
        <pt x="291" y="291" on="1"/>
        <pt x="302" y="258" on="0"/>
        <pt x="317" y="217" on="0"/>
        <pt x="337" y="159" on="0"/>
        <pt x="353" y="122" on="0"/>
        <pt x="362" y="103" on="1"/>
        <pt x="381" y="66" on="0"/>
        <pt x="396" y="60" on="1"/>
        <pt x="494" y="60" on="1"/>
        <pt x="494" y="37" on="0"/>
        <pt x="484" y="17" on="1"/>
        <pt x="417" y="9" on="0"/>
        <pt x="363" y="-15" on="1"/>
        <pt x="333" y="-3" on="0"/>
        <pt x="276" y="98" on="0"/>
        <pt x="245" y="185" on="0"/>
        <pt x="220" y="267" on="1"/>
        <pt x="21" y="-10" on="1"/>
        <pt x="-3" y="-10" on="0"/>
        <pt x="-49" y="6" on="0"/>
        <pt x="-60" y="14" on="1"/>
        <pt x="-71" y="21" on="1"/>
        <pt x="-9" y="70" on="0"/>
        <pt x="35" y="131" on="1"/>
        <pt x="194" y="350" on="1"/>
        <pt x="156" y="467" on="0"/>
        <pt x="102" y="597" on="0"/>
        <pt x="79" y="608" on="1"/>
      </contour>
    </TTGlyph>
    <TTGlyph name="Y" xMin="-5" yMin="-245" xMax="552" yMax="700">
      <contour>
        <pt x="-5" y="-217" on="1"/>
        <pt x="-5" y="-193" on="0"/>
        <pt x="4" y="-175" on="1"/>
        <pt x="295" y="-175" on="1"/>
        <pt x="340" y="-153" on="0"/>
        <pt x="374" y="-34" on="1"/>
        <pt x="396" y="41" on="0"/>
        <pt x="406" y="173" on="1"/>
        <pt x="396" y="179" on="1"/>
        <pt x="368" y="114" on="0"/>
        <pt x="307" y="54" on="1"/>
        <pt x="275" y="23" on="0"/>
        <pt x="186" y="-15" on="0"/>
        <pt x="102" y="-15" on="0"/>
        <pt x="51" y="-6" on="0"/>
        <pt x="40" y="0" on="1"/>
        <pt x="15" y="13" on="0"/>
        <pt x="14" y="22" on="1"/>
        <pt x="13" y="27" on="1"/>
        <pt x="18" y="72" on="0"/>
        <pt x="38" y="235" on="0"/>
        <pt x="48" y="320" on="0"/>
        <pt x="54" y="384" on="1"/>
        <pt x="68" y="511" on="0"/>
        <pt x="73" y="625" on="1"/>
        <pt x="-1" y="625" on="1"/>
        <pt x="-1" y="648" on="0"/>
        <pt x="9" y="668" on="1"/>
        <pt x="71" y="676" on="0"/>
        <pt x="125" y="700" on="1"/>
        <pt x="139" y="700" on="0"/>
        <pt x="161" y="675" on="0"/>
        <pt x="161" y="655" on="1"/>
        <pt x="117" y="376" on="0"/>
        <pt x="98" y="60" on="1"/>
        <pt x="187" y="60" on="1"/>
        <pt x="234" y="60" on="0"/>
        <pt x="373" y="203" on="0"/>
        <pt x="407" y="278" on="1"/>
        <pt x="437" y="532" on="0"/>
        <pt x="457" y="666" on="1"/>
        <pt x="507" y="681" on="0"/>
        <pt x="552" y="681" on="1"/>
        <pt x="533" y="604" on="0"/>
        <pt x="514" y="463" on="0"/>
        <pt x="484" y="198" on="0"/>
        <pt x="475" y="122" on="0"/>
        <pt x="457" y="-1" on="0"/>
        <pt x="443" y="-53" on="0"/>
        <pt x="419" y="-137" on="0"/>
        <pt x="392" y="-169" on="0"/>
        <pt x="354" y="-216" on="0"/>
        <pt x="330" y="-224" on="1"/>
        <pt x="267" y="-245" on="0"/>
        <pt x="214" y="-245" on="1"/>
        <pt x="113" y="-245" on="0"/>
        <pt x="24" y="-224" on="1"/>
      </contour>
    </TTGlyph>
    <TTGlyph name="Yacute" xMin="-5" yMin="-245" xMax="552" yMax="890">
      <contour>
        <pt x="-5" y="-217" on="1"/>
        <pt x="-5" y="-193" on="0"/>
        <pt x="4" y="-175" on="1"/>
        <pt x="295" y="-175" on="1"/>
        <pt x="340" y="-153" on="0"/>
        <pt x="374" y="-34" on="1"/>
        <pt x="396" y="41" on="0"/>
        <pt x="406" y="173" on="1"/>
        <pt x="396" y="179" on="1"/>
        <pt x="368" y="114" on="0"/>
        <pt x="307" y="54" on="1"/>
        <pt x="275" y="23" on="0"/>
        <pt x="186" y="-15" on="0"/>
        <pt x="102" y="-15" on="0"/>
        <pt x="51" y="-6" on="0"/>
        <pt x="40" y="0" on="1"/>
        <pt x="15" y="13" on="0"/>
        <pt x="14" y="22" on="1"/>
        <pt x="13" y="27" on="1"/>
        <pt x="18" y="72" on="0"/>
        <pt x="38" y="235" on="0"/>
        <pt x="48" y="320" on="0"/>
        <pt x="54" y="384" on="1"/>
        <pt x="68" y="511" on="0"/>
        <pt x="73" y="625" on="1"/>
        <pt x="-1" y="625" on="1"/>
        <pt x="-1" y="648" on="0"/>
        <pt x="9" y="668" on="1"/>
        <pt x="71" y="676" on="0"/>
        <pt x="125" y="700" on="1"/>
        <pt x="139" y="700" on="0"/>
        <pt x="161" y="675" on="0"/>
        <pt x="161" y="655" on="1"/>
        <pt x="117" y="376" on="0"/>
        <pt x="98" y="60" on="1"/>
        <pt x="187" y="60" on="1"/>
        <pt x="234" y="60" on="0"/>
        <pt x="373" y="203" on="0"/>
        <pt x="407" y="278" on="1"/>
        <pt x="437" y="532" on="0"/>
        <pt x="457" y="666" on="1"/>
        <pt x="507" y="681" on="0"/>
        <pt x="552" y="681" on="1"/>
        <pt x="533" y="604" on="0"/>
        <pt x="514" y="463" on="0"/>
        <pt x="484" y="198" on="0"/>
        <pt x="475" y="122" on="0"/>
        <pt x="457" y="-1" on="0"/>
        <pt x="443" y="-53" on="0"/>
        <pt x="419" y="-137" on="0"/>
        <pt x="392" y="-169" on="0"/>
        <pt x="354" y="-216" on="0"/>
        <pt x="330" y="-224" on="1"/>
        <pt x="267" y="-245" on="0"/>
        <pt x="214" y="-245" on="1"/>
        <pt x="113" y="-245" on="0"/>
        <pt x="24" y="-224" on="1"/>
      </contour>
      <contour>
        <pt x="373" y="890" on="1"/>
        <pt x="406" y="884" on="0"/>
        <pt x="443" y="865" on="1"/>
        <pt x="443" y="855" on="1"/>
        <pt x="380" y="781" on="0"/>
        <pt x="312" y="735" on="1"/>
        <pt x="263" y="754" on="1"/>
        <pt x="263" y="761" on="1"/>
        <pt x="324" y="817" on="0"/>
      </contour>
    </TTGlyph>
    <TTGlyph name="Z" xMin="18" yMin="-21" xMax="578" yMax="701">
      <contour>
        <pt x="124" y="549" on="1"/>
        <pt x="96" y="556" on="0"/>
        <pt x="79" y="574" on="1"/>
        <pt x="102" y="655" on="0"/>
        <pt x="102" y="690" on="1"/>
        <pt x="136" y="701" on="0"/>
        <pt x="298" y="701" on="0"/>
        <pt x="485" y="668" on="1"/>
        <pt x="501" y="690" on="1"/>
        <pt x="540" y="690" on="0"/>
        <pt x="568" y="676" on="1"/>
        <pt x="578" y="672" on="1"/>
        <pt x="578" y="662" on="1"/>
        <pt x="146" y="60" on="1"/>
        <pt x="488" y="60" on="1"/>
        <pt x="505" y="86" on="0"/>
        <pt x="512" y="123" on="1"/>
        <pt x="515" y="136" on="1"/>
        <pt x="543" y="129" on="0"/>
        <pt x="560" y="111" on="1"/>
        <pt x="537" y="25" on="0"/>
        <pt x="537" y="-10" on="1"/>
        <pt x="491" y="-21" on="0"/>
        <pt x="438" y="-21" on="1"/>
        <pt x="255" y="-21" on="0"/>
        <pt x="108" y="6" on="1"/>
        <pt x="96" y="-10" on="1"/>
        <pt x="76" y="-10" on="0"/>
        <pt x="27" y="4" on="0"/>
        <pt x="18" y="14" on="1"/>
        <pt x="18" y="24" on="1"/>
        <pt x="454" y="625" on="1"/>
        <pt x="151" y="625" on="1"/>
        <pt x="134" y="599" on="0"/>
        <pt x="126" y="562" on="1"/>
      </contour>
    </TTGlyph>
    <TTGlyph name="Zacute" xMin="18" yMin="-21" xMax="578" yMax="890">
      <contour>
        <pt x="124" y="549" on="1"/>
        <pt x="96" y="556" on="0"/>
        <pt x="79" y="574" on="1"/>
        <pt x="102" y="655" on="0"/>
        <pt x="102" y="690" on="1"/>
        <pt x="136" y="701" on="0"/>
        <pt x="298" y="701" on="0"/>
        <pt x="485" y="668" on="1"/>
        <pt x="501" y="690" on="1"/>
        <pt x="540" y="690" on="0"/>
        <pt x="568" y="676" on="1"/>
        <pt x="578" y="672" on="1"/>
        <pt x="578" y="662" on="1"/>
        <pt x="146" y="60" on="1"/>
        <pt x="488" y="60" on="1"/>
        <pt x="505" y="86" on="0"/>
        <pt x="512" y="123" on="1"/>
        <pt x="515" y="136" on="1"/>
        <pt x="543" y="129" on="0"/>
        <pt x="560" y="111" on="1"/>
        <pt x="537" y="25" on="0"/>
        <pt x="537" y="-10" on="1"/>
        <pt x="491" y="-21" on="0"/>
        <pt x="438" y="-21" on="1"/>
        <pt x="255" y="-21" on="0"/>
        <pt x="108" y="6" on="1"/>
        <pt x="96" y="-10" on="1"/>
        <pt x="76" y="-10" on="0"/>
        <pt x="27" y="4" on="0"/>
        <pt x="18" y="14" on="1"/>
        <pt x="18" y="24" on="1"/>
        <pt x="454" y="625" on="1"/>
        <pt x="151" y="625" on="1"/>
        <pt x="134" y="599" on="0"/>
        <pt x="126" y="562" on="1"/>
      </contour>
      <contour>
        <pt x="407" y="890" on="1"/>
        <pt x="440" y="884" on="0"/>
        <pt x="477" y="865" on="1"/>
        <pt x="477" y="855" on="1"/>
        <pt x="414" y="781" on="0"/>
        <pt x="346" y="735" on="1"/>
        <pt x="297" y="754" on="1"/>
        <pt x="297" y="761" on="1"/>
        <pt x="358" y="817" on="0"/>
      </contour>
    </TTGlyph>
    <TTGlyph name="Zdotaccent" xMin="18" yMin="-21" xMax="578" yMax="857">
      <contour>
        <pt x="124" y="549" on="1"/>
        <pt x="96" y="556" on="0"/>
        <pt x="79" y="574" on="1"/>
        <pt x="102" y="655" on="0"/>
        <pt x="102" y="690" on="1"/>
        <pt x="136" y="701" on="0"/>
        <pt x="298" y="701" on="0"/>
        <pt x="485" y="668" on="1"/>
        <pt x="501" y="690" on="1"/>
        <pt x="540" y="690" on="0"/>
        <pt x="568" y="676" on="1"/>
        <pt x="578" y="672" on="1"/>
        <pt x="578" y="662" on="1"/>
        <pt x="146" y="60" on="1"/>
        <pt x="488" y="60" on="1"/>
        <pt x="505" y="86" on="0"/>
        <pt x="512" y="123" on="1"/>
        <pt x="515" y="136" on="1"/>
        <pt x="543" y="129" on="0"/>
        <pt x="560" y="111" on="1"/>
        <pt x="537" y="25" on="0"/>
        <pt x="537" y="-10" on="1"/>
        <pt x="491" y="-21" on="0"/>
        <pt x="438" y="-21" on="1"/>
        <pt x="255" y="-21" on="0"/>
        <pt x="108" y="6" on="1"/>
        <pt x="96" y="-10" on="1"/>
        <pt x="76" y="-10" on="0"/>
        <pt x="27" y="4" on="0"/>
        <pt x="18" y="14" on="1"/>
        <pt x="18" y="24" on="1"/>
        <pt x="454" y="625" on="1"/>
        <pt x="151" y="625" on="1"/>
        <pt x="134" y="599" on="0"/>
        <pt x="126" y="562" on="1"/>
      </contour>
      <contour>
        <pt x="306" y="838" on="0"/>
        <pt x="344" y="857" on="0"/>
        <pt x="384" y="857" on="0"/>
        <pt x="407" y="839" on="0"/>
        <pt x="407" y="828" on="1"/>
        <pt x="402" y="792" on="1"/>
        <pt x="391" y="762" on="0"/>
        <pt x="338" y="762" on="1"/>
        <pt x="318" y="762" on="0"/>
        <pt x="297" y="780" on="0"/>
        <pt x="297" y="792" on="1"/>
        <pt x="301" y="823" on="1"/>
      </contour>
    </TTGlyph>
    <TTGlyph name="a" xMin="30" yMin="-15" xMax="509" yMax="495">
      <contour>
        <pt x="509" y="60" on="1"/>
        <pt x="509" y="37" on="0"/>
        <pt x="499" y="17" on="1"/>
        <pt x="432" y="9" on="0"/>
        <pt x="378" y="-15" on="1"/>
        <pt x="363" y="-15" on="0"/>
        <pt x="342" y="7" on="0"/>
        <pt x="342" y="30" on="1"/>
        <pt x="361" y="173" on="1"/>
        <pt x="351" y="179" on="1"/>
        <pt x="314" y="89" on="0"/>
        <pt x="238" y="-10" on="0"/>
        <pt x="114" y="-10" on="0"/>
        <pt x="30" y="81" on="0"/>
        <pt x="30" y="159" on="1"/>
        <pt x="30" y="288" on="0"/>
        <pt x="184" y="480" on="0"/>
        <pt x="298" y="480" on="1"/>
        <pt x="335" y="480" on="0"/>
        <pt x="382" y="451" on="1"/>
        <pt x="384" y="469" on="0"/>
        <pt x="386" y="480" on="1"/>
        <pt x="436" y="495" on="0"/>
        <pt x="481" y="495" on="1"/>
        <pt x="462" y="418" on="0"/>
        <pt x="437" y="240" on="0"/>
        <pt x="425" y="60" on="1"/>
      </contour>
      <contour>
        <pt x="106" y="187" on="1"/>
        <pt x="106" y="143" on="0"/>
        <pt x="146" y="72" on="0"/>
        <pt x="171" y="60" on="1"/>
        <pt x="219" y="60" on="1"/>
        <pt x="277" y="71" on="0"/>
        <pt x="360" y="270" on="1"/>
        <pt x="364" y="312" on="0"/>
        <pt x="376" y="410" on="1"/>
        <pt x="216" y="410" on="1"/>
        <pt x="177" y="403" on="0"/>
        <pt x="106" y="262" on="0"/>
      </contour>
    </TTGlyph>
    <TTGlyph name="aacute" xMin="30" yMin="-15" xMax="509" yMax="740">
      <contour>
        <pt x="509" y="60" on="1"/>
        <pt x="509" y="37" on="0"/>
        <pt x="499" y="17" on="1"/>
        <pt x="432" y="9" on="0"/>
        <pt x="378" y="-15" on="1"/>
        <pt x="363" y="-15" on="0"/>
        <pt x="342" y="7" on="0"/>
        <pt x="342" y="30" on="1"/>
        <pt x="361" y="173" on="1"/>
        <pt x="351" y="179" on="1"/>
        <pt x="314" y="89" on="0"/>
        <pt x="238" y="-10" on="0"/>
        <pt x="114" y="-10" on="0"/>
        <pt x="30" y="81" on="0"/>
        <pt x="30" y="159" on="1"/>
        <pt x="30" y="288" on="0"/>
        <pt x="184" y="480" on="0"/>
        <pt x="298" y="480" on="1"/>
        <pt x="335" y="480" on="0"/>
        <pt x="382" y="451" on="1"/>
        <pt x="384" y="469" on="0"/>
        <pt x="386" y="480" on="1"/>
        <pt x="436" y="495" on="0"/>
        <pt x="481" y="495" on="1"/>
        <pt x="462" y="418" on="0"/>
        <pt x="437" y="240" on="0"/>
        <pt x="425" y="60" on="1"/>
      </contour>
      <contour>
        <pt x="106" y="187" on="1"/>
        <pt x="106" y="143" on="0"/>
        <pt x="146" y="72" on="0"/>
        <pt x="171" y="60" on="1"/>
        <pt x="219" y="60" on="1"/>
        <pt x="277" y="71" on="0"/>
        <pt x="360" y="270" on="1"/>
        <pt x="364" y="312" on="0"/>
        <pt x="376" y="410" on="1"/>
        <pt x="216" y="410" on="1"/>
        <pt x="177" y="403" on="0"/>
        <pt x="106" y="262" on="0"/>
      </contour>
      <contour>
        <pt x="379" y="740" on="1"/>
        <pt x="412" y="734" on="0"/>
        <pt x="449" y="715" on="1"/>
        <pt x="449" y="705" on="1"/>
        <pt x="375" y="616" on="0"/>
        <pt x="307" y="570" on="1"/>
        <pt x="258" y="589" on="1"/>
        <pt x="258" y="596" on="1"/>
        <pt x="330" y="667" on="0"/>
      </contour>
    </TTGlyph>
    <TTGlyph name="acircumflex" xMin="30" yMin="-15" xMax="509" yMax="740">
      <contour>
        <pt x="509" y="60" on="1"/>
        <pt x="509" y="37" on="0"/>
        <pt x="499" y="17" on="1"/>
        <pt x="432" y="9" on="0"/>
        <pt x="378" y="-15" on="1"/>
        <pt x="363" y="-15" on="0"/>
        <pt x="342" y="7" on="0"/>
        <pt x="342" y="30" on="1"/>
        <pt x="361" y="173" on="1"/>
        <pt x="351" y="179" on="1"/>
        <pt x="314" y="89" on="0"/>
        <pt x="238" y="-10" on="0"/>
        <pt x="114" y="-10" on="0"/>
        <pt x="30" y="81" on="0"/>
        <pt x="30" y="159" on="1"/>
        <pt x="30" y="288" on="0"/>
        <pt x="184" y="480" on="0"/>
        <pt x="298" y="480" on="1"/>
        <pt x="335" y="480" on="0"/>
        <pt x="382" y="451" on="1"/>
        <pt x="384" y="469" on="0"/>
        <pt x="386" y="480" on="1"/>
        <pt x="436" y="495" on="0"/>
        <pt x="481" y="495" on="1"/>
        <pt x="462" y="418" on="0"/>
        <pt x="437" y="240" on="0"/>
        <pt x="425" y="60" on="1"/>
      </contour>
      <contour>
        <pt x="106" y="187" on="1"/>
        <pt x="106" y="143" on="0"/>
        <pt x="146" y="72" on="0"/>
        <pt x="171" y="60" on="1"/>
        <pt x="219" y="60" on="1"/>
        <pt x="277" y="71" on="0"/>
        <pt x="360" y="270" on="1"/>
        <pt x="364" y="312" on="0"/>
        <pt x="376" y="410" on="1"/>
        <pt x="216" y="410" on="1"/>
        <pt x="177" y="403" on="0"/>
        <pt x="106" y="262" on="0"/>
      </contour>
      <contour>
        <pt x="296" y="713" on="1"/>
        <pt x="349" y="740" on="1"/>
        <pt x="396" y="666" on="0"/>
        <pt x="459" y="602" on="1"/>
        <pt x="459" y="594" on="1"/>
        <pt x="407" y="570" on="1"/>
        <pt x="353" y="616" on="0"/>
        <pt x="320" y="667" on="1"/>
        <pt x="280" y="621" on="0"/>
        <pt x="220" y="583" on="1"/>
        <pt x="176" y="594" on="1"/>
        <pt x="176" y="602" on="1"/>
        <pt x="265" y="666" on="0"/>
      </contour>
    </TTGlyph>
    <TTGlyph name="acute" xMin="121" yMin="570" xMax="312" yMax="740">
      <contour>
        <pt x="242" y="740" on="1"/>
        <pt x="275" y="734" on="0"/>
        <pt x="312" y="715" on="1"/>
        <pt x="312" y="705" on="1"/>
        <pt x="238" y="616" on="0"/>
        <pt x="170" y="570" on="1"/>
        <pt x="121" y="589" on="1"/>
        <pt x="121" y="596" on="1"/>
        <pt x="193" y="667" on="0"/>
      </contour>
    </TTGlyph>
    <TTGlyph name="acute.cap" xMin="118" yMin="735" xMax="298" yMax="890">
      <contour>
        <pt x="228" y="890" on="1"/>
        <pt x="261" y="884" on="0"/>
        <pt x="298" y="865" on="1"/>
        <pt x="298" y="855" on="1"/>
        <pt x="235" y="781" on="0"/>
        <pt x="167" y="735" on="1"/>
        <pt x="118" y="754" on="1"/>
        <pt x="118" y="761" on="1"/>
        <pt x="179" y="817" on="0"/>
      </contour>
    </TTGlyph>
    <TTGlyph name="adieresis" xMin="30" yMin="-15" xMax="509" yMax="681">
      <contour>
        <pt x="509" y="60" on="1"/>
        <pt x="509" y="37" on="0"/>
        <pt x="499" y="17" on="1"/>
        <pt x="432" y="9" on="0"/>
        <pt x="378" y="-15" on="1"/>
        <pt x="363" y="-15" on="0"/>
        <pt x="342" y="7" on="0"/>
        <pt x="342" y="30" on="1"/>
        <pt x="361" y="173" on="1"/>
        <pt x="351" y="179" on="1"/>
        <pt x="314" y="89" on="0"/>
        <pt x="238" y="-10" on="0"/>
        <pt x="114" y="-10" on="0"/>
        <pt x="30" y="81" on="0"/>
        <pt x="30" y="159" on="1"/>
        <pt x="30" y="288" on="0"/>
        <pt x="184" y="480" on="0"/>
        <pt x="298" y="480" on="1"/>
        <pt x="335" y="480" on="0"/>
        <pt x="382" y="451" on="1"/>
        <pt x="384" y="469" on="0"/>
        <pt x="386" y="480" on="1"/>
        <pt x="436" y="495" on="0"/>
        <pt x="481" y="495" on="1"/>
        <pt x="462" y="418" on="0"/>
        <pt x="437" y="240" on="0"/>
        <pt x="425" y="60" on="1"/>
      </contour>
      <contour>
        <pt x="106" y="187" on="1"/>
        <pt x="106" y="143" on="0"/>
        <pt x="146" y="72" on="0"/>
        <pt x="171" y="60" on="1"/>
        <pt x="219" y="60" on="1"/>
        <pt x="277" y="71" on="0"/>
        <pt x="360" y="270" on="1"/>
        <pt x="364" y="312" on="0"/>
        <pt x="376" y="410" on="1"/>
        <pt x="216" y="410" on="1"/>
        <pt x="177" y="403" on="0"/>
        <pt x="106" y="262" on="0"/>
      </contour>
      <contour>
        <pt x="170" y="662" on="0"/>
        <pt x="208" y="681" on="0"/>
        <pt x="248" y="681" on="0"/>
        <pt x="271" y="663" on="0"/>
        <pt x="271" y="652" on="1"/>
        <pt x="266" y="616" on="1"/>
        <pt x="255" y="586" on="0"/>
        <pt x="202" y="586" on="1"/>
        <pt x="182" y="586" on="0"/>
        <pt x="161" y="604" on="0"/>
        <pt x="161" y="616" on="1"/>
        <pt x="165" y="647" on="1"/>
      </contour>
      <contour>
        <pt x="368" y="662" on="0"/>
        <pt x="406" y="681" on="0"/>
        <pt x="446" y="681" on="0"/>
        <pt x="469" y="663" on="0"/>
        <pt x="469" y="652" on="1"/>
        <pt x="464" y="616" on="1"/>
        <pt x="453" y="586" on="0"/>
        <pt x="400" y="586" on="1"/>
        <pt x="380" y="586" on="0"/>
        <pt x="359" y="604" on="0"/>
        <pt x="359" y="616" on="1"/>
        <pt x="363" y="647" on="1"/>
      </contour>
    </TTGlyph>
    <TTGlyph name="ae" xMin="30" yMin="-10" xMax="702" yMax="495">
      <contour>
        <pt x="680" y="60" on="1"/>
        <pt x="680" y="37" on="0"/>
        <pt x="670" y="17" on="1"/>
        <pt x="544" y="-10" on="0"/>
        <pt x="498" y="-10" on="1"/>
        <pt x="417" y="-10" on="0"/>
        <pt x="348" y="71" on="0"/>
        <pt x="346" y="167" on="1"/>
        <pt x="311" y="83" on="0"/>
        <pt x="236" y="-10" on="0"/>
        <pt x="114" y="-10" on="0"/>
        <pt x="30" y="81" on="0"/>
        <pt x="30" y="159" on="1"/>
        <pt x="30" y="288" on="0"/>
        <pt x="184" y="480" on="0"/>
        <pt x="298" y="480" on="1"/>
        <pt x="335" y="480" on="0"/>
        <pt x="382" y="451" on="1"/>
        <pt x="384" y="469" on="0"/>
        <pt x="386" y="480" on="1"/>
        <pt x="436" y="495" on="0"/>
        <pt x="481" y="495" on="1"/>
        <pt x="472" y="461" on="0"/>
        <pt x="466" y="430" on="1"/>
        <pt x="529" y="480" on="0"/>
        <pt x="607" y="480" on="1"/>
        <pt x="656" y="480" on="0"/>
        <pt x="702" y="430" on="0"/>
        <pt x="702" y="394" on="1"/>
        <pt x="702" y="214" on="0"/>
        <pt x="420" y="208" on="1"/>
        <pt x="420" y="68" on="0"/>
        <pt x="482" y="60" on="1"/>
      </contour>
      <contour>
        <pt x="106" y="187" on="1"/>
        <pt x="106" y="143" on="0"/>
        <pt x="146" y="72" on="0"/>
        <pt x="171" y="60" on="1"/>
        <pt x="219" y="60" on="1"/>
        <pt x="246" y="65" on="0"/>
        <pt x="312" y="160" on="0"/>
        <pt x="346" y="235" on="0"/>
        <pt x="360" y="270" on="1"/>
        <pt x="376" y="410" on="1"/>
        <pt x="216" y="410" on="1"/>
        <pt x="177" y="403" on="0"/>
        <pt x="106" y="262" on="0"/>
      </contour>
      <contour>
        <pt x="632" y="369" on="1"/>
        <pt x="632" y="402" on="0"/>
        <pt x="604" y="410" on="1"/>
        <pt x="512" y="410" on="1"/>
        <pt x="478" y="397" on="0"/>
        <pt x="429" y="304" on="0"/>
        <pt x="422" y="247" on="1"/>
        <pt x="537" y="251" on="0"/>
        <pt x="632" y="314" on="0"/>
      </contour>
    </TTGlyph>
    <TTGlyph name="agrave" xMin="30" yMin="-15" xMax="509" yMax="760">
      <contour>
        <pt x="509" y="60" on="1"/>
        <pt x="509" y="37" on="0"/>
        <pt x="499" y="17" on="1"/>
        <pt x="432" y="9" on="0"/>
        <pt x="378" y="-15" on="1"/>
        <pt x="363" y="-15" on="0"/>
        <pt x="342" y="7" on="0"/>
        <pt x="342" y="30" on="1"/>
        <pt x="361" y="173" on="1"/>
        <pt x="351" y="179" on="1"/>
        <pt x="314" y="89" on="0"/>
        <pt x="238" y="-10" on="0"/>
        <pt x="114" y="-10" on="0"/>
        <pt x="30" y="81" on="0"/>
        <pt x="30" y="159" on="1"/>
        <pt x="30" y="288" on="0"/>
        <pt x="184" y="480" on="0"/>
        <pt x="298" y="480" on="1"/>
        <pt x="335" y="480" on="0"/>
        <pt x="382" y="451" on="1"/>
        <pt x="384" y="469" on="0"/>
        <pt x="386" y="480" on="1"/>
        <pt x="436" y="495" on="0"/>
        <pt x="481" y="495" on="1"/>
        <pt x="462" y="418" on="0"/>
        <pt x="437" y="240" on="0"/>
        <pt x="425" y="60" on="1"/>
      </contour>
      <contour>
        <pt x="106" y="187" on="1"/>
        <pt x="106" y="143" on="0"/>
        <pt x="146" y="72" on="0"/>
        <pt x="171" y="60" on="1"/>
        <pt x="219" y="60" on="1"/>
        <pt x="277" y="71" on="0"/>
        <pt x="360" y="270" on="1"/>
        <pt x="364" y="312" on="0"/>
        <pt x="376" y="410" on="1"/>
        <pt x="216" y="410" on="1"/>
        <pt x="177" y="403" on="0"/>
        <pt x="106" y="262" on="0"/>
      </contour>
      <contour>
        <pt x="249" y="760" on="1"/>
        <pt x="293" y="696" on="0"/>
        <pt x="353" y="621" on="1"/>
        <pt x="373" y="596" on="1"/>
        <pt x="373" y="589" on="1"/>
        <pt x="324" y="570" on="1"/>
        <pt x="296" y="590" on="0"/>
        <pt x="230" y="658" on="0"/>
        <pt x="211" y="682" on="1"/>
        <pt x="192" y="705" on="1"/>
        <pt x="192" y="715" on="1"/>
        <pt x="217" y="747" on="0"/>
      </contour>
    </TTGlyph>
    <TTGlyph name="ampersand" xMin="85" yMin="-30" xMax="617" yMax="690">
      <contour>
        <pt x="410" y="690" on="0"/>
        <pt x="469" y="633" on="0"/>
        <pt x="469" y="561" on="0"/>
        <pt x="449" y="504" on="0"/>
        <pt x="426" y="468" on="0"/>
        <pt x="373" y="419" on="0"/>
        <pt x="346" y="399" on="0"/>
        <pt x="312" y="374" on="1"/>
        <pt x="371" y="278" on="0"/>
        <pt x="490" y="157" on="1"/>
        <pt x="516" y="192" on="0"/>
        <pt x="535" y="222" on="1"/>
        <pt x="564" y="212" on="0"/>
        <pt x="578" y="192" on="1"/>
        <pt x="582" y="186" on="1"/>
        <pt x="553" y="144" on="0"/>
        <pt x="530" y="116" on="1"/>
        <pt x="574" y="72" on="0"/>
        <pt x="617" y="34" on="1"/>
        <pt x="617" y="21" on="1"/>
        <pt x="553" y="-30" on="1"/>
        <pt x="508" y="13" on="0"/>
        <pt x="472" y="52" on="1"/>
        <pt x="425" y="9" on="0"/>
        <pt x="335" y="-15" on="0"/>
        <pt x="184" y="-15" on="0"/>
        <pt x="85" y="63" on="0"/>
        <pt x="85" y="213" on="0"/>
        <pt x="159" y="322" on="0"/>
        <pt x="225" y="373" on="1"/>
        <pt x="180" y="460" on="0"/>
        <pt x="180" y="593" on="0"/>
        <pt x="280" y="690" on="0"/>
      </contour>
      <contour>
        <pt x="169" y="167" on="1"/>
        <pt x="169" y="126" on="0"/>
        <pt x="210" y="67" on="0"/>
        <pt x="248" y="60" on="1"/>
        <pt x="361" y="60" on="1"/>
        <pt x="363" y="60" on="0"/>
        <pt x="377" y="64" on="0"/>
        <pt x="383" y="65" on="0"/>
        <pt x="396" y="69" on="0"/>
        <pt x="405" y="73" on="0"/>
        <pt x="411" y="76" on="1"/>
        <pt x="418" y="79" on="0"/>
        <pt x="434" y="93" on="1"/>
        <pt x="315" y="222" on="0"/>
        <pt x="252" y="327" on="1"/>
        <pt x="169" y="255" on="0"/>
      </contour>
      <contour>
        <pt x="251" y="545" on="1"/>
        <pt x="251" y="487" on="0"/>
        <pt x="287" y="418" on="1"/>
        <pt x="342" y="459" on="0"/>
        <pt x="397" y="527" on="0"/>
        <pt x="397" y="622" on="0"/>
        <pt x="368" y="635" on="1"/>
        <pt x="304" y="635" on="1"/>
        <pt x="280" y="627" on="0"/>
        <pt x="251" y="574" on="0"/>
      </contour>
    </TTGlyph>
    <TTGlyph name="aogonek" xMin="30" yMin="-245" xMax="521" yMax="495">
      <contour>
        <pt x="509" y="60" on="1"/>
        <pt x="509" y="37" on="0"/>
        <pt x="499" y="17" on="1"/>
        <pt x="398" y="-50" on="0"/>
        <pt x="398" y="-112" on="1"/>
        <pt x="398" y="-159" on="0"/>
        <pt x="426" y="-170" on="1"/>
        <pt x="521" y="-170" on="1"/>
        <pt x="521" y="-193" on="0"/>
        <pt x="511" y="-213" on="1"/>
        <pt x="430" y="-245" on="0"/>
        <pt x="377" y="-245" on="0"/>
        <pt x="326" y="-201" on="0"/>
        <pt x="326" y="-152" on="1"/>
        <pt x="326" y="-76" on="0"/>
        <pt x="406" y="-4" on="1"/>
        <pt x="396" y="-7" on="0"/>
        <pt x="378" y="-15" on="1"/>
        <pt x="363" y="-15" on="0"/>
        <pt x="342" y="7" on="0"/>
        <pt x="342" y="30" on="1"/>
        <pt x="361" y="173" on="1"/>
        <pt x="351" y="179" on="1"/>
        <pt x="314" y="89" on="0"/>
        <pt x="238" y="-10" on="0"/>
        <pt x="114" y="-10" on="0"/>
        <pt x="30" y="81" on="0"/>
        <pt x="30" y="159" on="1"/>
        <pt x="30" y="288" on="0"/>
        <pt x="184" y="480" on="0"/>
        <pt x="298" y="480" on="1"/>
        <pt x="335" y="480" on="0"/>
        <pt x="382" y="451" on="1"/>
        <pt x="384" y="469" on="0"/>
        <pt x="386" y="480" on="1"/>
        <pt x="436" y="495" on="0"/>
        <pt x="481" y="495" on="1"/>
        <pt x="462" y="418" on="0"/>
        <pt x="437" y="240" on="0"/>
        <pt x="425" y="60" on="1"/>
      </contour>
      <contour>
        <pt x="106" y="187" on="1"/>
        <pt x="106" y="143" on="0"/>
        <pt x="146" y="72" on="0"/>
        <pt x="171" y="60" on="1"/>
        <pt x="219" y="60" on="1"/>
        <pt x="277" y="71" on="0"/>
        <pt x="360" y="270" on="1"/>
        <pt x="364" y="312" on="0"/>
        <pt x="376" y="410" on="1"/>
        <pt x="216" y="410" on="1"/>
        <pt x="177" y="403" on="0"/>
        <pt x="106" y="262" on="0"/>
      </contour>
    </TTGlyph>
    <TTGlyph name="aring" xMin="30" yMin="-15" xMax="509" yMax="715">
      <contour>
        <pt x="509" y="60" on="1"/>
        <pt x="509" y="37" on="0"/>
        <pt x="499" y="17" on="1"/>
        <pt x="432" y="9" on="0"/>
        <pt x="378" y="-15" on="1"/>
        <pt x="363" y="-15" on="0"/>
        <pt x="342" y="7" on="0"/>
        <pt x="342" y="30" on="1"/>
        <pt x="361" y="173" on="1"/>
        <pt x="351" y="179" on="1"/>
        <pt x="314" y="89" on="0"/>
        <pt x="238" y="-10" on="0"/>
        <pt x="114" y="-10" on="0"/>
        <pt x="30" y="81" on="0"/>
        <pt x="30" y="159" on="1"/>
        <pt x="30" y="288" on="0"/>
        <pt x="184" y="480" on="0"/>
        <pt x="298" y="480" on="1"/>
        <pt x="335" y="480" on="0"/>
        <pt x="382" y="451" on="1"/>
        <pt x="384" y="469" on="0"/>
        <pt x="386" y="480" on="1"/>
        <pt x="436" y="495" on="0"/>
        <pt x="481" y="495" on="1"/>
        <pt x="462" y="418" on="0"/>
        <pt x="437" y="240" on="0"/>
        <pt x="425" y="60" on="1"/>
      </contour>
      <contour>
        <pt x="106" y="187" on="1"/>
        <pt x="106" y="143" on="0"/>
        <pt x="146" y="72" on="0"/>
        <pt x="171" y="60" on="1"/>
        <pt x="219" y="60" on="1"/>
        <pt x="277" y="71" on="0"/>
        <pt x="360" y="270" on="1"/>
        <pt x="364" y="312" on="0"/>
        <pt x="376" y="410" on="1"/>
        <pt x="216" y="410" on="1"/>
        <pt x="177" y="403" on="0"/>
        <pt x="106" y="262" on="0"/>
      </contour>
      <contour>
        <pt x="248" y="658" on="0"/>
        <pt x="294" y="715" on="0"/>
        <pt x="363" y="715" on="0"/>
        <pt x="400" y="684" on="0"/>
        <pt x="400" y="617" on="0"/>
        <pt x="354" y="560" on="0"/>
        <pt x="319" y="560" on="1"/>
        <pt x="248" y="560" on="0"/>
        <pt x="248" y="621" on="1"/>
      </contour>
      <contour>
        <pt x="336" y="672" on="1"/>
        <pt x="317" y="672" on="1"/>
        <pt x="308" y="670" on="0"/>
        <pt x="292" y="649" on="0"/>
        <pt x="291" y="608" on="0"/>
        <pt x="310" y="604" on="1"/>
        <pt x="329" y="604" on="1"/>
        <pt x="338" y="606" on="0"/>
        <pt x="354" y="627" on="0"/>
        <pt x="355" y="668" on="0"/>
      </contour>
    </TTGlyph>
    <TTGlyph name="asciicircum" xMin="65" yMin="380" xMax="430" yMax="690">
      <contour>
        <pt x="65" y="421" on="1"/>
        <pt x="252" y="690" on="1"/>
        <pt x="267" y="686" on="1"/>
        <pt x="430" y="431" on="1"/>
        <pt x="404" y="393" on="0"/>
        <pt x="388" y="380" on="1"/>
        <pt x="378" y="380" on="1"/>
        <pt x="241" y="597" on="1"/>
        <pt x="96" y="380" on="1"/>
        <pt x="84" y="385" on="0"/>
        <pt x="74" y="400" on="1"/>
      </contour>
    </TTGlyph>
    <TTGlyph name="asciitilde" xMin="67" yMin="262" xMax="393" yMax="372">
      <contour>
        <pt x="376" y="269" on="1"/>
        <pt x="355" y="262" on="0"/>
        <pt x="291" y="262" on="0"/>
        <pt x="162" y="300" on="0"/>
        <pt x="153" y="300" on="1"/>
        <pt x="130" y="300" on="1"/>
        <pt x="119" y="288" on="0"/>
        <pt x="111" y="269" on="1"/>
        <pt x="74" y="269" on="1"/>
        <pt x="67" y="277" on="1"/>
        <pt x="84" y="365" on="1"/>
        <pt x="105" y="372" on="0"/>
        <pt x="166" y="372" on="0"/>
        <pt x="298" y="334" on="0"/>
        <pt x="307" y="334" on="1"/>
        <pt x="330" y="334" on="1"/>
        <pt x="341" y="346" on="0"/>
        <pt x="349" y="365" on="1"/>
        <pt x="386" y="365" on="1"/>
        <pt x="393" y="357" on="1"/>
      </contour>
    </TTGlyph>
    <TTGlyph name="asterisk" xMin="44" yMin="415" xMax="318" yMax="700">
      <contour>
        <pt x="135" y="543" on="1"/>
        <pt x="99" y="566" on="0"/>
        <pt x="44" y="592" on="1"/>
        <pt x="67" y="638" on="1"/>
        <pt x="78" y="638" on="1"/>
        <pt x="162" y="582" on="1"/>
        <pt x="165" y="587" on="1"/>
        <pt x="165" y="635" on="0"/>
        <pt x="161" y="682" on="0"/>
        <pt x="161" y="690" on="1"/>
        <pt x="225" y="700" on="1"/>
        <pt x="230" y="690" on="1"/>
        <pt x="217" y="663" on="0"/>
        <pt x="209" y="584" on="1"/>
        <pt x="230" y="593" on="0"/>
        <pt x="294" y="621" on="0"/>
        <pt x="307" y="626" on="1"/>
        <pt x="318" y="590" on="1"/>
        <pt x="311" y="581" on="1"/>
        <pt x="257" y="564" on="0"/>
        <pt x="222" y="549" on="1"/>
        <pt x="255" y="495" on="0"/>
        <pt x="288" y="451" on="1"/>
        <pt x="288" y="440" on="1"/>
        <pt x="229" y="415" on="1"/>
        <pt x="177" y="515" on="1"/>
        <pt x="123" y="430" on="1"/>
        <pt x="56" y="430" on="1"/>
        <pt x="52" y="440" on="1"/>
        <pt x="117" y="514" on="0"/>
      </contour>
    </TTGlyph>
    <TTGlyph name="at" xMin="140" yMin="-244" xMax="1088" yMax="715">
      <contour>
        <pt x="1047" y="554" on="0"/>
        <pt x="1088" y="433" on="0"/>
        <pt x="1088" y="258" on="0"/>
        <pt x="1027" y="98" on="0"/>
        <pt x="967" y="12" on="1"/>
        <pt x="834" y="12" on="0"/>
        <pt x="722" y="-15" on="1"/>
        <pt x="686" y="-15" on="0"/>
        <pt x="686" y="30" on="1"/>
        <pt x="705" y="173" on="1"/>
        <pt x="695" y="179" on="1"/>
        <pt x="658" y="89" on="0"/>
        <pt x="582" y="-10" on="0"/>
        <pt x="458" y="-10" on="0"/>
        <pt x="374" y="81" on="0"/>
        <pt x="374" y="159" on="1"/>
        <pt x="374" y="288" on="0"/>
        <pt x="528" y="480" on="0"/>
        <pt x="642" y="480" on="1"/>
        <pt x="679" y="480" on="0"/>
        <pt x="726" y="451" on="1"/>
        <pt x="728" y="469" on="0"/>
        <pt x="730" y="480" on="1"/>
        <pt x="780" y="495" on="0"/>
        <pt x="825" y="495" on="1"/>
        <pt x="806" y="418" on="0"/>
        <pt x="781" y="240" on="0"/>
        <pt x="769" y="60" on="1"/>
        <pt x="936" y="60" on="1"/>
        <pt x="945" y="69" on="0"/>
        <pt x="975" y="121" on="0"/>
        <pt x="984" y="148" on="1"/>
        <pt x="1010" y="219" on="0"/>
        <pt x="1010" y="311" on="1"/>
        <pt x="1010" y="438" on="0"/>
        <pt x="892" y="611" on="0"/>
        <pt x="799" y="633" on="1"/>
        <pt x="538" y="633" on="1"/>
        <pt x="415" y="574" on="0"/>
        <pt x="228" y="300" on="0"/>
        <pt x="228" y="163" on="1"/>
        <pt x="228" y="-14" on="0"/>
        <pt x="308" y="-86" on="1"/>
        <pt x="348" y="-123" on="0"/>
        <pt x="444" y="-160" on="0"/>
        <pt x="512" y="-168" on="1"/>
        <pt x="810" y="-168" on="1"/>
        <pt x="810" y="-190" on="0"/>
        <pt x="789" y="-211" on="1"/>
        <pt x="584" y="-244" on="0"/>
        <pt x="527" y="-244" on="1"/>
        <pt x="334" y="-244" on="0"/>
        <pt x="140" y="-66" on="0"/>
        <pt x="140" y="105" on="1"/>
        <pt x="140" y="221" on="0"/>
        <pt x="225" y="441" on="0"/>
        <pt x="377" y="612" on="0"/>
        <pt x="604" y="715" on="0"/>
        <pt x="737" y="715" on="1"/>
        <pt x="826" y="715" on="0"/>
        <pt x="965" y="655" on="0"/>
      </contour>
      <contour>
        <pt x="450" y="187" on="1"/>
        <pt x="450" y="143" on="0"/>
        <pt x="490" y="72" on="0"/>
        <pt x="515" y="60" on="1"/>
        <pt x="563" y="60" on="1"/>
        <pt x="621" y="71" on="0"/>
        <pt x="704" y="270" on="1"/>
        <pt x="708" y="312" on="0"/>
        <pt x="720" y="410" on="1"/>
        <pt x="560" y="410" on="1"/>
        <pt x="521" y="403" on="0"/>
        <pt x="450" y="262" on="0"/>
      </contour>
    </TTGlyph>
    <TTGlyph name="atilde" xMin="30" yMin="-15" xMax="509" yMax="690">
      <contour>
        <pt x="509" y="60" on="1"/>
        <pt x="509" y="37" on="0"/>
        <pt x="499" y="17" on="1"/>
        <pt x="432" y="9" on="0"/>
        <pt x="378" y="-15" on="1"/>
        <pt x="363" y="-15" on="0"/>
        <pt x="342" y="7" on="0"/>
        <pt x="342" y="30" on="1"/>
        <pt x="361" y="173" on="1"/>
        <pt x="351" y="179" on="1"/>
        <pt x="314" y="89" on="0"/>
        <pt x="238" y="-10" on="0"/>
        <pt x="114" y="-10" on="0"/>
        <pt x="30" y="81" on="0"/>
        <pt x="30" y="159" on="1"/>
        <pt x="30" y="288" on="0"/>
        <pt x="184" y="480" on="0"/>
        <pt x="298" y="480" on="1"/>
        <pt x="335" y="480" on="0"/>
        <pt x="382" y="451" on="1"/>
        <pt x="384" y="469" on="0"/>
        <pt x="386" y="480" on="1"/>
        <pt x="436" y="495" on="0"/>
        <pt x="481" y="495" on="1"/>
        <pt x="462" y="418" on="0"/>
        <pt x="437" y="240" on="0"/>
        <pt x="425" y="60" on="1"/>
      </contour>
      <contour>
        <pt x="106" y="187" on="1"/>
        <pt x="106" y="143" on="0"/>
        <pt x="146" y="72" on="0"/>
        <pt x="171" y="60" on="1"/>
        <pt x="219" y="60" on="1"/>
        <pt x="277" y="71" on="0"/>
        <pt x="360" y="270" on="1"/>
        <pt x="364" y="312" on="0"/>
        <pt x="376" y="410" on="1"/>
        <pt x="216" y="410" on="1"/>
        <pt x="177" y="403" on="0"/>
        <pt x="106" y="262" on="0"/>
      </contour>
      <contour>
        <pt x="442" y="587" on="1"/>
        <pt x="421" y="580" on="0"/>
        <pt x="364" y="580" on="0"/>
        <pt x="259" y="618" on="0"/>
        <pt x="249" y="618" on="1"/>
        <pt x="226" y="618" on="1"/>
        <pt x="215" y="606" on="0"/>
        <pt x="207" y="587" on="1"/>
        <pt x="170" y="587" on="1"/>
        <pt x="163" y="595" on="1"/>
        <pt x="180" y="683" on="1"/>
        <pt x="201" y="690" on="0"/>
        <pt x="255" y="690" on="0"/>
        <pt x="362" y="652" on="0"/>
        <pt x="373" y="652" on="1"/>
        <pt x="396" y="652" on="1"/>
        <pt x="407" y="664" on="0"/>
        <pt x="415" y="683" on="1"/>
        <pt x="452" y="683" on="1"/>
        <pt x="459" y="675" on="1"/>
      </contour>
    </TTGlyph>
    <TTGlyph name="b" xMin="34" yMin="-10" xMax="477" yMax="790">
      <contour>
        <pt x="34" y="715" on="1"/>
        <pt x="34" y="738" on="0"/>
        <pt x="44" y="758" on="1"/>
        <pt x="101" y="766" on="0"/>
        <pt x="155" y="790" on="1"/>
        <pt x="169" y="790" on="0"/>
        <pt x="191" y="765" on="0"/>
        <pt x="191" y="745" on="1"/>
        <pt x="146" y="297" on="1"/>
        <pt x="156" y="291" on="1"/>
        <pt x="193" y="381" on="0"/>
        <pt x="269" y="480" on="0"/>
        <pt x="393" y="480" on="0"/>
        <pt x="477" y="389" on="0"/>
        <pt x="477" y="311" on="1"/>
        <pt x="477" y="182" on="0"/>
        <pt x="323" y="-10" on="0"/>
        <pt x="209" y="-10" on="1"/>
        <pt x="53" y="0" on="1"/>
        <pt x="34" y="0" on="1"/>
        <pt x="50" y="67" on="0"/>
        <pt x="54" y="98" on="1"/>
        <pt x="75" y="248" on="0"/>
        <pt x="107" y="715" on="1"/>
      </contour>
      <contour>
        <pt x="401" y="283" on="1"/>
        <pt x="401" y="327" on="0"/>
        <pt x="361" y="398" on="0"/>
        <pt x="336" y="410" on="1"/>
        <pt x="288" y="410" on="1"/>
        <pt x="249" y="402" on="0"/>
        <pt x="204" y="322" on="1"/>
        <pt x="170" y="259" on="0"/>
        <pt x="149" y="206" on="1"/>
        <pt x="146" y="159" on="0"/>
        <pt x="134" y="60" on="1"/>
        <pt x="291" y="60" on="1"/>
        <pt x="330" y="67" on="0"/>
        <pt x="401" y="208" on="0"/>
      </contour>
    </TTGlyph>
    <TTGlyph name="backslash" xMin="24" yMin="-150" xMax="376" yMax="716">
      <contour>
        <pt x="24" y="711" on="1"/>
        <pt x="39" y="716" on="0"/>
        <pt x="52" y="716" on="1"/>
        <pt x="82" y="716" on="0"/>
        <pt x="94" y="711" on="1"/>
        <pt x="115" y="620" on="0"/>
        <pt x="292" y="80" on="0"/>
        <pt x="376" y="-134" on="1"/>
        <pt x="372" y="-150" on="1"/>
        <pt x="280" y="-134" on="1"/>
        <pt x="159" y="305" on="0"/>
      </contour>
    </TTGlyph>
    <TTGlyph name="bar" xMin="126" yMin="-200" xMax="286" yMax="696">
      <contour>
        <pt x="154" y="-200" on="1"/>
        <pt x="126" y="-195" on="1"/>
        <pt x="136" y="-134" on="0"/>
        <pt x="194" y="539" on="0"/>
        <pt x="194" y="680" on="1"/>
        <pt x="272" y="696" on="1"/>
        <pt x="286" y="680" on="1"/>
        <pt x="269" y="580" on="0"/>
        <pt x="193" y="-133" on="0"/>
        <pt x="193" y="-195" on="1"/>
        <pt x="175" y="-200" on="0"/>
      </contour>
    </TTGlyph>
    <TTGlyph name="braceleft" xMin="54" yMin="-149" xMax="333" yMax="690">
      <contour>
        <pt x="250" y="690" on="1"/>
        <pt x="283" y="690" on="0"/>
        <pt x="320" y="680" on="1"/>
        <pt x="333" y="676" on="1"/>
        <pt x="329" y="651" on="1"/>
        <pt x="278" y="651" on="1"/>
        <pt x="256" y="646" on="0"/>
        <pt x="236" y="627" on="0"/>
        <pt x="228" y="587" on="0"/>
        <pt x="213" y="429" on="0"/>
        <pt x="200" y="359" on="0"/>
        <pt x="155" y="298" on="0"/>
        <pt x="134" y="284" on="1"/>
        <pt x="155" y="271" on="0"/>
        <pt x="191" y="218" on="0"/>
        <pt x="191" y="146" on="0"/>
        <pt x="171" y="-47" on="0"/>
        <pt x="171" y="-67" on="1"/>
        <pt x="171" y="-99" on="0"/>
        <pt x="202" y="-110" on="1"/>
        <pt x="254" y="-110" on="1"/>
        <pt x="250" y="-136" on="1"/>
        <pt x="212" y="-149" on="0"/>
        <pt x="141" y="-149" on="0"/>
        <pt x="104" y="-114" on="0"/>
        <pt x="104" y="-55" on="0"/>
        <pt x="127" y="113" on="0"/>
        <pt x="127" y="190" on="0"/>
        <pt x="90" y="241" on="0"/>
        <pt x="72" y="252" on="1"/>
        <pt x="54" y="263" on="1"/>
        <pt x="54" y="286" on="0"/>
        <pt x="64" y="306" on="1"/>
        <pt x="72" y="311" on="0"/>
        <pt x="94" y="328" on="0"/>
        <pt x="138" y="384" on="0"/>
        <pt x="143" y="412" on="1"/>
        <pt x="157" y="463" on="0"/>
        <pt x="164" y="602" on="0"/>
        <pt x="168" y="623" on="1"/>
        <pt x="187" y="690" on="0"/>
      </contour>
    </TTGlyph>
    <TTGlyph name="braceright" xMin="-10" yMin="-149" xMax="269" yMax="690">
      <contour>
        <pt x="73" y="-149" on="1"/>
        <pt x="40" y="-149" on="0"/>
        <pt x="2" y="-138" on="1"/>
        <pt x="-10" y="-135" on="1"/>
        <pt x="-6" y="-110" on="1"/>
        <pt x="45" y="-110" on="1"/>
        <pt x="67" y="-105" on="0"/>
        <pt x="87" y="-86" on="0"/>
        <pt x="95" y="-46" on="0"/>
        <pt x="110" y="112" on="0"/>
        <pt x="123" y="182" on="0"/>
        <pt x="168" y="243" on="0"/>
        <pt x="189" y="257" on="1"/>
        <pt x="168" y="270" on="0"/>
        <pt x="132" y="323" on="0"/>
        <pt x="132" y="395" on="0"/>
        <pt x="152" y="588" on="0"/>
        <pt x="152" y="608" on="1"/>
        <pt x="152" y="640" on="0"/>
        <pt x="121" y="651" on="1"/>
        <pt x="69" y="651" on="1"/>
        <pt x="73" y="677" on="1"/>
        <pt x="111" y="690" on="0"/>
        <pt x="182" y="690" on="0"/>
        <pt x="219" y="655" on="0"/>
        <pt x="219" y="596" on="0"/>
        <pt x="196" y="428" on="0"/>
        <pt x="196" y="351" on="0"/>
        <pt x="232" y="300" on="0"/>
        <pt x="250" y="289" on="1"/>
        <pt x="269" y="278" on="1"/>
        <pt x="269" y="255" on="0"/>
        <pt x="259" y="235" on="1"/>
        <pt x="251" y="230" on="0"/>
        <pt x="229" y="213" on="0"/>
        <pt x="185" y="157" on="0"/>
        <pt x="180" y="129" on="1"/>
        <pt x="166" y="78" on="0"/>
        <pt x="159" y="-61" on="0"/>
        <pt x="155" y="-82" on="1"/>
        <pt x="136" y="-149" on="0"/>
      </contour>
    </TTGlyph>
    <TTGlyph name="bracketleft" xMin="70" yMin="-150" xMax="323" yMax="690">
      <contour>
        <pt x="319" y="646" on="1"/>
        <pt x="219" y="646" on="1"/>
        <pt x="197" y="515" on="0"/>
        <pt x="158" y="46" on="0"/>
        <pt x="157" y="-107" on="1"/>
        <pt x="244" y="-107" on="1"/>
        <pt x="241" y="-139" on="1"/>
        <pt x="152" y="-150" on="0"/>
        <pt x="70" y="-150" on="1"/>
        <pt x="74" y="-96" on="0"/>
        <pt x="90" y="82" on="1"/>
        <pt x="131" y="525" on="0"/>
        <pt x="138" y="690" on="1"/>
        <pt x="323" y="678" on="1"/>
      </contour>
    </TTGlyph>
    <TTGlyph name="bracketright" xMin="7" yMin="-150" xMax="259" yMax="690">
      <contour>
        <pt x="11" y="-106" on="1"/>
        <pt x="111" y="-106" on="1"/>
        <pt x="133" y="25" on="0"/>
        <pt x="172" y="494" on="0"/>
        <pt x="173" y="647" on="1"/>
        <pt x="86" y="647" on="1"/>
        <pt x="89" y="679" on="1"/>
        <pt x="177" y="690" on="0"/>
        <pt x="259" y="690" on="1"/>
        <pt x="255" y="636" on="0"/>
        <pt x="238" y="458" on="1"/>
        <pt x="198" y="15" on="0"/>
        <pt x="191" y="-150" on="1"/>
        <pt x="7" y="-140" on="1"/>
      </contour>
    </TTGlyph>
    <TTGlyph name="brokenbar" xMin="120" yMin="-200" xMax="286" yMax="696">
      <contour>
        <pt x="195" y="286" on="1"/>
        <pt x="171" y="291" on="1"/>
        <pt x="194" y="475" on="0"/>
        <pt x="194" y="680" on="1"/>
        <pt x="272" y="696" on="1"/>
        <pt x="286" y="680" on="1"/>
        <pt x="245" y="436" on="0"/>
        <pt x="236" y="291" on="1"/>
        <pt x="216" y="286" on="0"/>
      </contour>
      <contour>
        <pt x="120" y="-195" on="1"/>
        <pt x="129" y="-143" on="0"/>
        <pt x="160" y="124" on="0"/>
        <pt x="163" y="192" on="1"/>
        <pt x="180" y="197" on="0"/>
        <pt x="201" y="197" on="1"/>
        <pt x="229" y="192" on="1"/>
        <pt x="187" y="-116" on="0"/>
        <pt x="187" y="-195" on="1"/>
        <pt x="169" y="-200" on="0"/>
        <pt x="148" y="-200" on="1"/>
      </contour>
    </TTGlyph>
    <TTGlyph name="bullet" xMin="30" yMin="179" xMax="181" yMax="310">
      <contour>
        <pt x="43" y="284" on="0"/>
        <pt x="95" y="310" on="0"/>
        <pt x="150" y="310" on="0"/>
        <pt x="181" y="285" on="0"/>
        <pt x="181" y="270" on="1"/>
        <pt x="174" y="220" on="1"/>
        <pt x="167" y="200" on="0"/>
        <pt x="117" y="179" on="0"/>
        <pt x="60" y="179" on="0"/>
        <pt x="30" y="203" on="0"/>
        <pt x="30" y="220" on="1"/>
        <pt x="35" y="263" on="1"/>
      </contour>
    </TTGlyph>
    <TTGlyph name="c" xMin="29" yMin="-10" xMax="404" yMax="480">
      <contour>
        <pt x="364" y="60" on="1"/>
        <pt x="364" y="37" on="0"/>
        <pt x="354" y="17" on="1"/>
        <pt x="248" y="-10" on="0"/>
        <pt x="202" y="-10" on="1"/>
        <pt x="116" y="-10" on="0"/>
        <pt x="29" y="79" on="0"/>
        <pt x="29" y="250" on="0"/>
        <pt x="88" y="386" on="0"/>
        <pt x="210" y="480" on="0"/>
        <pt x="289" y="480" on="1"/>
        <pt x="327" y="480" on="0"/>
        <pt x="390" y="452" on="0"/>
        <pt x="404" y="440" on="1"/>
        <pt x="383" y="403" on="0"/>
        <pt x="370" y="350" on="1"/>
        <pt x="365" y="333" on="1"/>
        <pt x="345" y="324" on="0"/>
        <pt x="316" y="324" on="1"/>
        <pt x="325" y="364" on="0"/>
        <pt x="325" y="404" on="0"/>
        <pt x="310" y="410" on="1"/>
        <pt x="205" y="410" on="1"/>
        <pt x="164" y="394" on="0"/>
        <pt x="103" y="275" on="0"/>
        <pt x="103" y="208" on="1"/>
        <pt x="103" y="130" on="0"/>
        <pt x="132" y="96" on="1"/>
        <pt x="157" y="67" on="0"/>
        <pt x="178" y="62" on="1"/>
        <pt x="186" y="60" on="1"/>
      </contour>
    </TTGlyph>
    <TTGlyph name="cacute" xMin="29" yMin="-10" xMax="426" yMax="740">
      <contour>
        <pt x="364" y="60" on="1"/>
        <pt x="364" y="37" on="0"/>
        <pt x="354" y="17" on="1"/>
        <pt x="248" y="-10" on="0"/>
        <pt x="202" y="-10" on="1"/>
        <pt x="116" y="-10" on="0"/>
        <pt x="29" y="79" on="0"/>
        <pt x="29" y="250" on="0"/>
        <pt x="88" y="386" on="0"/>
        <pt x="210" y="480" on="0"/>
        <pt x="289" y="480" on="1"/>
        <pt x="327" y="480" on="0"/>
        <pt x="390" y="452" on="0"/>
        <pt x="404" y="440" on="1"/>
        <pt x="383" y="403" on="0"/>
        <pt x="370" y="350" on="1"/>
        <pt x="365" y="333" on="1"/>
        <pt x="345" y="324" on="0"/>
        <pt x="316" y="324" on="1"/>
        <pt x="325" y="364" on="0"/>
        <pt x="325" y="404" on="0"/>
        <pt x="310" y="410" on="1"/>
        <pt x="205" y="410" on="1"/>
        <pt x="164" y="394" on="0"/>
        <pt x="103" y="275" on="0"/>
        <pt x="103" y="208" on="1"/>
        <pt x="103" y="130" on="0"/>
        <pt x="132" y="96" on="1"/>
        <pt x="157" y="67" on="0"/>
        <pt x="178" y="62" on="1"/>
        <pt x="186" y="60" on="1"/>
      </contour>
      <contour>
        <pt x="356" y="740" on="1"/>
        <pt x="389" y="734" on="0"/>
        <pt x="426" y="715" on="1"/>
        <pt x="426" y="705" on="1"/>
        <pt x="352" y="616" on="0"/>
        <pt x="284" y="570" on="1"/>
        <pt x="235" y="589" on="1"/>
        <pt x="235" y="596" on="1"/>
        <pt x="307" y="667" on="0"/>
      </contour>
    </TTGlyph>
    <TTGlyph name="caron" xMin="53" yMin="558" xMax="336" yMax="728">
      <contour>
        <pt x="216" y="585" on="1"/>
        <pt x="163" y="558" on="1"/>
        <pt x="116" y="632" on="0"/>
        <pt x="53" y="696" on="1"/>
        <pt x="53" y="704" on="1"/>
        <pt x="105" y="728" on="1"/>
        <pt x="162" y="677" on="0"/>
        <pt x="193" y="627" on="1"/>
        <pt x="241" y="679" on="0"/>
        <pt x="292" y="715" on="1"/>
        <pt x="336" y="704" on="1"/>
        <pt x="336" y="696" on="1"/>
        <pt x="268" y="650" on="0"/>
      </contour>
    </TTGlyph>
    <TTGlyph name="caron.cap" xMin="53" yMin="736" xMax="336" yMax="906">
      <contour>
        <pt x="216" y="763" on="1"/>
        <pt x="163" y="736" on="1"/>
        <pt x="116" y="810" on="0"/>
        <pt x="53" y="874" on="1"/>
        <pt x="53" y="882" on="1"/>
        <pt x="105" y="906" on="1"/>
        <pt x="162" y="855" on="0"/>
        <pt x="193" y="805" on="1"/>
        <pt x="241" y="857" on="0"/>
        <pt x="292" y="893" on="1"/>
        <pt x="336" y="882" on="1"/>
        <pt x="336" y="874" on="1"/>
        <pt x="268" y="828" on="0"/>
      </contour>
    </TTGlyph>
    <TTGlyph name="ccedilla" xMin="29" yMin="-190" xMax="404" yMax="480">
      <contour>
        <pt x="137" y="-190" on="1"/>
        <pt x="143" y="-172" on="0"/>
        <pt x="157" y="-152" on="1"/>
        <pt x="192" y="-152" on="0"/>
        <pt x="226" y="-125" on="0"/>
        <pt x="226" y="-89" on="0"/>
        <pt x="215" y="-81" on="1"/>
        <pt x="173" y="-81" on="1"/>
        <pt x="167" y="-72" on="1"/>
        <pt x="188" y="-9" on="1"/>
        <pt x="109" y="-6" on="0"/>
        <pt x="29" y="82" on="0"/>
        <pt x="29" y="250" on="0"/>
        <pt x="88" y="386" on="0"/>
        <pt x="210" y="480" on="0"/>
        <pt x="289" y="480" on="1"/>
        <pt x="327" y="480" on="0"/>
        <pt x="390" y="452" on="0"/>
        <pt x="404" y="440" on="1"/>
        <pt x="383" y="403" on="0"/>
        <pt x="370" y="350" on="1"/>
        <pt x="365" y="333" on="1"/>
        <pt x="345" y="324" on="0"/>
        <pt x="316" y="324" on="1"/>
        <pt x="325" y="364" on="0"/>
        <pt x="325" y="404" on="0"/>
        <pt x="310" y="410" on="1"/>
        <pt x="205" y="410" on="1"/>
        <pt x="164" y="394" on="0"/>
        <pt x="103" y="275" on="0"/>
        <pt x="103" y="208" on="1"/>
        <pt x="103" y="130" on="0"/>
        <pt x="132" y="96" on="1"/>
        <pt x="157" y="67" on="0"/>
        <pt x="178" y="62" on="1"/>
        <pt x="186" y="60" on="1"/>
        <pt x="364" y="60" on="1"/>
        <pt x="364" y="37" on="0"/>
        <pt x="354" y="17" on="1"/>
        <pt x="279" y="-2" on="0"/>
        <pt x="228" y="-8" on="1"/>
        <pt x="223" y="-34" on="1"/>
        <pt x="256" y="-34" on="1"/>
        <pt x="284" y="-50" on="0"/>
        <pt x="284" y="-84" on="1"/>
        <pt x="284" y="-132" on="0"/>
        <pt x="201" y="-189" on="0"/>
      </contour>
    </TTGlyph>
    <TTGlyph name="cedilla" xMin="125" yMin="-190" xMax="272" yMax="0">
      <contour>
        <pt x="125" y="-190" on="1"/>
        <pt x="131" y="-172" on="0"/>
        <pt x="145" y="-152" on="1"/>
        <pt x="180" y="-152" on="0"/>
        <pt x="214" y="-125" on="0"/>
        <pt x="214" y="-89" on="0"/>
        <pt x="203" y="-81" on="1"/>
        <pt x="161" y="-81" on="1"/>
        <pt x="155" y="-72" on="1"/>
        <pt x="178" y="-3" on="1"/>
        <pt x="190" y="0" on="0"/>
        <pt x="199" y="0" on="1"/>
        <pt x="217" y="-3" on="1"/>
        <pt x="211" y="-34" on="1"/>
        <pt x="244" y="-34" on="1"/>
        <pt x="272" y="-50" on="0"/>
        <pt x="272" y="-84" on="1"/>
        <pt x="272" y="-132" on="0"/>
        <pt x="189" y="-189" on="0"/>
      </contour>
    </TTGlyph>
    <TTGlyph name="cent" xMin="29" yMin="-65" xMax="404" yMax="553">
      <contour>
        <pt x="157" y="-60" on="1"/>
        <pt x="165" y="1" on="1"/>
        <pt x="97" y="9" on="0"/>
        <pt x="29" y="90" on="0"/>
        <pt x="29" y="269" on="0"/>
        <pt x="126" y="436" on="0"/>
        <pt x="209" y="466" on="1"/>
        <pt x="211" y="492" on="0"/>
        <pt x="211" y="537" on="1"/>
        <pt x="282" y="553" on="1"/>
        <pt x="296" y="537" on="1"/>
        <pt x="287" y="480" on="1"/>
        <pt x="326" y="480" on="0"/>
        <pt x="390" y="452" on="0"/>
        <pt x="404" y="440" on="1"/>
        <pt x="383" y="403" on="0"/>
        <pt x="370" y="350" on="1"/>
        <pt x="365" y="333" on="1"/>
        <pt x="345" y="324" on="0"/>
        <pt x="316" y="324" on="1"/>
        <pt x="325" y="364" on="0"/>
        <pt x="325" y="404" on="0"/>
        <pt x="310" y="410" on="1"/>
        <pt x="276" y="410" on="1"/>
        <pt x="246" y="207" on="0"/>
        <pt x="233" y="70" on="1"/>
        <pt x="364" y="70" on="1"/>
        <pt x="364" y="47" on="0"/>
        <pt x="354" y="27" on="1"/>
        <pt x="279" y="7" on="0"/>
        <pt x="228" y="1" on="1"/>
        <pt x="224" y="-41" on="0"/>
        <pt x="224" y="-60" on="1"/>
        <pt x="206" y="-65" on="0"/>
        <pt x="185" y="-65" on="1"/>
      </contour>
      <contour>
        <pt x="103" y="208" on="1"/>
        <pt x="103" y="91" on="0"/>
        <pt x="174" y="72" on="1"/>
        <pt x="194" y="252" on="0"/>
        <pt x="206" y="410" on="1"/>
        <pt x="164" y="394" on="0"/>
        <pt x="103" y="275" on="0"/>
      </contour>
    </TTGlyph>
    <TTGlyph name="circumflex" xMin="53" yMin="570" xMax="336" yMax="740">
      <contour>
        <pt x="173" y="713" on="1"/>
        <pt x="226" y="740" on="1"/>
        <pt x="273" y="666" on="0"/>
        <pt x="336" y="602" on="1"/>
        <pt x="336" y="594" on="1"/>
        <pt x="284" y="570" on="1"/>
        <pt x="230" y="616" on="0"/>
        <pt x="197" y="667" on="1"/>
        <pt x="157" y="621" on="0"/>
        <pt x="97" y="583" on="1"/>
        <pt x="53" y="594" on="1"/>
        <pt x="53" y="602" on="1"/>
        <pt x="142" y="666" on="0"/>
      </contour>
    </TTGlyph>
    <TTGlyph name="circumflex.cap" xMin="53" yMin="735" xMax="336" yMax="905">
      <contour>
        <pt x="173" y="878" on="1"/>
        <pt x="226" y="905" on="1"/>
        <pt x="273" y="831" on="0"/>
        <pt x="336" y="767" on="1"/>
        <pt x="336" y="759" on="1"/>
        <pt x="284" y="735" on="1"/>
        <pt x="230" y="781" on="0"/>
        <pt x="197" y="832" on="1"/>
        <pt x="157" y="786" on="0"/>
        <pt x="97" y="748" on="1"/>
        <pt x="53" y="759" on="1"/>
        <pt x="53" y="767" on="1"/>
        <pt x="142" y="831" on="0"/>
      </contour>
    </TTGlyph>
    <TTGlyph name="colon" xMin="70" yMin="-10" xMax="212" yMax="450">
      <contour>
        <pt x="79" y="66" on="0"/>
        <pt x="117" y="85" on="0"/>
        <pt x="157" y="85" on="0"/>
        <pt x="180" y="67" on="0"/>
        <pt x="180" y="56" on="1"/>
        <pt x="175" y="20" on="1"/>
        <pt x="164" y="-10" on="0"/>
        <pt x="111" y="-10" on="1"/>
        <pt x="91" y="-10" on="0"/>
        <pt x="70" y="8" on="0"/>
        <pt x="70" y="20" on="1"/>
        <pt x="74" y="51" on="1"/>
      </contour>
      <contour>
        <pt x="111" y="431" on="0"/>
        <pt x="149" y="450" on="0"/>
        <pt x="189" y="450" on="0"/>
        <pt x="212" y="432" on="0"/>
        <pt x="212" y="421" on="1"/>
        <pt x="207" y="385" on="1"/>
        <pt x="196" y="355" on="0"/>
        <pt x="143" y="355" on="1"/>
        <pt x="123" y="355" on="0"/>
        <pt x="102" y="373" on="0"/>
        <pt x="102" y="385" on="1"/>
        <pt x="106" y="416" on="1"/>
      </contour>
    </TTGlyph>
    <TTGlyph name="comma" xMin="20" yMin="-174" xMax="169" yMax="118">
      <contour>
        <pt x="49" y="-174" on="1"/>
        <pt x="34" y="-169" on="0"/>
        <pt x="20" y="-155" on="1"/>
        <pt x="20" y="-143" on="1"/>
        <pt x="48" y="-119" on="0"/>
        <pt x="92" y="-48" on="0"/>
        <pt x="92" y="1" on="0"/>
        <pt x="72" y="40" on="0"/>
        <pt x="63" y="40" on="1"/>
        <pt x="63" y="71" on="1"/>
        <pt x="102" y="84" on="0"/>
        <pt x="143" y="118" on="1"/>
        <pt x="150" y="118" on="1"/>
        <pt x="169" y="89" on="0"/>
        <pt x="169" y="11" on="0"/>
        <pt x="109" y="-105" on="0"/>
        <pt x="79" y="-140" on="1"/>
      </contour>
    </TTGlyph>
    <TTGlyph name="commaaccent" xMin="49" yMin="-288" xMax="174" yMax="-53">
      <contour>
        <pt x="78" y="-288" on="1"/>
        <pt x="63" y="-283" on="0"/>
        <pt x="49" y="-269" on="1"/>
        <pt x="49" y="-257" on="1"/>
        <pt x="54" y="-253" on="0"/>
        <pt x="70" y="-239" on="0"/>
        <pt x="97" y="-189" on="0"/>
        <pt x="97" y="-141" on="0"/>
        <pt x="77" y="-108" on="0"/>
        <pt x="68" y="-108" on="1"/>
        <pt x="68" y="-77" on="1"/>
        <pt x="112" y="-67" on="0"/>
        <pt x="143" y="-53" on="1"/>
        <pt x="160" y="-53" on="1"/>
        <pt x="174" y="-74" on="0"/>
        <pt x="174" y="-143" on="0"/>
        <pt x="126" y="-239" on="0"/>
        <pt x="102" y="-264" on="1"/>
      </contour>
    </TTGlyph>
    <TTGlyph name="copyright" xMin="43" yMin="60" xMax="665" yMax="680">
      <contour>
        <pt x="451" y="264" on="1"/>
        <pt x="451" y="248" on="0"/>
        <pt x="443" y="224" on="1"/>
        <pt x="369" y="205" on="0"/>
        <pt x="337" y="205" on="1"/>
        <pt x="204" y="205" on="0"/>
        <pt x="204" y="337" on="1"/>
        <pt x="204" y="418" on="0"/>
        <pt x="314" y="551" on="0"/>
        <pt x="398" y="551" on="1"/>
        <pt x="425" y="551" on="0"/>
        <pt x="477" y="531" on="0"/>
        <pt x="484" y="523" on="1"/>
        <pt x="468" y="494" on="0"/>
        <pt x="460" y="457" on="1"/>
        <pt x="458" y="444" on="1"/>
        <pt x="437" y="438" on="0"/>
        <pt x="417" y="438" on="1"/>
        <pt x="423" y="466" on="0"/>
        <pt x="423" y="494" on="0"/>
        <pt x="414" y="499" on="1"/>
        <pt x="339" y="499" on="1"/>
        <pt x="309" y="488" on="0"/>
        <pt x="266" y="406" on="0"/>
        <pt x="266" y="322" on="0"/>
        <pt x="296" y="275" on="0"/>
        <pt x="310" y="270" on="1"/>
        <pt x="325" y="264" on="1"/>
      </contour>
      <contour>
        <pt x="533" y="126" on="0"/>
        <pt x="387" y="60" on="0"/>
        <pt x="193" y="60" on="0"/>
        <pt x="43" y="195" on="0"/>
        <pt x="43" y="302" on="1"/>
        <pt x="43" y="456" on="0"/>
        <pt x="130" y="564" on="1"/>
        <pt x="174" y="617" on="0"/>
        <pt x="320" y="680" on="0"/>
        <pt x="520" y="680" on="0"/>
        <pt x="665" y="552" on="0"/>
        <pt x="665" y="441" on="1"/>
        <pt x="665" y="293" on="0"/>
        <pt x="576" y="181" on="1"/>
      </contour>
      <contour>
        <pt x="207" y="585" on="0"/>
        <pt x="110" y="429" on="0"/>
        <pt x="110" y="262" on="0"/>
        <pt x="193" y="138" on="0"/>
        <pt x="271" y="124" on="1"/>
        <pt x="422" y="124" on="1"/>
        <pt x="505" y="163" on="0"/>
        <pt x="598" y="315" on="0"/>
        <pt x="598" y="485" on="0"/>
        <pt x="522" y="610" on="0"/>
        <pt x="443" y="625" on="1"/>
        <pt x="290" y="625" on="1"/>
      </contour>
    </TTGlyph>
    <TTGlyph name="currency" xMin="61" yMin="69" xMax="612" yMax="589">
      <contour>
        <pt x="274" y="174" on="1"/>
        <pt x="283" y="171" on="1"/>
        <pt x="373" y="171" on="1"/>
        <pt x="414" y="187" on="0"/>
        <pt x="481" y="293" on="0"/>
        <pt x="481" y="351" on="1"/>
        <pt x="481" y="424" on="0"/>
        <pt x="452" y="459" on="1"/>
        <pt x="425" y="491" on="0"/>
        <pt x="406" y="496" on="1"/>
        <pt x="397" y="499" on="1"/>
        <pt x="307" y="499" on="1"/>
        <pt x="266" y="483" on="0"/>
        <pt x="199" y="377" on="0"/>
        <pt x="199" y="246" on="0"/>
        <pt x="255" y="179" on="0"/>
      </contour>
      <contour>
        <pt x="222" y="502" on="1"/>
        <pt x="291" y="564" on="0"/>
        <pt x="454" y="564" on="0"/>
        <pt x="498" y="524" on="1"/>
        <pt x="567" y="589" on="1"/>
        <pt x="592" y="585" on="0"/>
        <pt x="607" y="556" on="1"/>
        <pt x="611" y="549" on="0"/>
        <pt x="612" y="541" on="1"/>
        <pt x="535" y="471" on="1"/>
        <pt x="551" y="431" on="0"/>
        <pt x="551" y="381" on="1"/>
        <pt x="551" y="292" on="0"/>
        <pt x="499" y="217" on="1"/>
        <pt x="578" y="136" on="1"/>
        <pt x="578" y="121" on="1"/>
        <pt x="564" y="91" on="0"/>
        <pt x="523" y="69" on="1"/>
        <pt x="441" y="153" on="1"/>
        <pt x="379" y="106" on="0"/>
        <pt x="224" y="106" on="0"/>
        <pt x="180" y="147" on="1"/>
        <pt x="105" y="78" on="1"/>
        <pt x="88" y="78" on="0"/>
        <pt x="75" y="90" on="1"/>
        <pt x="61" y="105" on="0"/>
        <pt x="61" y="121" on="1"/>
        <pt x="145" y="198" on="1"/>
        <pt x="129" y="234" on="0"/>
        <pt x="129" y="365" on="0"/>
        <pt x="169" y="434" on="1"/>
        <pt x="105" y="500" on="1"/>
        <pt x="105" y="515" on="1"/>
        <pt x="126" y="553" on="0"/>
        <pt x="159" y="568" on="1"/>
      </contour>
    </TTGlyph>
    <TTGlyph name="d" xMin="35" yMin="-15" xMax="514" yMax="790">
      <contour>
        <pt x="514" y="60" on="1"/>
        <pt x="514" y="37" on="0"/>
        <pt x="504" y="17" on="1"/>
        <pt x="437" y="9" on="0"/>
        <pt x="383" y="-15" on="1"/>
        <pt x="368" y="-15" on="0"/>
        <pt x="347" y="7" on="0"/>
        <pt x="347" y="30" on="1"/>
        <pt x="366" y="173" on="1"/>
        <pt x="356" y="179" on="1"/>
        <pt x="319" y="89" on="0"/>
        <pt x="243" y="-10" on="0"/>
        <pt x="119" y="-10" on="0"/>
        <pt x="35" y="81" on="0"/>
        <pt x="35" y="159" on="1"/>
        <pt x="35" y="288" on="0"/>
        <pt x="189" y="480" on="0"/>
        <pt x="303" y="480" on="1"/>
        <pt x="340" y="480" on="0"/>
        <pt x="390" y="449" on="1"/>
        <pt x="405" y="595" on="0"/>
        <pt x="410" y="715" on="1"/>
        <pt x="333" y="715" on="1"/>
        <pt x="333" y="738" on="0"/>
        <pt x="343" y="758" on="1"/>
        <pt x="400" y="766" on="0"/>
        <pt x="454" y="790" on="1"/>
        <pt x="468" y="790" on="0"/>
        <pt x="490" y="765" on="0"/>
        <pt x="490" y="745" on="1"/>
        <pt x="457" y="466" on="0"/>
        <pt x="431" y="60" on="1"/>
      </contour>
      <contour>
        <pt x="111" y="187" on="1"/>
        <pt x="111" y="143" on="0"/>
        <pt x="151" y="72" on="0"/>
        <pt x="176" y="60" on="1"/>
        <pt x="224" y="60" on="1"/>
        <pt x="285" y="72" on="0"/>
        <pt x="370" y="280" on="1"/>
        <pt x="371" y="288" on="0"/>
        <pt x="385" y="410" on="1"/>
        <pt x="221" y="410" on="1"/>
        <pt x="182" y="403" on="0"/>
        <pt x="111" y="262" on="0"/>
      </contour>
    </TTGlyph>
    <TTGlyph name="degree" xMin="0" yMin="470" xMax="196" yMax="670">
      <contour>
        <pt x="112" y="670" on="1"/>
        <pt x="149" y="670" on="0"/>
        <pt x="196" y="630" on="0"/>
        <pt x="196" y="543" on="0"/>
        <pt x="137" y="470" on="0"/>
        <pt x="84" y="470" on="1"/>
        <pt x="47" y="470" on="0"/>
        <pt x="0" y="510" on="0"/>
        <pt x="0" y="597" on="0"/>
        <pt x="59" y="670" on="0"/>
      </contour>
      <contour>
        <pt x="68" y="623" on="0"/>
        <pt x="46" y="587" on="0"/>
        <pt x="46" y="542" on="0"/>
        <pt x="67" y="515" on="0"/>
        <pt x="80" y="512" on="1"/>
        <pt x="113" y="512" on="1"/>
        <pt x="128" y="517" on="0"/>
        <pt x="150" y="553" on="0"/>
        <pt x="150" y="598" on="0"/>
        <pt x="129" y="625" on="0"/>
        <pt x="116" y="628" on="1"/>
        <pt x="83" y="628" on="1"/>
      </contour>
    </TTGlyph>
    <TTGlyph name="dieresis" xMin="61" yMin="586" xMax="369" yMax="681">
      <contour>
        <pt x="70" y="662" on="0"/>
        <pt x="108" y="681" on="0"/>
        <pt x="148" y="681" on="0"/>
        <pt x="171" y="663" on="0"/>
        <pt x="171" y="652" on="1"/>
        <pt x="166" y="616" on="1"/>
        <pt x="155" y="586" on="0"/>
        <pt x="102" y="586" on="1"/>
        <pt x="82" y="586" on="0"/>
        <pt x="61" y="604" on="0"/>
        <pt x="61" y="616" on="1"/>
        <pt x="65" y="647" on="1"/>
      </contour>
      <contour>
        <pt x="268" y="662" on="0"/>
        <pt x="306" y="681" on="0"/>
        <pt x="346" y="681" on="0"/>
        <pt x="369" y="663" on="0"/>
        <pt x="369" y="652" on="1"/>
        <pt x="364" y="616" on="1"/>
        <pt x="353" y="586" on="0"/>
        <pt x="300" y="586" on="1"/>
        <pt x="280" y="586" on="0"/>
        <pt x="259" y="604" on="0"/>
        <pt x="259" y="616" on="1"/>
        <pt x="263" y="647" on="1"/>
      </contour>
    </TTGlyph>
    <TTGlyph name="dieresis.cap" xMin="61" yMin="735" xMax="369" yMax="830">
      <contour>
        <pt x="70" y="811" on="0"/>
        <pt x="108" y="830" on="0"/>
        <pt x="148" y="830" on="0"/>
        <pt x="171" y="812" on="0"/>
        <pt x="171" y="801" on="1"/>
        <pt x="166" y="765" on="1"/>
        <pt x="155" y="735" on="0"/>
        <pt x="102" y="735" on="1"/>
        <pt x="82" y="735" on="0"/>
        <pt x="61" y="753" on="0"/>
        <pt x="61" y="765" on="1"/>
        <pt x="65" y="796" on="1"/>
      </contour>
      <contour>
        <pt x="268" y="811" on="0"/>
        <pt x="306" y="830" on="0"/>
        <pt x="346" y="830" on="0"/>
        <pt x="369" y="812" on="0"/>
        <pt x="369" y="801" on="1"/>
        <pt x="364" y="765" on="1"/>
        <pt x="353" y="735" on="0"/>
        <pt x="300" y="735" on="1"/>
        <pt x="280" y="735" on="0"/>
        <pt x="259" y="753" on="0"/>
        <pt x="259" y="765" on="1"/>
        <pt x="263" y="796" on="1"/>
      </contour>
    </TTGlyph>
</ttFont>
